{
.appVersion = "3108";
.formatVersion = 3;
axes = (
{
name = Weight;
tag = wght;
}
);
classes = (
{
automatic = 1;

glyphs = (
{
color = 6;
glyphname = A;
kernLeft = A;
kernRight = A;
lastChange = "2022-02-18 14:13:03 +0000";
layers = (
{
anchors = (
{
name = bottom;
pos = (316,60);
},
{
name = ogonek;
pos = (634,0);
},
{
name = top;
pos = (430,780);
}
);
hints = (
{
horizontal = 1;
origin = (0,9);
target = up;
type = BottomGhost;
},
{
horizontal = 1;
origin = (1,3);
target = (1,2);
type = Stem;
},
{
horizontal = 1;
origin = (0,7);
target = (0,1);
type = Stem;
},
{
horizontal = 1;
origin = (0,7);
target = down;
type = TopGhost;
}
);
layerId = "53F1C36F-0CF6-4FBE-93F4-60C790418F6C";
shapes = (
{
closed = 1;
nodes = (
(80,0,l),
(404,693,l),
(428,693,l),
(522,0,l),
(634,0,l),
(634,6,l),
(520,780,l),
(340,780,l),
(-34,6,l),
(-34,0,l)
);
},
{
closed = 1;
nodes = (
(509,227,l),
(494,321,l),
(206,321,l),
(159,227,l)
);
}
);
width = 700;
},
{
anchors = (
{
name = bottom;
pos = (325,60);
},
{
name = ogonek;
pos = (672,0);
},
{
name = top;
pos = (441,780);
}
);
layerId = "7BD6BBF9-E6B2-4B80-818C-1AB8B5401D18";
shapes = (
{
closed = 1;
nodes = (
(126,0,l),
(411,650,l),
(435,650,l),
(510,0,l),
(672,0,l),
(672,6,l),
(571,780,l),
(309,780,l),
(-42,6,l),
(-42,0,l)
);
},
{
closed = 1;
nodes = (
(505,195,l),
(492,321,l),
(241,321,l),
(186,195,l)
);
}
);
width = 730;
}
);
unicode = 65;
},
{
color = 6;
glyphname = AE;
kernLeft = A;
kernRight = A;
lastChange = "2022-02-18 14:13:03 +0000";
layers = (
{
anchors = (
{
name = bottom;
pos = (480,0);
},
{
name = top;
pos = (615,780);
}
);
guides = (
{
angle = 98.3362;
pos = (926,0);
},
{
pos = (502,274);
}
);
hints = (
{
horizontal = 1;
origin = (0,9);
target = (2,2);
type = Stem;
},
{
horizontal = 1;
origin = (1,3);
target = (1,2);
type = Stem;
},
{
horizontal = 1;
origin = (3,3);
target = (3,2);
type = Stem;
},
{
horizontal = 1;
origin = (0,7);
target = (4,3);
type = Stem;
},
{
horizontal = 1;
origin = (0,0);
target = up;
type = BottomGhost;
}
);
layerId = "53F1C36F-0CF6-4FBE-93F4-60C790418F6C";
shapes = (
{
closed = 1;
nodes = (
(80,0,l),
(404,693,l),
(428,693,l),
(522,0,l),
(634,0,l),
(634,2,l),
(520,780,l),
(340,780,l),
(-34,6,l),
(-34,0,l)
);
},
{
closed = 1;
nodes = (
(509,227,l),
(494,321,l),
(206,321,l),
(159,227,l)
);
},
{
closed = 1;
nodes = (
(896,0,l),
(912,94,l),
(566,94,l),
(522,0,l)
);
},
{
closed = 1;
nodes = (
(841,375,l),
(856,465,l),
(508,465,l),
(493,375,l)
);
},
{
closed = 1;
nodes = (
(873,686,l),
(889,780,l),
(365,780,l),
(459,686,l)
);
}
);
width = 960;
},
{
anchors = (
{
name = bottom;
pos = (460,0);
},
{
name = top;
pos = (629,780);
}
);
background = {
shapes = (
{
closed = 1;
nodes = (
(956,0,l),
(978,130,l),
(622,130,l),
(659,354,l),
(925,354,l),
(945,476,l),
(679,476,l),
(708,650,l),
(1058,650,l),
(1080,780,l),
(564,780,l),
(434,0,l)
);
}
);
};
layerId = "7BD6BBF9-E6B2-4B80-818C-1AB8B5401D18";
shapes = (
{
closed = 1;
nodes = (
(126,0,l),
(411,650,l),
(435,650,l),
(510,0,l),
(672,0,l),
(672,6,l),
(571,780,l),
(309,780,l),
(-42,6,l),
(-42,0,l)
);
},
{
closed = 1;
nodes = (
(505,195,l),
(492,321,l),
(241,321,l),
(186,195,l)
);
},
{
closed = 1;
nodes = (
(956,0,l),
(978,130,l),
(583,130,l),
(522,0,l)
);
},
{
closed = 1;
nodes = (
(897,354,l),
(918,476,l),
(510,476,l),
(489,354,l)
);
},
{
closed = 1;
nodes = (
(927,650,l),
(949,780,l),
(365,780,l),
(453,650,l)
);
}
);
width = 1020;
}
);
unicode = 198;
},
{
color = 6;
glyphname = B;
kernLeft = B;
kernRight = B;
lastChange = "2022-02-18 14:13:03 +0000";
layers = (
{
background = {
shapes = (
{
closed = 1;
nodes = (
(324,0,ls),
(519,0,o),
(625,92,o),
(648,228,cs),
(665,330,o),
(624,398,o),
(526,420,c),
(528,434,l),
(610,458,o),
(658,519,o),
(670,591,cs),
(689,705,o),
(618,780,o),
(436,780,cs),
(170,780,l),
(40,0,l)
);
},
{
closed = 1;
nodes = (
(212,375,l),
(386,375,ls),
(509,375,o),
(552,324,o),
(537,236,cs),
(522,145,o),
(462,94,o),
(339,94,cs),
(165,94,l)
);
},
{
closed = 1;
nodes = (
(263,686,l),
(422,686,ls),
(526,686,o),
(570,651,o),
(558,574,cs),
(545,497,o),
(489,462,o),
(385,462,cs),
(226,462,l)
);
}
);
};
guides = (
{
angle = 260.5377;
pos = (90,300);
},
{
angle = 260.5377;
pos = (508,421);
},
{
angle = 260.5377;
pos = (641,300);
},
{
angle = 260.5377;
pos = (200,300);
}
);
hints = (
{
horizontal = 1;
origin = (0,15);
target = (1,8);
type = Stem;
},
{
horizontal = 1;
origin = (1,0);
target = (2,8);
type = Stem;
},
{
horizontal = 1;
origin = (0,14);
target = (2,0);
type = Stem;
},
{
origin = (1,4);
target = (0,3);
type = Stem;
}
);
layerId = "53F1C36F-0CF6-4FBE-93F4-60C790418F6C";
shapes = (
{
closed = 1;
nodes = (
(317,0,ls),
(517,0,o),
(629,104,o),
(629,248,cs),
(629,337,o),
(586,391,o),
(506,409,c),
(510,433,l),
(597,459,o),
(645,520,o),
(645,605,cs),
(645,714,o),
(566,780,o),
(411,780,cs),
(170,780,l),
(40,0,l)
);
},
{
closed = 1;
nodes = (
(212,375,l),
(370,375,ls),
(471,375,o),
(517,328,o),
(517,247,cs),
(517,147,o),
(447,90,o),
(326,90,cs),
(165,90,l)
);
},
{
closed = 1;
nodes = (
(265,690,l),
(391,690,ls),
(468,690,o),
(533,669,o),
(533,587,cs),
(533,479,o),
(422,462,o),
(370,462,cs),
(227,462,l)
);
}
);
width = 680;
},
{
guides = (
{
angle = 260.5377;
pos = (76,300);
},
{
angle = 260.5377;
pos = (240,300);
}
);
layerId = "7BD6BBF9-E6B2-4B80-818C-1AB8B5401D18";
shapes = (
{
closed = 1;
nodes = (
(355,0,ls),
(570,0,o),
(675,102,o),
(675,245,cs),
(675,342,o),
(626,388,o),
(552,409,c),
(556,433,l),
(644,454,o),
(697,518,o),
(697,601,cs),
(697,701,o),
(628,780,o),
(462,780,cs),
(156,780,l),
(26,0,l)
);
},
{
closed = 1;
nodes = (
(248,348,l),
(376,348,ls),
(466,348,o),
(508,312,o),
(508,245,cs),
(508,169,o),
(448,120,o),
(353,120,cs),
(210,120,l)
);
},
{
closed = 1;
nodes = (
(300,660,l),
(427,660,ls),
(497,660,o),
(530,629,o),
(530,575,cs),
(530,511,o),
(485,466,o),
(394,466,cs),
(268,466,l)
);
}
);
width = 710;
}
);
unicode = 66;
},
{
color = 6;
glyphname = C;
kernLeft = C;
kernRight = C;
lastChange = "2022-02-18 14:13:03 +0000";
layers = (
{
anchors = (
{
name = bottom;
pos = (342,0);
},
{
name = top;
pos = (418,780);
}
);
background = {
guides = (
{
angle = 267.4552;
pos = (416,750);
},
{
angle = 84.2894;
pos = (335,30);
}
);
shapes = (
{
closed = 1;
nodes = (
(500,-15,o),
(599,95,o),
(651,228,c),
(554,266,l),
(519,162,o),
(449,75,o),
(339,75,cs),
(230,75,o),
(166,166,o),
(166,321,cs),
(166,468,o),
(224,705,o),
(414,705,cs),
(512,705,o),
(569,634,o),
(582,506,c),
(689,523,l),
(673,697,o),
(578,795,o),
(418,795,cs),
(149,795,o),
(52,519,o),
(52,313,cs),
(52,101,o),
(155,-15,o),
(330,-15,cs)
);
}
);
};
guides = (
{
angle = 189.211;
pos = (640,515);
},
{
angle = -22.2035;
pos = (602,246);
},
{
angle = 4.0142;
pos = (109,317);
},
{
angle = 267.4552;
pos = (418,750);
},
{
angle = 84.2894;
pos = (340,30);
},
{
angle = 260.8238;
pos = (30,300);
}
);
layerId = "7BD6BBF9-E6B2-4B80-818C-1AB8B5401D18";
shapes = (
{
closed = 1;
nodes = (
(518,-15,o),
(611,95,o),
(663,221,c),
(518,280,l),
(484,188,o),
(435,111,o),
(348,111,cs),
(257,111,o),
(214,192,o),
(214,324,c),
(214,460,o),
(271,669,o),
(415,669,cs),
(494,669,o),
(533,607,o),
(540,499,c),
(701,525,l),
(685,697,o),
(589,795,o),
(420,795,cs),
(137,795,o),
(40,520,o),
(40,312,c),
(40,100,o),
(149,-15,o),
(336,-15,cs)
);
}
);
userData = {
RMXScaler = {
height = 130;
width = 130;
};
};
width = 700;
},
{
anchors = (
{
name = bottom;
pos = (342,0);
},
{
name = top;
pos = (443,780);
}
);
background = {
shapes = (
{
closed = 1;
nodes = (
(629,-15,o),
(730,253,o),
(730,460,cs),
(730,677,o),
(618,795,o),
(433,795,cs),
(154,795,o),
(53,528,o),
(53,321,cs),
(53,105,o),
(164,-15,o),
(350,-15,cs)
);
},
{
closed = 1;
nodes = (
(240,75,o),
(167,153,o),
(167,330,cs),
(167,500,o),
(234,705,o),
(424,705,cs),
(542,705,o),
(616,627,o),
(616,450,cs),
(616,280,o),
(548,75,o),
(358,75,cs)
);
}
);
};
guides = (
{
angle = 260.8238;
pos = (42,300);
},
{
angle = 189.211;
pos = (640,515);
},
{
angle = -22.2035;
pos = (602,246);
},
{
angle = 4.0142;
pos = (109,317);
}
);
hints = (
{
horizontal = 1;
origin = (0,25);
target = (0,6);
type = Stem;
},
{
horizontal = 1;
origin = (0,19);
target = (0,12);
type = Stem;
},
{
origin = (0,22);
target = (0,9);
type = Stem;
},
{
origin = (0,15);
target = (0,16);
type = Stem;
}
);
layerId = "53F1C36F-0CF6-4FBE-93F4-60C790418F6C";
shapes = (
{
closed = 1;
nodes = (
(500,-15,o),
(599,95,o),
(651,228,c),
(554,266,l),
(519,162,o),
(449,75,o),
(339,75,cs),
(230,75,o),
(166,166,o),
(166,321,cs),
(166,468,o),
(224,705,o),
(414,705,cs),
(512,705,o),
(569,634,o),
(582,506,c),
(689,523,l),
(673,697,o),
(578,795,o),
(418,795,cs),
(149,795,o),
(52,519,o),
(52,313,cs),
(52,101,o),
(155,-15,o),
(330,-15,cs)
);
}
);
userData = {
RMXScaler = {
height = 130;
width = 130;
};
};
visible = 1;
width = 690;
}
);
unicode = 67;
},
{
color = 6;
glyphname = D;
kernLeft = B;
kernRight = D;
lastChange = "2022-02-18 14:13:03 +0000";
layers = (
{
anchors = (
{
name = bottom;
pos = (304,0);
},
{
name = center;
pos = (212,420);
},
{
name = top;
pos = (373,780);
}
);
guides = (
{
pos = (600,420);
},
{
angle = 260.5377;
pos = (90,300);
},
{
angle = 260.5377;
pos = (202,300);
}
);
hints = (
{
horizontal = 1;
origin = (0,8);
target = (1,8);
type = Stem;
},
{
horizontal = 1;
origin = (0,7);
target = (1,0);
type = Stem;
},
{
origin = (1,4);
target = (0,3);
type = Stem;
}
);
layerId = "53F1C36F-0CF6-4FBE-93F4-60C790418F6C";
shapes = (
{
closed = 1;
nodes = (
(283,0,ls),
(569,0,o),
(728,205,o),
(728,446,cs),
(728,660,o),
(603,780,o),
(376,780,cs),
(170,780,l),
(40,0,l)
);
},
{
closed = 1;
nodes = (
(266,686,l),
(358,686,ls),
(520,686,o),
(613,615,o),
(613,437,cs),
(613,239,o),
(497,94,o),
(289,94,cs),
(168,94,l)
);
}
);
width = 750;
},
{
anchors = (
{
name = bottom;
pos = (303,0);
},
{
name = center;
pos = (233,420);
},
{
name = top;
pos = (385,780);
}
);
background = {
shapes = (
{
closed = 1;
nodes = (
(298,0,ls),
(615,0,o),
(754,202,o),
(754,455,cs),
(754,641,o),
(655,780,o),
(400,780,cs),
(152,780,l),
(26,0,l)
);
},
{
closed = 1;
nodes = (
(298,650,l),
(370,650,ls),
(424,650,o),
(579,650,o),
(579,438,cs),
(579,250,o),
(487,130,o),
(310,130,cs),
(216,130,l)
);
}
);
};
layerId = "7BD6BBF9-E6B2-4B80-818C-1AB8B5401D18";
shapes = (
{
closed = 1;
nodes = (
(332,0,ls),
(666,0,o),
(750,270,o),
(750,457,cs),
(750,675,o),
(633,780,o),
(410,780,cs),
(156,780,l),
(26,0,l)
);
},
{
closed = 1;
nodes = (
(302,650,l),
(398,650,ls),
(528,650,o),
(578,586,o),
(578,470,cs),
(578,362,o),
(533,130,o),
(321,130,cs),
(216,130,l)
);
}
);
width = 760;
}
);
unicode = 68;
},
{
color = 6;
glyphname = E;
kernLeft = B;
kernRight = E;
lastChange = "2022-02-18 14:13:03 +0000";
layers = (
{
anchors = (
{
name = bottom;
pos = (283,0);
},
{
name = ogonek;
pos = (526,0);
},
{
name = top;
pos = (408,780);
},
{
name = topleft;
pos = (97,780);
}
);
guides = (
{
angle = 260.5377;
pos = (90,300);
},
{
angle = 260.5377;
pos = (200,300);
},
{
angle = 260.5377;
pos = (576,300);
}
);
hints = (
{
horizontal = 1;
origin = (0,11);
target = (0,2);
type = Stem;
},
{
horizontal = 1;
origin = (0,3);
target = (0,6);
type = Stem;
},
{
horizontal = 1;
origin = (0,10);
target = (0,7);
type = Stem;
}
);
layerId = "53F1C36F-0CF6-4FBE-93F4-60C790418F6C";
shapes = (
{
closed = 1;
nodes = (
(526,0,l),
(542,94,l),
(166,94,l),
(213,375,l),
(501,375,l),
(516,465,l),
(228,465,l),
(264,686,l),
(630,686,l),
(646,780,l),
(170,780,l),
(40,0,l)
);
}
);
width = 630;
},
{
anchors = (
{
name = bottom;
pos = (288,0);
},
{
name = ogonek;
pos = (548,0);
},
{
name = top;
pos = (410,780);
},
{
name = topleft;
pos = (96,780);
}
);
guides = (
{
angle = 260.5377;
pos = (76,300);
},
{
angle = 260.5377;
pos = (244,300);
},
{
angle = 260.5377;
pos = (598,300);
},
{
angle = 260.5377;
pos = (508,300);
}
);
layerId = "7BD6BBF9-E6B2-4B80-818C-1AB8B5401D18";
shapes = (
{
closed = 1;
nodes = (
(548,0,l),
(570,132,l),
(214,132,l),
(251,354,l),
(517,354,l),
(537,476,l),
(271,476,l),
(300,648,l),
(650,648,l),
(672,780,l),
(156,780,l),
(26,0,l)
);
}
);
width = 640;
}
);
unicode = 69;
},
{
color = 6;
glyphname = Schwa;
kernLeft = C;
kernRight = D;
lastChange = "2022-02-18 14:13:03 +0000";
layers = (
{
anchors = (
{
name = bottom;
pos = (287,0);
},
{
name = top;
pos = (388,780);
}
);
background = {
shapes = (
{
closed = 1;
nodes = (
(230,795,o),
(131,685,o),
(79,552,c),
(176,514,l),
(211,618,o),
(281,705,o),
(391,705,cs),
(500,705,o),
(564,614,o),
(564,459,cs),
(564,312,o),
(506,75,o),
(316,75,cs),
(218,75,o),
(161,146,o),
(148,274,c),
(41,257,l),
(57,83,o),
(152,-15,o),
(312,-15,cs),
(581,-15,o),
(678,261,o),
(678,467,cs),
(678,679,o),
(575,795,o),
(400,795,cs)
);
},
{
closed = 1;
nodes = (
(606,382,l),
(54,382,l),
(39,292,l),
(579,292,l)
);
}
);
};
guides = (
{
pos = (566,412);
},
{
angle = 260.5377;
pos = (40,300);
},
{
angle = 260.5377;
pos = (152,300);
},
{
angle = 162.5042;
pos = (163,550);
}
);
hints = (
{
horizontal = 1;
origin = (0,32);
target = (0,19);
type = Stem;
},
{
horizontal = 1;
origin = (0,23);
target = (0,26);
type = Stem;
},
{
horizontal = 1;
origin = (0,5);
target = (0,12);
type = Stem;
},
{
place = (44, 115);
place = (44, 115);
type = Stem;
},
{
origin = (0,16);
target = (0,2);
type = Stem;
}
);
layerId = "53F1C36F-0CF6-4FBE-93F4-60C790418F6C";
shapes = (
{
closed = 1;
nodes = (
(581,-15,o),
(678,261,o),
(678,467,cs),
(678,679,o),
(575,795,o),
(400,795,cs),
(239,795,o),
(142,697,o),
(88,574,c),
(187,543,l),
(224,633,o),
(291,705,o),
(391,705,cs),
(500,705,o),
(564,614,o),
(564,459,cs),
(564,447,ls),
(564,300,o),
(506,75,o),
(316,75,cs),
(223,75,o),
(135,139,o),
(162,355,c),
(107,326,l),
(588,326,l),
(615,412,l),
(60,412,l),
(49,361,o),
(44,313,o),
(44,272,cs),
(44,58,o),
(174,-15,o),
(312,-15,cs)
);
}
);
width = 700;
},
{
anchors = (
{
name = bottom;
pos = (342,0);
},
{
name = top;
pos = (419,780);
}
);
background = {
shapes = (
{
closed = 1;
nodes = (
(624,-15,o),
(720,265,o),
(720,460,cs),
(720,686,o),
(591,795,o),
(404,795,cs),
(104,795,o),
(10,513,o),
(10,320,cs),
(10,94,o),
(140,-15,o),
(326,-15,cs)
);
},
{
closed = 1;
nodes = (
(233,111,o),
(182,183,o),
(182,305,cs),
(182,422,o),
(229,669,o),
(404,669,cs),
(498,669,o),
(548,597,o),
(548,475,cs),
(548,360,o),
(503,111,o),
(327,111,cs)
);
}
);
};
guides = (
{
pos = (568,407);
},
{
pos = (473,286);
},
{
angle = 162.5042;
pos = (239,525);
}
);
layerId = "7BD6BBF9-E6B2-4B80-818C-1AB8B5401D18";
shapes = (
{
closed = 1;
nodes = (
(618,-15,o),
(720,244,o),
(720,451,cs),
(720,664,o),
(608,795,o),
(416,795,cs),
(236,795,o),
(140,693,o),
(86,573,c),
(236,526,l),
(271,606,o),
(322,669,o),
(409,669,cs),
(504,669,o),
(556,590,o),
(556,445,cs),
(556,433,ls),
(556,272,o),
(488,111,o),
(349,111,cs),
(262,111,o),
(161,176,o),
(211,375,c),
(122,320,l),
(588,320,l),
(615,437,l),
(60,437,l),
(49,382,o),
(44,333,o),
(44,292,cs),
(44,63,o),
(186,-15,o),
(336,-15,cs)
);
}
);
width = 730;
}
);
unicode = 399;
},
{
color = 6;
glyphname = F;
kernLeft = B;
kernRight = F;
lastChange = "2022-02-18 14:13:03 +0000";
layers = (
{
guides = (
{
angle = 260.5377;
pos = (90,300);
},
{
angle = 260.5377;
pos = (202,300);
},
{
angle = 260.5377;
pos = (570,300);
}
);
hints = (
{
horizontal = 1;
origin = (0,9);
target = up;
type = BottomGhost;
},
{
horizontal = 1;
origin = (0,1);
target = (0,4);
type = Stem;
},
{
horizontal = 1;
origin = (0,8);
target = (0,5);
type = Stem;
}
);
layerId = "53F1C36F-0CF6-4FBE-93F4-60C790418F6C";
shapes = (
{
closed = 1;
nodes = (
(152,0,l),
(214,371,l),
(510,371,l),
(525,461,l),
(229,461,l),
(266,686,l),
(634,686,l),
(650,780,l),
(170,780,l),
(40,0,l)
);
}
);
width = 600;
},
{
guides = (
{
angle = 260.5377;
pos = (76,300);
},
{
angle = 260.5377;
pos = (570,300);
},
{
angle = 260.5377;
pos = (244,300);
},
{
angle = 260.5377;
pos = (486,300);
}
);
layerId = "7BD6BBF9-E6B2-4B80-818C-1AB8B5401D18";
shapes = (
{
closed = 1;
nodes = (
(194,0,l),
(252,349,l),
(494,349,l),
(515,471,l),
(272,471,l),
(302,648,l),
(628,648,l),
(650,780,l),
(156,780,l),
(26,0,l)
);
}
);
width = 600;
}
);
unicode = 70;
},
{
color = 6;
glyphname = G;
kernLeft = C;
kernRight = G;
lastChange = "2022-02-18 14:13:03 +0000";
layers = (
{
anchors = (
{
name = bottom;
pos = (335,0);
},
{
name = top;
pos = (464,780);
}
);
background = {
shapes = (
{
closed = 1;
nodes = (
(654,-15,o),
(750,265,o),
(750,460,cs),
(750,686,o),
(621,795,o),
(434,795,cs),
(134,795,o),
(40,513,o),
(40,320,cs),
(40,94,o),
(170,-15,o),
(356,-15,cs)
);
},
{
closed = 1;
nodes = (
(263,111,o),
(212,183,o),
(212,305,cs),
(212,422,o),
(259,669,o),
(434,669,cs),
(528,669,o),
(578,597,o),
(578,475,cs),
(578,360,o),
(533,111,o),
(357,111,cs)
);
}
);
};
guides = (
{
angle = 80.8238;
pos = (702,300);
},
{
angle = 80.8238;
pos = (202,325);
},
{
angle = 80.8238;
pos = (30,300);
},
{
angle = 80.8238;
pos = (552,300);
},
{
angle = 180;
pos = (544,90);
},
{
angle = 194.1622;
pos = (667,536);
},
{
pos = (538,407);
},
{
pos = (443,286);
},
{
angle = 80.8238;
pos = (569,300);
}
);
layerId = "7BD6BBF9-E6B2-4B80-818C-1AB8B5401D18";
shapes = (
{
closed = 1;
nodes = (
(420,-15,o),
(476,24,o),
(508,72,c),
(532,72,l),
(520,0,l),
(653,0,l),
(719,407,l),
(356,407,l),
(335,286,l),
(550,286,l),
(534,181,o),
(468,111,o),
(373,111,cs),
(273,111,o),
(212,189,o),
(212,322,cs),
(212,431,o),
(253,669,o),
(437,669,cs),
(528,669,o),
(579,607,o),
(581,514,c),
(740,554,l),
(729,688,o),
(646,795,o),
(453,795,cs),
(133,795,o),
(40,513,o),
(40,321,cs),
(40,94,o),
(170,-15,o),
(328,-15,cs)
);
}
);
width = 770;
},
{
anchors = (
{
name = bottom;
pos = (333,0);
},
{
name = top;
pos = (459,780);
}
);
background = {
shapes = (
{
closed = 1;
nodes = (
(605,-15,o),
(728,213,o),
(728,478,c),
(728,675,o),
(618,795,o),
(432,795,cs),
(175,795,o),
(52,566,o),
(52,303,c),
(52,106,o),
(162,-15,o),
(349,-15,cs)
);
},
{
closed = 1;
nodes = (
(232,75,o),
(164,160,o),
(164,301,c),
(164,500,o),
(242,705,o),
(428,705,cs),
(547,705,o),
(616,621,o),
(616,479,c),
(616,282,o),
(539,75,o),
(351,75,cs)
);
}
);
};
guides = (
{
angle = 260.5377;
pos = (26,300);
},
{
angle = 260.5377;
pos = (140,300);
},
{
angle = 260.5377;
pos = (690,300);
},
{
angle = 260.5377;
pos = (588,300);
},
{
angle = 194.1622;
pos = (668,536);
},
{
angle = 260.5377;
pos = (600,300);
},
{
pos = (526,382);
},
{
angle = 180;
pos = (552,84);
}
);
hints = (
{
horizontal = 1;
origin = (0,31);
target = (0,12);
type = Stem;
},
{
horizontal = 1;
origin = (0,8);
target = (0,7);
type = Stem;
},
{
horizontal = 1;
origin = (0,25);
target = (0,18);
type = Stem;
},
{
horizontal = 1;
origin = (0,4);
target = up;
type = BottomGhost;
},
{
origin = (0,28);
target = (0,15);
type = Stem;
},
{
origin = (0,21);
target = (0,22);
type = Stem;
}
);
layerId = "53F1C36F-0CF6-4FBE-93F4-60C790418F6C";
shapes = (
{
closed = 1;
nodes = (
(432,-15,o),
(499,27,o),
(541,90,c),
(565,90,l),
(550,0,l),
(640,0,l),
(704,382,l),
(344,382,l),
(329,292,l),
(587,292,l),
(563,156,o),
(474,73,o),
(360,73,cs),
(246,73,o),
(166,155,o),
(166,326,cs),
(166,486,o),
(236,705,o),
(432,705,cs),
(542,705,o),
(607,638,o),
(616,523,c),
(724,550,l),
(713,700,o),
(605,795,o),
(440,795,cs),
(181,795,o),
(52,562,o),
(52,325,cs),
(52,112,o),
(158,-15,o),
(332,-15,cs)
);
}
);
width = 770;
}
);
unicode = 71;
},
{
color = 6;
glyphname = H;
kernLeft = B;
kernRight = H;
lastChange = "2022-02-18 14:13:03 +0000";
layers = (
{
anchors = (
{
name = bottom;
pos = (340,0);
},
{
name = center;
pos = (440,600);
},
{
name = top;
pos = (470,780);
},
{
name = topleft;
pos = (80,780);
}
);
guides = (
{
pos = (390,300);
},
{
angle = 260.5377;
pos = (690,300);
},
{
angle = 260.5377;
pos = (90,300);
}
);
hints = (
{
horizontal = 1;
origin = (0,11);
target = up;
type = BottomGhost;
},
{
horizontal = 1;
origin = (0,1);
target = (0,8);
type = Stem;
},
{
horizontal = 1;
origin = (0,10);
target = down;
type = TopGhost;
}
);
layerId = "53F1C36F-0CF6-4FBE-93F4-60C790418F6C";
shapes = (
{
closed = 1;
nodes = (
(152,0,l),
(214,373,l),
(590,373,l),
(528,0,l),
(640,0,l),
(770,780,l),
(658,780,l),
(606,467,l),
(230,467,l),
(282,780,l),
(170,780,l),
(40,0,l)
);
}
);
width = 780;
},
{
anchors = (
{
name = bottom;
pos = (352,0);
},
{
name = center;
pos = (415,390);
},
{
name = top;
pos = (478,780);
},
{
name = topleft;
pos = (96,780);
}
);
background = {
shapes = (
{
closed = 1;
nodes = (
(194,0,l),
(250,347,l),
(566,347,l),
(510,0,l),
(678,0,l),
(804,780,l),
(636,780,l),
(588,483,l),
(272,483,l),
(320,780,l),
(152,780,l),
(26,0,l)
);
}
);
};
guides = (
{
angle = 260.5377;
pos = (76,300);
},
{
angle = 260.5377;
pos = (724,300);
},
{
pos = (400,300);
}
);
layerId = "7BD6BBF9-E6B2-4B80-818C-1AB8B5401D18";
shapes = (
{
closed = 1;
nodes = (
(194,0,l),
(252,347,l),
(564,347,l),
(506,0,l),
(674,0,l),
(804,780,l),
(636,780,l),
(587,483,l),
(275,483,l),
(324,780,l),
(156,780,l),
(26,0,l)
);
}
);
width = 800;
}
);
unicode = 72;
},
{
color = 6;
glyphname = I;
kernLeft = B;
kernRight = H;
lastChange = "2022-02-18 14:13:03 +0000";
layers = (
{
anchors = (
{
name = bottom;
pos = (100,0);
},
{
name = ogonek;
pos = (152,0);
},
{
name = top;
pos = (230,780);
},
{
name = topleft;
pos = (80,780);
}
);
guides = (
{
pos = (150,300);
},
{
angle = 260.5377;
pos = (94,300);
},
{
angle = 260.5377;
pos = (206,300);
}
);
hints = (
{
horizontal = 1;
origin = (0,3);
target = up;
type = BottomGhost;
},
{
horizontal = 1;
origin = (0,2);
target = down;
type = TopGhost;
},
{
origin = (0,3);
target = (0,1);
type = Stem;
}
);
layerId = "53F1C36F-0CF6-4FBE-93F4-60C790418F6C";
shapes = (
{
closed = 1;
nodes = (
(156,0,l),
(286,780,l),
(174,780,l),
(44,0,l)
);
}
);
width = 300;
},
{
anchors = (
{
name = bottom;
pos = (110,0);
},
{
name = ogonek;
pos = (194,0);
},
{
name = top;
pos = (240,780);
},
{
name = topleft;
pos = (80,780);
}
);
guides = (
{
angle = 260.5377;
pos = (76,300);
},
{
angle = 260.5377;
pos = (244,300);
}
);
layerId = "7BD6BBF9-E6B2-4B80-818C-1AB8B5401D18";
shapes = (
{
closed = 1;
nodes = (
(194,0,l),
(324,780,l),
(156,780,l),
(26,0,l)
);
}
);
width = 320;
}
);
unicode = 73;
},
{
color = 6;
glyphname = J;
kernLeft = B;
kernRight = H;
lastChange = "2022-02-18 14:13:03 +0000";
layers = (
{
anchors = (
{
name = bottom;
pos = (100,0);
},
{
name = top;
pos = (230,780);
}
);
guides = (
{
pos = (222,780);
},
{
angle = 260.5377;
pos = (94,300);
},
{
angle = 260.5377;
pos = (206,300);
}
);
hints = (
{
horizontal = 1;
origin = (0,5);
target = down;
type = TopGhost;
}
);
layerId = "53F1C36F-0CF6-4FBE-93F4-60C790418F6C";
shapes = (
{
closed = 1;
nodes = (
(59,-150,l),
(125,-66,o),
(154,-12,o),
(180,144,cs),
(286,780,l),
(174,780,l),
(70,156,ls),
(43,-6,o),
(-1,-73,o),
(-65,-144,c),
(-65,-150,l)
);
}
);
width = 300;
},
{
anchors = (
{
name = bottom;
pos = (110,0);
},
{
name = top;
pos = (240,780);
}
);
guides = (
{
angle = 260.5377;
pos = (76,300);
},
{
angle = 260.5377;
pos = (244,300);
},
{
angle = -6.8144;
pos = (46,126);
}
);
layerId = "7BD6BBF9-E6B2-4B80-818C-1AB8B5401D18";
shapes = (
{
closed = 1;
nodes = (
(110,-150,l),
(158,-84,o),
(190,-24,o),
(212,106,cs),
(324,780,l),
(156,780,l),
(46,126,ls),
(22,-14,o),
(-15,-73,o),
(-70,-144,c),
(-70,-150,l)
);
}
);
width = 320;
}
);
unicode = 74;
},
{
color = 6;
glyphname = K;
kernLeft = B;
kernRight = K;
lastChange = "2022-02-18 14:13:03 +0000";
layers = (
{
anchors = (
{
name = bottom;
pos = (323,60);
},
{
name = top;
pos = (418,780);
}
);
guides = (
{
angle = 180;
pos = (229,362);
},
{
pos = (244,462);
},
{
angle = 260.5377;
pos = (90,300);
},
{
angle = 260.5377;
pos = (198,300);
}
);
hints = (
{
horizontal = 1;
origin = (0,14);
target = up;
type = BottomGhost;
},
{
horizontal = 1;
origin = (0,1);
target = (0,11);
type = Stem;
},
{
horizontal = 1;
origin = (0,13);
target = down;
type = TopGhost;
}
);
layerId = "53F1C36F-0CF6-4FBE-93F4-60C790418F6C";
shapes = (
{
closed = 1;
nodes = (
(150,0,l),
(210,362,l),
(270,362,l),
(476,0,l),
(602,0,l),
(602,6,l),
(363,405,l),
(698,774,l),
(698,780,l),
(572,780,l),
(287,462,l),
(227,462,l),
(280,780,l),
(170,780,l),
(40,0,l)
);
}
);
width = 670;
},
{
anchors = (
{
name = bottom;
pos = (347,60);
},
{
name = top;
pos = (440,780);
}
);
guides = (
{
angle = 260.5377;
pos = (76,300);
},
{
angle = 260.5377;
pos = (646,0);
},
{
angle = 260.5377;
pos = (244,300);
},
{
angle = -63.1721;
pos = (398,174);
},
{
angle = -63.1721;
pos = (672,6);
},
{
angle = 232.0458;
pos = (754,774);
},
{
angle = 232.0458;
pos = (445,630);
}
);
layerId = "7BD6BBF9-E6B2-4B80-818C-1AB8B5401D18";
shapes = (
{
closed = 1;
nodes = (
(190,0,l),
(248,348,l),
(308,348,l),
(476,0,l),
(662,0,l),
(662,6,l),
(456,409,l),
(744,774,l),
(744,780,l),
(552,780,l),
(326,480,l),
(270,480,l),
(320,780,l),
(156,780,l),
(26,0,l)
);
}
);
width = 730;
}
);
unicode = 75;
},
{
color = 6;
glyphname = L;
kernLeft = B;
kernRight = L;
lastChange = "2022-02-18 14:13:03 +0000";
layers = (
{
anchors = (
{
name = bottom;
pos = (270,0);
},
{
name = center;
pos = (365,390);
},
{
name = slash;
pos = (163,390);
},
{
name = top;
pos = (221,780);
},
{
name = topright;
pos = (277,780);
}
);
guides = (
{
angle = 260.5377;
pos = (90,300);
},
{
angle = 260.5377;
pos = (148,300);
},
{
pos = (365,390);
}
);
hints = (
{
horizontal = 1;
origin = (0,5);
target = (0,2);
type = Stem;
},
{
horizontal = 1;
origin = (0,4);
target = down;
type = TopGhost;
}
);
layerId = "53F1C36F-0CF6-4FBE-93F4-60C790418F6C";
shapes = (
{
closed = 1;
nodes = (
(500,0,l),
(515,92,l),
(167,92,l),
(282,780,l),
(170,780,l),
(40,0,l)
);
}
);
width = 580;
},
{
anchors = (
{
name = bottom;
pos = (267,0);
},
{
name = center;
pos = (434,390);
},
{
name = slash;
pos = (175,390);
},
{
name = top;
pos = (240,780);
},
{
name = topright;
pos = (324,780);
}
);
guides = (
{
angle = 260.5377;
pos = (76,300);
},
{
angle = 260.5377;
pos = (244,300);
},
{
pos = (153,282);
},
{
angle = 260.5377;
pos = (160,300);
}
);
layerId = "7BD6BBF9-E6B2-4B80-818C-1AB8B5401D18";
shapes = (
{
closed = 1;
nodes = (
(500,0,l),
(522,132,l),
(216,132,l),
(324,780,l),
(156,780,l),
(26,0,l)
);
}
);
width = 580;
}
);
unicode = 76;
},
{
color = 6;
glyphname = M;
kernLeft = B;
kernRight = H;
lastChange = "2022-02-18 14:13:03 +0000";
layers = (
{
guides = (
{
pos = (565,684);
},
{
angle = 260.5377;
pos = (90,300);
},
{
angle = 260.5377;
pos = (920,300);
},
{
angle = 260.5377;
pos = (192,300);
},
{
angle = 260.5377;
pos = (808,300);
},
{
angle = 180;
pos = (454,0);
}
);
hints = (
{
horizontal = 1;
origin = (0,15);
target = (0,12);
type = Stem;
},
{
horizontal = 1;
origin = (0,14);
target = (0,1);
type = Stem;
},
{
horizontal = 1;
origin = (0,7);
target = up;
type = BottomGhost;
}
);
layerId = "53F1C36F-0CF6-4FBE-93F4-60C790418F6C";
shapes = (
{
closed = 1;
nodes = (
(142,0,l),
(256,684,l),
(280,684,l),
(360,0,l),
(540,0,l),
(848,684,l),
(872,684,l),
(758,0,l),
(870,0,l),
(1000,780,l),
(796,780,l),
(482,90,l),
(458,90,l),
(374,780,l),
(170,780,l),
(40,0,l)
);
}
);
width = 1010;
},
{
guides = (
{
angle = 260.5377;
pos = (974,300);
},
{
angle = 260.5377;
pos = (76,300);
},
{
angle = 260.5377;
pos = (228,300);
},
{
angle = 260.5377;
pos = (810,300);
}
);
layerId = "7BD6BBF9-E6B2-4B80-818C-1AB8B5401D18";
shapes = (
{
closed = 1;
nodes = (
(178,0,l),
(285,642,l),
(309,642,l),
(332,0,l),
(606,0,l),
(843,642,l),
(867,642,l),
(760,0,l),
(924,0,l),
(1054,780,l),
(742,780,l),
(505,132,l),
(481,132,l),
(457,780,l),
(156,780,l),
(26,0,l)
);
}
);
width = 1050;
}
);
unicode = 77;
},
{
color = 6;
glyphname = N;
kernLeft = B;
kernRight = H;
lastChange = "2022-02-18 14:13:03 +0000";
layers = (
{
anchors = (
{
name = bottom;
pos = (352,60);
},
{
name = top;
pos = (478,750);
}
);
guides = (
{
pos = (390,300);
},
{
angle = 260.5377;
pos = (90,300);
},
{
angle = 260.5377;
pos = (710,300);
},
{
angle = 260.5377;
pos = (192,300);
},
{
angle = 260.5377;
pos = (608,300);
},
{
angle = -75.7883;
pos = (281,691);
},
{
angle = 104.2117;
pos = (374,780);
}
);
hints = (
{
horizontal = 1;
origin = (0,11);
target = (0,8);
type = Stem;
},
{
horizontal = 1;
origin = (0,10);
target = (0,1);
type = Stem;
},
{
horizontal = 1;
origin = (0,11);
target = up;
type = BottomGhost;
},
{
horizontal = 1;
origin = (0,6);
target = down;
type = TopGhost;
}
);
layerId = "53F1C36F-0CF6-4FBE-93F4-60C790418F6C";
shapes = (
{
closed = 1;
nodes = (
(142,0,l),
(257,691,l),
(281,691,l),
(456,0,l),
(660,0,l),
(790,780,l),
(688,780,l),
(573,89,l),
(549,89,l),
(374,780,l),
(170,780,l),
(40,0,l)
);
}
);
width = 800;
},
{
anchors = (
{
name = bottom;
pos = (372,30);
},
{
name = top;
pos = (500,750);
}
);
guides = (
{
angle = 260.5377;
pos = (76,300);
},
{
angle = 260.5377;
pos = (764,300);
},
{
angle = 260.5377;
pos = (228,300);
},
{
angle = 260.5377;
pos = (612,300);
},
{
pos = (572,132);
}
);
layerId = "7BD6BBF9-E6B2-4B80-818C-1AB8B5401D18";
shapes = (
{
closed = 1;
nodes = (
(178,0,l),
(286,648,l),
(310,648,l),
(430,0,l),
(714,0,l),
(844,780,l),
(692,780,l),
(584,132,l),
(560,132,l),
(438,780,l),
(156,780,l),
(26,0,l)
);
}
);
width = 840;
}
);
unicode = 78;
},
{
color = 6;
glyphname = Eng;
kernLeft = B;
kernRight = H;
lastChange = "2022-02-18 14:13:03 +0000";
layers = (
{
anchors = (
{
name = bottom;
pos = (352,0);
},
{
name = top;
pos = (478,780);
}
);
background = {
shapes = (
{
closed = 1;
nodes = (
(142,0,l),
(257,691,l),
(281,691,l),
(456,0,l),
(660,0,l),
(790,780,l),
(688,780,l),
(573,89,l),
(549,89,l),
(374,780,l),
(170,780,l),
(40,0,l)
);
}
);
};
guides = (
{
angle = 260.5377;
pos = (710,300);
},
{
pos = (565,310);
},
{
angle = 260.5511;
pos = (631,435);
}
);
hints = (
{
horizontal = 1;
origin = (0,10);
target = (0,7);
type = Stem;
},
{
horizontal = 1;
origin = (0,9);
target = (0,12);
type = Stem;
},
{
horizontal = 1;
origin = (0,0);
target = up;
type = BottomGhost;
},
{
horizontal = 1;
origin = (0,10);
target = up;
type = BottomGhost;
},
{
horizontal = 1;
origin = (0,5);
target = down;
type = TopGhost;
}
);
layerId = "53F1C36F-0CF6-4FBE-93F4-60C790418F6C";
shapes = (
{
closed = 1;
nodes = (
(563,-150,l),
(629,-66,o),
(658,-12,o),
(684,144,cs),
(790,780,l),
(688,780,l),
(573,89,l),
(549,89,l),
(374,780,l),
(170,780,l),
(40,0,l),
(142,0,l),
(257,691,l),
(281,691,l),
(456,0,l),
(585,0,l),
(561,49,l),
(534,-39,o),
(498,-88,o),
(450,-141,c),
(450,-150,l)
);
}
);
width = 800;
},
{
anchors = (
{
name = bottom;
pos = (372,0);
},
{
name = top;
pos = (498,780);
}
);
guides = (
{
angle = 260.5377;
pos = (638,456);
}
);
layerId = "7BD6BBF9-E6B2-4B80-818C-1AB8B5401D18";
shapes = (
{
closed = 1;
nodes = (
(629,-150,l),
(677,-84,o),
(709,-24,o),
(731,106,cs),
(844,780,l),
(692,780,l),
(584,132,l),
(560,132,l),
(438,780,l),
(156,780,l),
(26,0,l),
(178,0,l),
(286,648,l),
(310,648,l),
(430,0,l),
(646,0,l),
(583,126,l),
(559,-14,o),
(522,-73,o),
(467,-144,c),
(467,-150,l)
);
}
);
width = 840;
}
);
unicode = 330;
},
{
color = 6;
glyphname = O;
kernLeft = C;
kernRight = D;
lastChange = "2022-02-18 14:13:03 +0000";
layers = (
{
anchors = (
{
name = bottom;
pos = (325,0);
},
{
name = center;
pos = (390,390);
},
{
name = ogonek;
pos = (440,0);
},
{
name = top;
pos = (455,780);
},
{
name = topleft;
pos = (20,780);
},
{
name = topright;
pos = (742,780);
}
);
background = {
shapes = (
{
closed = 1;
nodes = (
(588,-14,o),
(733,221,o),
(733,504,cs),
(733,684,o),
(645,794,o),
(457,794,cs),
(192,794,o),
(47,559,o),
(47,276,cs),
(47,96,o),
(135,-14,o),
(323,-14,cs)
);
},
{
closed = 1;
nodes = (
(217,76,o),
(161,151,o),
(161,283,cs),
(161,496,o),
(250,704,o),
(442,704,cs),
(562,704,o),
(619,629,o),
(619,496,cs),
(619,285,o),
(530,76,o),
(338,76,cs)
);
}
);
};
guides = (
{
angle = 260.5377;
pos = (42,300);
},
{
angle = 260.5377;
pos = (594,300);
},
{
angle = 260.5377;
pos = (156,300);
},
{
angle = 260.5377;
pos = (708,300);
},
{
angle = 178.977;
pos = (108,302);
},
{
angle = -0.5116;
pos = (672,479);
}
);
hints = (
{
horizontal = 1;
origin = (0,11);
target = (1,11);
type = Stem;
},
{
horizontal = 1;
origin = (0,5);
target = (1,5);
type = Stem;
},
{
origin = (0,8);
target = (1,2);
type = Stem;
},
{
origin = (1,8);
target = (0,2);
type = Stem;
}
);
layerId = "53F1C36F-0CF6-4FBE-93F4-60C790418F6C";
shapes = (
{
closed = 1;
nodes = (
(605,-15,o),
(728,213,o),
(728,478,c),
(728,675,o),
(618,795,o),
(432,795,cs),
(175,795,o),
(52,566,o),
(52,303,c),
(52,106,o),
(162,-15,o),
(349,-15,cs)
);
},
{
closed = 1;
nodes = (
(232,75,o),
(164,160,o),
(164,301,c),
(164,500,o),
(242,705,o),
(428,705,cs),
(547,705,o),
(616,621,o),
(616,479,c),
(616,282,o),
(539,75,o),
(351,75,cs)
);
}
);
width = 750;
},
{
anchors = (
{
name = bottom;
pos = (340,0);
},
{
name = center;
pos = (395,390);
},
{
name = ogonek;
pos = (450,0);
},
{
name = top;
pos = (450,780);
},
{
name = topleft;
pos = (110,780);
},
{
name = topright;
pos = (810,780);
}
);
background = {
shapes = (
{
closed = 1;
nodes = (
(628,-14,o),
(755,252,o),
(755,500,cs),
(755,683,o),
(662,794,o),
(462,794,cs),
(163,794,o),
(35,528,o),
(35,281,cs),
(35,98,o),
(129,-14,o),
(328,-14,cs)
);
},
{
closed = 1;
nodes = (
(253,112,o),
(209,174,o),
(209,286,cs),
(209,413,o),
(256,668,o),
(441,668,cs),
(537,668,o),
(581,606,o),
(581,494,cs),
(581,367,o),
(534,112,o),
(349,112,cs)
);
}
);
};
guides = (
{
angle = 87.4831;
pos = (430,750);
},
{
angle = 268.7546;
pos = (350,31);
},
{
angle = 260.5377;
pos = (30,300);
},
{
angle = 260.5377;
pos = (730,300);
}
);
layerId = "7BD6BBF9-E6B2-4B80-818C-1AB8B5401D18";
shapes = (
{
closed = 1;
nodes = (
(654,-15,o),
(750,265,o),
(750,460,cs),
(750,686,o),
(621,795,o),
(434,795,cs),
(134,795,o),
(40,513,o),
(40,320,cs),
(40,94,o),
(170,-15,o),
(356,-15,cs)
);
},
{
closed = 1;
nodes = (
(263,111,o),
(212,183,o),
(212,305,cs),
(212,422,o),
(259,669,o),
(434,669,cs),
(528,669,o),
(578,597,o),
(578,475,cs),
(578,360,o),
(533,111,o),
(357,111,cs)
);
}
);
width = 760;
}
);
unicode = 79;
},
{
color = 6;
glyphname = Ohorn;
kernLeft = C;
kernRight = D;
lastChange = "2022-02-18 14:13:03 +0000";
layers = (
{
anchors = (
{
name = bottom;
pos = (375,0);
},
{
name = center;
pos = (390,390);
},
{
name = ogonek;
pos = (675,10);
},
{
name = top;
pos = (455,780);
},
{
name = topleft;
pos = (20,780);
}
);
hints = (
{
horizontal = 1;
origin = (0,22);
target = (1,11);
type = Stem;
},
{
horizontal = 1;
origin = (0,16);
target = (1,5);
type = Stem;
},
{
origin = (0,19);
target = (1,2);
type = Stem;
},
{
origin = (1,8);
target = (0,2);
type = Stem;
},
{
horizontal = 1;
origin = (0,9);
target = down;
type = TopGhost;
}
);
layerId = "53F1C36F-0CF6-4FBE-93F4-60C790418F6C";
shapes = (
{
closed = 1;
nodes = (
(605,-15,o),
(728,213,o),
(728,478,cs),
(728,538.12,o),
(717.755,591.069,o),
(698.232,635.625,c),
(794,656,o),
(841.501,740.09,o),
(858,840,c),
(774,840,l),
(763,771,o),
(721,714,o),
(682,690,c),
(658,690,l),
(602,760,o),
(527,795,o),
(432,795,cs),
(175,795,o),
(52,566,o),
(52,303,cs),
(52,106,o),
(162,-15,o),
(349,-15,cs)
);
},
{
closed = 1;
nodes = (
(232,75,o),
(164,160,o),
(164,301,cs),
(164,500,o),
(242,705,o),
(428,705,cs),
(547,705,o),
(616,621,o),
(616,479,cs),
(616,282,o),
(539,75,o),
(351,75,cs)
);
}
);
width = 750;
},
{
anchors = (
{
name = bottom;
pos = (340,0);
},
{
name = center;
pos = (395,390);
},
{
name = ogonek;
pos = (426,0);
},
{
name = top;
pos = (450,780);
},
{
name = topleft;
pos = (110,780);
}
);
layerId = "7BD6BBF9-E6B2-4B80-818C-1AB8B5401D18";
shapes = (
{
closed = 1;
nodes = (
(654,-15,o),
(750,265,o),
(750,460,cs),
(750,528.196,o),
(738.534,584.926,o),
(716.938,632.194,c),
(812,662,o),
(862,733,o),
(872,840,c),
(751,840,l),
(741,786,o),
(712,745,o),
(676,720,c),
(652,720,l),
(597,771,o),
(522,795,o),
(434,795,cs),
(134,795,o),
(40,513,o),
(40,320,cs),
(40,94,o),
(170,-15,o),
(356,-15,cs)
);
},
{
closed = 1;
nodes = (
(263,111,o),
(212,183,o),
(212,305,cs),
(212,422,o),
(259,669,o),
(434,669,cs),
(528,669,o),
(578,597,o),
(578,475,cs),
(578,360,o),
(533,111,o),
(357,111,cs)
);
}
);
width = 760;
}
);
unicode = 416;
},
{
color = 6;
glyphname = Oslash;
kernLeft = C;
kernRight = D;
lastChange = "2022-02-18 14:13:03 +0000";
layers = (
{
anchors = (
{
name = _center;
pos = (390,390);
},
{
name = bottom;
pos = (325,0);
},
{
name = center;
pos = (390,390);
},
{
name = ogonek;
pos = (440,0);
},
{
name = top;
pos = (455,780);
},
{
name = topleft;
pos = (20,780);
},
{
name = topright;
pos = (742,780);
}
);
hints = (
{
horizontal = 1;
origin = (0,23);
target = (1,13);
type = Stem;
},
{
horizontal = 1;
origin = (0,11);
target = (2,5);
type = Stem;
},
{
horizontal = 1;
origin = (0,7);
target = down;
type = TopGhost;
},
{
horizontal = 1;
origin = (0,19);
target = up;
type = BottomGhost;
},
{
origin = (0,14);
target = (2,2);
type = Stem;
},
{
origin = (1,10);
target = (0,2);
type = Stem;
}
);
layerId = "53F1C36F-0CF6-4FBE-93F4-60C790418F6C";
shapes = (
{
closed = 1;
nodes = (
(605,-15,o),
(728,213,o),
(728,478,cs),
(728,542.968,o),
(716.037,599.561,o),
(693.329,646.238,c),
(777,732,l),
(723,786,l),
(649.491,710.653,l),
(598.748,765.102,o),
(524.842,795,o),
(432,795,cs),
(175,795,o),
(52,566,o),
(52,303,cs),
(52,237.814,o),
(64.044,180.948,o),
(86.937,134.035,c),
(3,48,l),
(57,-6,l),
(130.811,69.656,l),
(181.674,15.078,o),
(255.767,-15,o),
(349,-15,cs)
);
},
{
closed = 1;
nodes = (
(286,75,o),
(236,100,o),
(204,146,c),
(530,480,l),
(556,506,o),
(577,532,o),
(595,558,c),
(619,558,l),
(622,538,o),
(624,515,o),
(624,490,cs),
(624,325,o),
(553,75,o),
(351,75,cs)
);
},
{
closed = 1;
nodes = (
(157,242,o),
(155,265,o),
(155,290,cs),
(155,455,o),
(226,705,o),
(428,705,cs),
(492.889,705,o),
(542.912,680.024,o),
(574.986,634.286,c),
(249,300,l),
(223,274,o),
(202,248,o),
(184,222,c),
(160,222,l)
);
}
);
width = 750;
},
{
anchors = (
{
name = _center;
pos = (395,390);
},
{
name = bottom;
pos = (340,0);
},
{
name = center;
pos = (395,390);
},
{
name = ogonek;
pos = (450,0);
},
{
name = top;
pos = (450,780);
},
{
name = topleft;
pos = (110,780);
},
{
name = topright;
pos = (810,780);
}
);
guides = (
{
pos = (514,442);
},
{
pos = (277,338);
}
);
layerId = "7BD6BBF9-E6B2-4B80-818C-1AB8B5401D18";
shapes = (
{
closed = 1;
nodes = (
(654,-15,o),
(750,265,o),
(750,460,cs),
(750,534,o),
(736,596,o),
(711,645,c),
(789,725,l),
(721,793,l),
(652,722,l),
(597,771,o),
(522,795,o),
(434,795,cs),
(134,795,o),
(40,513,o),
(40,320,cs),
(40,246,o),
(54,184,o),
(79,135,c),
(1,55,l),
(69,-13,l),
(138,58,l),
(193,9,o),
(269,-15,o),
(356,-15,cs)
);
},
{
closed = 1;
nodes = (
(308,111,o),
(270,131,o),
(246,168,c),
(514,442,ls),
(535,463,o),
(553,483,o),
(566,507,c),
(590,507,l),
(590,499,o),
(590,490,o),
(590,480,cs),
(590,347,o),
(524,111,o),
(357,111,cs)
);
},
{
closed = 1;
nodes = (
(201,281,o),
(201,290,o),
(201,300,cs),
(201,432,o),
(267,669,o),
(434,669,cs),
(483,669,o),
(521,649,o),
(545,612,c),
(277,338,ls),
(256,317,o),
(238,297,o),
(225,273,c),
(201,273,l)
);
}
);
width = 760;
}
);
unicode = 216;
},
{
color = 6;
glyphname = OE;
kernLeft = C;
kernRight = E;
lastChange = "2022-02-18 14:13:03 +0000";
layers = (
{
anchors = (
{
name = bottom;
pos = (510,0);
},
{
name = top;
pos = (510,780);
}
);
guides = (
{
angle = 260.5377;
pos = (536,300);
}
);
hints = (
{
horizontal = 1;
origin = (0,16);
target = (1,8);
type = Stem;
},
{
horizontal = 1;
origin = (0,3);
target = (0,6);
type = Stem;
},
{
horizontal = 1;
origin = (0,10);
target = (1,5);
type = Stem;
},
{
origin = (0,13);
target = (1,2);
type = Stem;
}
);
layerId = "53F1C36F-0CF6-4FBE-93F4-60C790418F6C";
shapes = (
{
closed = 1;
nodes = (
(916,0,l),
(932,94,l),
(582,94,l),
(629,375,l),
(891,375,l),
(906,465,l),
(644,465,l),
(680,686,l),
(1020,686,l),
(1036,780,l),
(485,780,ls),
(199,780,o),
(40,575,o),
(40,334,cs),
(40,120,o),
(165,0,o),
(392,0,cs)
);
},
{
closed = 1;
nodes = (
(248,94,o),
(155,165,o),
(155,343,cs),
(155,541,o),
(271,686,o),
(479,686,cs),
(570,686,l),
(472,94,l),
(410,94,ls)
);
}
);
width = 1020;
},
{
anchors = (
{
name = bottom;
pos = (650,0);
},
{
name = top;
pos = (700,780);
}
);
layerId = "7BD6BBF9-E6B2-4B80-818C-1AB8B5401D18";
shapes = (
{
closed = 1;
nodes = (
(958,0,l),
(980,130,l),
(652,130,l),
(689,354,l),
(927,354,l),
(947,476,l),
(709,476,l),
(738,650,l),
(1060,650,l),
(1082,780,l),
(464,780,ls),
(130,780,o),
(40,510,o),
(40,323,cs),
(40,105,o),
(157,0,o),
(380,0,cs)
);
},
{
closed = 1;
nodes = (
(262,130,o),
(212,194,o),
(212,310,cs),
(212,418,o),
(257,650,o),
(469,650,cs),
(574,650,l),
(488,130,l),
(392,130,ls)
);
}
);
width = 1050;
}
);
unicode = 338;
},
{
color = 6;
glyphname = P;
kernLeft = B;
kernRight = P;
lastChange = "2022-02-18 14:13:03 +0000";
layers = (
{
guides = (
{
angle = 260.5377;
pos = (624,300);
},
{
angle = 260.5377;
pos = (202,300);
},
{
angle = 260.5377;
pos = (90,300);
}
);
hints = (
{
horizontal = 1;
origin = (0,10);
target = up;
type = BottomGhost;
},
{
horizontal = 1;
origin = (0,1);
target = (1,8);
type = Stem;
},
{
horizontal = 1;
origin = (0,9);
target = (1,0);
type = Stem;
},
{
origin = (1,4);
target = (0,5);
type = Stem;
}
);
layerId = "53F1C36F-0CF6-4FBE-93F4-60C790418F6C";
shapes = (
{
closed = 1;
nodes = (
(152,0,l),
(207,328,l),
(363,328,ls),
(548,328,o),
(667,415,o),
(667,574,cs),
(667,703,o),
(588,780,o),
(414,780,cs),
(170,780,l),
(40,0,l)
);
},
{
closed = 1;
nodes = (
(267,690,l),
(399,690,ls),
(510,690,o),
(551,647,o),
(551,570,cs),
(551,472,o),
(484,418,o),
(367,418,cs),
(222,418,l)
);
}
);
width = 660;
},
{
background = {
shapes = (
{
closed = 1;
nodes = (
(192,0,l),
(244,311,l),
(374,311,ls),
(574,311,o),
(705,416,o),
(705,595,cs),
(705,709,o),
(628,780,o),
(452,780,cs),
(156,780,l),
(26,0,l)
);
},
{
closed = 1;
nodes = (
(301,653,l),
(406,653,ls),
(487,653,o),
(535,631,o),
(535,569,cs),
(535,478,o),
(473,436,o),
(370,436,cs),
(265,436,l)
);
}
);
};
guides = (
{
angle = 260.5377;
pos = (76,300);
}
);
layerId = "7BD6BBF9-E6B2-4B80-818C-1AB8B5401D18";
shapes = (
{
closed = 1;
nodes = (
(194,0,l),
(246,311,l),
(415,311,ls),
(594,311,o),
(700,415,o),
(700,560,cs),
(700,697,o),
(606,780,o),
(439,780,cs),
(156,780,l),
(26,0,l)
);
},
{
closed = 1;
nodes = (
(303,654,l),
(406,654,ls),
(486,654,o),
(534,625,o),
(534,556,cs),
(534,489,o),
(489,437,o),
(395,437,cs),
(267,437,l)
);
}
);
width = 690;
}
);
unicode = 80;
},
{
color = 6;
glyphname = Thorn;
kernLeft = B;
kernRight = Thorn;
lastChange = "2022-02-18 14:13:03 +0000";
layers = (
{
background = {
shapes = (
{
closed = 1;
nodes = (
(152,0,l),
(178,161,l),
(343,161,ls),
(539,161,o),
(660,268,o),
(660,445,cs),
(660,558,o),
(585,629,o),
(418,629,cs),
(253,629,l),
(277,780,l),
(165,780,l),
(40,0,l)
);
},
{
closed = 1;
nodes = (
(237,535,l),
(396,535,ls),
(470,535,o),
(544,518,o),
(544,429,cs),
(544,312,o),
(477,253,o),
(351,253,cs),
(193,253,l)
);
}
);
};
guides = (
{
angle = 260.5377;
pos = (624,300);
},
{
angle = 260.5377;
pos = (202,300);
},
{
angle = 260.5377;
pos = (90,300);
},
{
pos = (320,630);
}
);
hints = (
{
horizontal = 1;
origin = (0,12);
target = up;
type = BottomGhost;
},
{
horizontal = 1;
origin = (0,1);
target = (1,8);
type = Stem;
},
{
horizontal = 1;
origin = (1,0);
target = (0,9);
type = Stem;
},
{
horizontal = 1;
origin = (0,11);
target = down;
type = TopGhost;
},
{
origin = (1,4);
target = (0,5);
type = Stem;
}
);
layerId = "53F1C36F-0CF6-4FBE-93F4-60C790418F6C";
shapes = (
{
closed = 1;
nodes = (
(152,0,l),
(182,178,l),
(338,178,ls),
(523,178,o),
(642,265,o),
(642,424,cs),
(642,553,o),
(563,630,o),
(389,630,cs),
(257,630,l),
(282,780,l),
(170,780,l),
(40,0,l)
);
},
{
closed = 1;
nodes = (
(242,540,l),
(374,540,ls),
(485,540,o),
(526,497,o),
(526,420,cs),
(526,322,o),
(459,268,o),
(342,268,cs),
(197,268,l)
);
}
);
width = 660;
},
{
guides = (
{
angle = 260.5377;
pos = (76,300);
},
{
angle = 260.5377;
pos = (244,300);
}
);
layerId = "7BD6BBF9-E6B2-4B80-818C-1AB8B5401D18";
shapes = (
{
closed = 1;
nodes = (
(194,0,l),
(221,161,l),
(390,161,ls),
(569,161,o),
(675,265,o),
(675,410,cs),
(675,547,o),
(581,630,o),
(414,630,cs),
(299,630,l),
(324,780,l),
(156,780,l),
(26,0,l)
);
},
{
closed = 1;
nodes = (
(278,504,l),
(381,504,ls),
(461,504,o),
(509,475,o),
(509,406,cs),
(509,339,o),
(464,287,o),
(370,287,cs),
(242,287,l)
);
}
);
width = 700;
}
);
metricLeft = H;
unicode = 222;
},
{
color = 6;
glyphname = Q;
kernLeft = C;
kernRight = D;
lastChange = "2022-02-18 14:13:03 +0000";
layers = (
{
hints = (
{
horizontal = 1;
origin = (0,11);
target = (1,11);
type = Stem;
},
{
horizontal = 1;
origin = (0,5);
target = (1,5);
type = Stem;
},
{
origin = (0,8);
target = (1,2);
type = Stem;
},
{
origin = (1,8);
target = (0,2);
type = Stem;
}
);
layerId = "53F1C36F-0CF6-4FBE-93F4-60C790418F6C";
shapes = (
{
closed = 1;
nodes = (
(605,-15,o),
(728,213,o),
(728,478,c),
(728,675,o),
(618,795,o),
(432,795,cs),
(175,795,o),
(52,566,o),
(52,303,c),
(52,106,o),
(162,-15,o),
(349,-15,cs)
);
},
{
closed = 1;
nodes = (
(232,77,o),
(164,160,o),
(164,301,c),
(164,500,o),
(242,704,o),
(428,704,cs),
(547,704,o),
(616,621,o),
(616,479,c),
(616,282,o),
(539,77,o),
(351,77,cs)
);
},
{
closed = 1;
nodes = (
(601,-150,l),
(601,-148,l),
(478,60,l),
(376,12,l),
(474,-150,l)
);
}
);
width = 770;
},
{
layerId = "7BD6BBF9-E6B2-4B80-818C-1AB8B5401D18";
shapes = (
{
closed = 1;
nodes = (
(654,-15,o),
(750,265,o),
(750,460,c),
(750,686,o),
(621,795,o),
(434,795,cs),
(134,795,o),
(40,513,o),
(40,320,c),
(40,94,o),
(170,-15,o),
(356,-15,cs)
);
},
{
closed = 1;
nodes = (
(263,111,o),
(212,183,o),
(212,305,c),
(212,422,o),
(259,669,o),
(434,669,cs),
(528,669,o),
(578,597,o),
(578,475,c),
(578,360,o),
(533,111,o),
(357,111,cs)
);
},
{
closed = 1;
nodes = (
(614,-150,l),
(615,-148,l),
(498,49,l),
(303,49,l),
(426,-150,l)
);
}
);
width = 760;
}
);
unicode = 81;
},
{
color = 6;
glyphname = R;
kernLeft = B;
kernRight = R;
lastChange = "2022-02-18 14:13:03 +0000";
layers = (
{
anchors = (
{
name = bottom;
pos = (334,60);
},
{
name = top;
pos = (398,780);
}
);
guides = (
{
angle = 260.5377;
pos = (90,300);
},
{
angle = 260.5377;
pos = (630,300);
},
{
angle = 260.5377;
pos = (202,300);
}
);
hints = (
{
horizontal = 1;
origin = (0,14);
target = up;
type = BottomGhost;
},
{
horizontal = 1;
origin = (0,1);
target = (1,8);
type = Stem;
},
{
horizontal = 1;
origin = (0,13);
target = (1,0);
type = Stem;
},
{
origin = (1,4);
target = (0,9);
type = Stem;
}
);
layerId = "53F1C36F-0CF6-4FBE-93F4-60C790418F6C";
shapes = (
{
closed = 1;
nodes = (
(152,0,l),
(211,357,l),
(375,357,l),
(491,0,l),
(606,0,l),
(606,6,l),
(483,372,l),
(604,400,o),
(680,481,o),
(680,590,cs),
(680,693,o),
(613,780,o),
(446,780,cs),
(170,780,l),
(40,0,l)
);
},
{
closed = 1;
nodes = (
(267,690,l),
(422,690,ls),
(508,690,o),
(564,660,o),
(564,577,cs),
(564,491,o),
(503,443,o),
(385,443,cs),
(226,443,l)
);
}
);
width = 680;
},
{
anchors = (
{
name = bottom;
pos = (352,60);
},
{
name = top;
pos = (409,780);
}
);
background = {
shapes = (
{
closed = 1;
nodes = (
(192,0,l),
(245,330,l),
(380,330,l),
(479,0,l),
(655,0,l),
(655,2,l),
(542,354,l),
(651,388,o),
(718,465,o),
(718,577,cs),
(718,702,o),
(634,780,o),
(477,780,cs),
(151,780,l),
(26,0,l)
);
},
{
closed = 1;
nodes = (
(297,655,l),
(431,655,ls),
(491,655,o),
(547,636,o),
(547,561,cs),
(547,451,o),
(429,451,o),
(399,451,cs),
(264,451,l)
);
}
);
};
guides = (
{
angle = 260.5377;
pos = (660,300);
},
{
angle = 260.5377;
pos = (494,300);
},
{
angle = 260.5377;
pos = (76,300);
},
{
angle = 260.5377;
pos = (244,300);
}
);
layerId = "7BD6BBF9-E6B2-4B80-818C-1AB8B5401D18";
shapes = (
{
closed = 1;
nodes = (
(194,0,l),
(249,332,l),
(379.123,332,l),
(479,0,l),
(655,0,l),
(655,6,l),
(543.528,350.467,l),
(643.978,385.299,o),
(701,466.577,o),
(701,570,cs),
(701,701,o),
(610,780,o),
(448,780,cs),
(156,780,l),
(26,0,l)
);
},
{
closed = 1;
nodes = (
(301,654,l),
(415,654,ls),
(490,654,o),
(535,627,o),
(535,563,cs),
(535,500,o),
(493,452,o),
(405,452,cs),
(267,452,l)
);
}
);
width = 710;
}
);
unicode = 82;
},
{
color = 6;
glyphname = S;
kernLeft = S;
kernRight = S;
lastChange = "2022-02-18 14:13:03 +0000";
layers = (
{
anchors = (
{
name = bottom;
pos = (310,0);
},
{
name = top;
pos = (405,780);
}
);
background = {
shapes = (
{
closed = 1;
nodes = (
(477,-15,o),
(584,89,o),
(584,223,cs),
(584,466,o),
(230,419,o),
(230,590,cs),
(230,652,o),
(276,705,o),
(361,705,cs),
(452,705,o),
(504,643,o),
(504,556,c),
(606,586,l),
(602,711,o),
(511,795,o),
(370,795,cs),
(219,795,o),
(124,698,o),
(124,575,cs),
(124,339,o),
(476,380,o),
(476,204,cs),
(476,131,o),
(415,75,o),
(319,75,cs),
(205,75,o),
(130,153,o),
(130,260,c),
(28,234,l),
(28,82,o),
(146,-15,o),
(309,-15,cs)
);
}
);
};
guides = (
{
angle = 196.2602;
pos = (566,574);
},
{
angle = 13.4957;
pos = (86,248);
},
{
angle = 156.1112;
pos = (407,434);
},
{
angle = 66.1112;
pos = (354,401);
},
{
angle = 156.1112;
pos = (300,367);
},
{
angle = 32.296;
pos = (354,401);
},
{
angle = 66.1112;
pos = (304,401);
},
{
angle = 66.1112;
pos = (364,401);
},
{
angle = 260.5377;
pos = (558,300);
}
);
hints = (
{
horizontal = 1;
origin = (0,39);
target = (0,32);
type = Stem;
},
{
horizontal = 1;
origin = (0,19);
target = (0,12);
type = Stem;
},
{
origin = (0,36);
target = (0,35);
type = Stem;
},
{
origin = (0,29);
target = (0,2);
type = Stem;
},
{
origin = (0,22);
target = (0,9);
type = Stem;
},
{
origin = (0,15);
target = (0,16);
type = Stem;
}
);
layerId = "53F1C36F-0CF6-4FBE-93F4-60C790418F6C";
shapes = (
{
closed = 1;
nodes = (
(477,-15,o),
(584,89,o),
(584,223,cs),
(584,357,o),
(475,402,o),
(383,444,cs),
(333,467,ls),
(276,493,o),
(230,529,o),
(230,590,cs),
(230,652,o),
(276,705,o),
(361,705,cs),
(452,705,o),
(504,643,o),
(504,556,c),
(606,586,l),
(602,711,o),
(511,795,o),
(370,795,cs),
(219,795,o),
(124,698,o),
(124,575,cs),
(124,461,o),
(206,410,o),
(291,371,cs),
(341,348,ls),
(409,317,o),
(476,280,o),
(476,204,cs),
(476,131,o),
(415,75,o),
(319,75,cs),
(205,75,o),
(130,153,o),
(130,260,c),
(28,234,l),
(28,82,o),
(146,-15,o),
(309,-15,cs)
);
}
);
width = 640;
},
{
anchors = (
{
name = bottom;
pos = (304,0);
},
{
name = top;
pos = (394,780);
}
);
background = {
shapes = (
{
closed = 1;
nodes = (
(490,-15,o),
(608,94,o),
(608,235,cs),
(608,375,o),
(492,422,o),
(390,469,cs),
(336,494,ls),
(294,513,o),
(259,540,o),
(259,586,cs),
(259,634,o),
(294,671,o),
(357,671,cs),
(426,671,o),
(465,627,o),
(465,545,c),
(606,586,l),
(601,712,o),
(513,795,o),
(367,795,cs),
(206,795,o),
(100,693,o),
(100,563,cs),
(100,434,o),
(203,383,o),
(283,346,cs),
(343,318,ls),
(388,297,o),
(446,271,o),
(446,210,cs),
(446,154,o),
(397,111,o),
(321,111,cs),
(229,111,o),
(169,172,o),
(169,270,c),
(28,234,l),
(28,82,o),
(145,-15,o),
(312,-15,cs)
);
}
);
};
guides = (
{
angle = 14.3003;
pos = (79,247);
},
{
angle = 196.3895;
pos = (555,571);
},
{
angle = 155.2976;
pos = (306,335);
},
{
angle = -24.7024;
pos = (369,479);
},
{
angle = 90;
pos = (446,199);
},
{
angle = 90;
pos = (608,228);
},
{
angle = 90;
pos = (259,598);
},
{
angle = 90;
pos = (100,575);
},
{
angle = 90;
pos = (16,146);
},
{
angle = 270;
pos = (169,219);
},
{
angle = 90;
pos = (465,541);
},
{
angle = 90;
pos = (618,586);
},
{
pos = (361,669);
},
{
pos = (319,111);
},
{
angle = 260.5377;
pos = (616,300);
}
);
layerId = "7BD6BBF9-E6B2-4B80-818C-1AB8B5401D18";
shapes = (
{
closed = 1;
nodes = (
(484,-15,o),
(602,94,o),
(602,236,cs),
(602,374,o),
(492,422,o),
(390,469,cs),
(336,494,ls),
(294,513,o),
(262,541,o),
(262,585,cs),
(262,634,o),
(300,671,o),
(363,671,cs),
(431,671,o),
(471,628,o),
(471,547,c),
(612,588,l),
(607,712,o),
(519,795,o),
(373,795,cs),
(212,795,o),
(106,693,o),
(106,561,cs),
(106,435,o),
(203,383,o),
(283,346,cs),
(343,318,ls),
(388,297,o),
(440,271,o),
(440,210,cs),
(440,154,o),
(391,111,o),
(315,111,cs),
(223,111,o),
(166,172,o),
(166,268,c),
(22,232,l),
(22,82,o),
(139,-15,o),
(306,-15,cs)
);
}
);
width = 660;
}
);
unicode = 83;
},
{
color = 6;
glyphname = Germandbls;
kernLeft = Germandbls;
kernRight = Germandbls;
lastChange = "2022-02-18 14:13:03 +0000";
layers = (
{
background = {
shapes = (
{
closed = 1;
nodes = (
(632,-15,o),
(663,224,o),
(679,318,cs),
(756,780,l),
(646,780,l),
(570,321,ls),
(556,238,o),
(535,75,o),
(357,75,cs),
(239,75,o),
(172,144,o),
(200,312,cs),
(278,780,l),
(164,780,l),
(88,325,ls),
(51,105,o),
(147,-15,o),
(349,-15,cs)
);
},
{
closed = 1;
nodes = (
(714,-13,o),
(821,91,o),
(821,225,cs),
(821,359,o),
(712,405,o),
(620,446,cs),
(570,469,l),
(513,495,o),
(467,531,o),
(467,592,cs),
(467,654,o),
(513,707,o),
(598,707,cs),
(689,707,o),
(741,645,o),
(741,558,c),
(843,588,l),
(839,713,o),
(748,797,o),
(607,797,cs),
(456,797,o),
(361,700,o),
(361,577,cs),
(361,463,o),
(443,412,o),
(528,373,cs),
(578,350,ls),
(646,320,o),
(713,282,o),
(713,206,cs),
(713,133,o),
(652,77,o),
(556,77,cs),
(442,77,o),
(367,155,o),
(367,262,c),
(265,236,l),
(265,84,o),
(383,-13,o),
(546,-13,cs)
);
}
);
};
guides = (
{
angle = 260.5377;
pos = (84,300);
},
{
angle = 220.6013;
pos = (710,645);
},
{
angle = 260.5377;
pos = (497,462);
},
{
angle = 40.8949;
pos = (831,636);
},
{
angle = 260.5377;
pos = (812,630);
},
{
angle = -2.7263;
pos = (824,630);
},
{
angle = -2.7263;
pos = (553,453);
}
);
hints = (
{
horizontal = 1;
origin = (0,40);
target = (0,33);
type = Stem;
},
{
horizontal = 1;
origin = (0,11);
target = (0,20);
type = Stem;
},
{
horizontal = 1;
origin = (0,15);
target = up;
type = BottomGhost;
},
{
origin = (0,37);
target = (0,36);
type = Stem;
},
{
origin = (0,30);
target = (0,2);
type = Stem;
}
);
layerId = "53F1C36F-0CF6-4FBE-93F4-60C790418F6C";
shapes = (
{
closed = 1;
nodes = (
(712,-13,o),
(821,97,o),
(821,225,cs),
(821,332,o),
(746,409,o),
(613,426,c),
(616,450,l),
(810,618,l),
(824,704,l),
(739,765,o),
(641,794,o),
(525,794,cs),
(212,794,o),
(134,595,o),
(108,441,cs),
(34,0,l),
(146,0,l),
(219,438,ls),
(243,582,o),
(323,708,o),
(520,708,cs),
(601,708,o),
(661,687,o),
(702,659,c),
(698,636,l),
(490,456,l),
(477,378,l),
(505,376,ls),
(636,367,o),
(713,303,o),
(713,220,cs),
(713,144,o),
(653,77,o),
(551,77,cs),
(447,77,o),
(381,146,o),
(371,240,c),
(269,214,l),
(277,79,o),
(387,-13,o),
(542,-13,cs)
);
}
);
width = 880;
},
{
guides = (
{
angle = 178.4518;
pos = (164,440);
},
{
angle = 260.5377;
pos = (72,300);
},
{
angle = 260.7539;
pos = (847,661);
}
);
layerId = "7BD6BBF9-E6B2-4B80-818C-1AB8B5401D18";
shapes = (
{
closed = 1;
nodes = (
(733,-15,o),
(851,95,o),
(851,234,cs),
(851,354,o),
(763,417,o),
(661,438,c),
(664,462,l),
(837,600,l),
(855,710,l),
(768,762,o),
(663,794,o),
(532,794,cs),
(282,794,o),
(136,679,o),
(94,432,cs),
(20,0,l),
(186,0,l),
(257,427,ls),
(283,586,o),
(378,668,o),
(526,668,cs),
(577,668,o),
(620,659,o),
(659,644,c),
(655,621,l),
(481,472,l),
(464,368,l),
(496,366,ls),
(623,358,o),
(689,305,o),
(689,224,cs),
(689,155,o),
(640,111,o),
(564,111,cs),
(472,111,o),
(415,172,o),
(415,268,c),
(271,232,l),
(271,82,o),
(388,-15,o),
(555,-15,cs)
);
}
);
width = 910;
}
);
unicode = 7838;
},
{
color = 6;
glyphname = T;
kernLeft = T;
kernRight = T;
lastChange = "2022-02-18 14:13:03 +0000";
layers = (
{
anchors = (
{
name = bottom;
pos = (285,0);
},
{
name = center;
pos = (355,420);
},
{
name = top;
pos = (415,780);
}
);
hints = (
{
horizontal = 1;
origin = (0,7);
target = up;
type = BottomGhost;
},
{
horizontal = 1;
origin = (0,4);
target = (0,5);
type = Stem;
}
);
layerId = "53F1C36F-0CF6-4FBE-93F4-60C790418F6C";
shapes = (
{
closed = 1;
nodes = (
(341,0,l),
(455,686,l),
(705,686,l),
(720,780,l),
(110,780,l),
(95,686,l),
(343,686,l),
(229,0,l)
);
}
);
width = 670;
},
{
anchors = (
{
name = bottom;
pos = (289,0);
},
{
name = center;
pos = (352,390);
},
{
name = top;
pos = (415,780);
}
);
guides = (
{
angle = 260.5377;
pos = (30,300);
},
{
angle = 260.5377;
pos = (640,300);
}
);
layerId = "7BD6BBF9-E6B2-4B80-818C-1AB8B5401D18";
shapes = (
{
closed = 1;
nodes = (
(369,0,l),
(477,648,l),
(710,648,l),
(732,780,l),
(98,780,l),
(76,648,l),
(309,648,l),
(201,0,l)
);
}
);
width = 670;
}
);
unicode = 84;
},
{
color = 6;
glyphname = U;
kernLeft = U;
kernRight = U;
lastChange = "2022-02-18 14:13:03 +0000";
layers = (
{
anchors = (
{
name = bottom;
pos = (333,0);
},
{
name = ogonek;
pos = (440,10);
},
{
name = top;
pos = (459,720);
},
{
name = topright;
pos = (812,780);
}
);
guides = (
{
angle = 260.5377;
pos = (84,300);
},
{
angle = 260.5377;
pos = (196,300);
},
{
angle = 260.5377;
pos = (564,300);
},
{
angle = 260.5377;
pos = (676,300);
}
);
hints = (
{
horizontal = 1;
origin = (0,17);
target = (0,8);
type = Stem;
},
{
horizontal = 1;
origin = (0,13);
target = down;
type = TopGhost;
},
{
place = (80, 114);
place = (80, 114);
type = Stem;
}
);
layerId = "53F1C36F-0CF6-4FBE-93F4-60C790418F6C";
shapes = (
{
closed = 1;
nodes = (
(633,-15,o),
(663,224,o),
(679,318,cs),
(756,780,l),
(646,780,l),
(570,321,ls),
(556,238,o),
(536,75,o),
(356,75,cs),
(239,75,o),
(172,144,o),
(200,312,cs),
(278,780,l),
(164,780,l),
(88,325,ls),
(51,105,o),
(147,-15,o),
(349,-15,cs)
);
}
);
width = 760;
},
{
anchors = (
{
name = bottom;
pos = (335,0);
},
{
name = ogonek;
pos = (464,0);
},
{
name = top;
pos = (465,780);
},
{
name = topright;
pos = (780,780);
}
);
background = {
shapes = (
{
closed = 1;
nodes = (
(567,-14,o),
(693,105,o),
(729,323,cs),
(805,780,l),
(637,780,l),
(562,328,ls),
(540,198,o),
(488,120,o),
(367,120,cs),
(272,120,o),
(235,169,o),
(235,255,cs),
(235,277,o),
(237,301,o),
(242,328,cs),
(317,780,l),
(145,780,l),
(69,323,ls),
(64,292,o),
(61,262,o),
(61,235,cs),
(61,73,o),
(153,-14,o),
(343,-14,cs)
);
}
);
};
guides = (
{
angle = 260.5377;
pos = (67,300);
},
{
angle = 260.5377;
pos = (714,300);
},
{
angle = -6.6208;
pos = (149,319);
},
{
angle = -1.5766;
pos = (630,320);
}
);
layerId = "7BD6BBF9-E6B2-4B80-818C-1AB8B5401D18";
shapes = (
{
closed = 1;
nodes = (
(567,-14,o),
(679,98,o),
(716,318,cs),
(794,780,l),
(628,780,l),
(552,323,ls),
(531,194,o),
(473,124,o),
(376,124,cs),
(250,124,o),
(227,237,o),
(240,318,cs),
(317,780,l),
(147,780,l),
(73,338,ls),
(37,125,o),
(154,-14,o),
(372,-14,cs)
);
}
);
width = 780;
}
);
unicode = 85;
},
{
color = 6;
glyphname = Uhorn;
kernLeft = U;
kernRight = U;
lastChange = "2022-02-18 14:13:03 +0000";
layers = (
{
anchors = (
{
name = bottom;
pos = (353,0);
},
{
name = top;
pos = (462,780);
}
);
background = {
anchors = (
{
name = _topright;
pos = (812,780);
},
{
name = bottom;
pos = (333,0);
},
{
name = ogonek;
pos = (440,10);
},
{
name = top;
pos = (459,780);
},
{
name = topright;
pos = (812,780);
}
);
shapes = (
{
closed = 1;
nodes = (
(632,-15,o),
(663,224,o),
(679,318,cs),
(756,780,l),
(646,780,l),
(570,321,ls),
(556,238,o),
(535,75,o),
(357,75,cs),
(239,75,o),
(172,144,o),
(200,312,cs),
(278,780,l),
(164,780,l),
(88,325,ls),
(51,105,o),
(147,-15,o),
(349,-15,cs)
);
},
{
closed = 1;
nodes = (
(678,631,l),
(742,633,ls),
(851,636,o),
(910,731,o),
(928,840,c),
(844,840,l),
(833,771,o),
(800,711,o),
(736,699,cs),
(687,690,l)
);
}
);
};
guides = (
{
angle = 80.7701;
pos = (741,740);
},
{
pos = (734,690);
}
);
hints = (
{
horizontal = 1;
origin = (0,27);
target = (0,18);
type = Stem;
},
{
horizontal = 1;
origin = (0,23);
target = (0,3);
type = Stem;
},
{
horizontal = 1;
origin = (0,3);
target = (0,12);
type = Stem;
},
{
place = (80, 114);
place = (80, 114);
type = Stem;
}
);
layerId = "53F1C36F-0CF6-4FBE-93F4-60C790418F6C";
shapes = (
{
closed = 1;
nodes = (
(632,-15,o),
(663,224,o),
(679,318,cs),
(731.445,632.67,l),
(742,633,ls),
(851,636,o),
(910,731,o),
(928,840,c),
(844,840,l),
(833.393,773.466,o),
(804,708,o),
(757,690,c),
(733,690,l),
(747,780,l),
(646,780,l),
(570,321,ls),
(556,238,o),
(535,75,o),
(357,75,cs),
(239,75,o),
(172,144,o),
(200,312,cs),
(278,780,l),
(164,780,l),
(88,325,ls),
(51,105,o),
(147,-15,o),
(349,-15,cs)
);
}
);
width = 820;
},
{
anchors = (
{
name = bottom;
pos = (368,0);
},
{
name = top;
pos = (495,780);
}
);
guides = (
{
angle = 260.5377;
pos = (892,300);
}
);
layerId = "7BD6BBF9-E6B2-4B80-818C-1AB8B5401D18";
shapes = (
{
closed = 1;
nodes = (
(561,-14,o),
(665,98,o),
(702,318,cs),
(754,624,l),
(760,624,ls),
(871,624,o),
(941,710,o),
(952,840,c),
(831,840,l),
(824,786,o),
(807,736,o),
(775,724,c),
(751,724,l),
(760,780,l),
(610,780,l),
(534,323,ls),
(513,194,o),
(465,124,o),
(368,124,cs),
(242,124,o),
(229,237,o),
(242,318,cs),
(319,780,l),
(149,780,l),
(75,338,ls),
(39,125,o),
(148,-14,o),
(366,-14,cs)
);
}
);
width = 840;
}
);
unicode = 431;
},
{
color = 6;
glyphname = V;
kernLeft = V;
kernRight = V;
lastChange = "2022-02-18 14:13:03 +0000";
layers = (
{
background = {
shapes = (
{
closed = 1;
nodes = (
(398,0,l),
(764,779,l),
(764,780,l),
(650,780,l),
(334,96,l),
(309,96,l),
(206,780,l),
(96,780,l),
(96,779,l),
(213,0,l)
);
}
);
};
hints = (
{
horizontal = 1;
origin = (0,9);
target = (0,5);
type = Stem;
},
{
horizontal = 1;
origin = (0,7);
target = down;
type = TopGhost;
}
);
layerId = "53F1C36F-0CF6-4FBE-93F4-60C790418F6C";
shapes = (
{
closed = 1;
nodes = (
(394,0,l),
(764,774,l),
(764,780,l),
(650,780,l),
(329,96,l),
(305,96,l),
(210,780,l),
(96,780,l),
(96,774,l),
(206,0,l)
);
}
);
width = 700;
},
{
layerId = "7BD6BBF9-E6B2-4B80-818C-1AB8B5401D18";
shapes = (
{
closed = 1;
nodes = (
(454,0,l),
(802,774,l),
(802,780,l),
(634,780,l),
(356,144,l),
(332,144,l),
(248,780,l),
(88,780,l),
(88,775,l),
(190,0,l)
);
}
);
width = 730;
}
);
unicode = 86;
},
{
color = 6;
glyphname = W;
kernLeft = W;
kernRight = W;
lastChange = "2022-02-18 14:13:03 +0000";
layers = (
{
anchors = (
{
name = bottom;
pos = (484,0);
},
{
name = top;
pos = (609,780);
}
);
hints = (
{
horizontal = 1;
origin = (0,17);
target = (0,13);
type = Stem;
},
{
horizontal = 1;
origin = (0,15);
target = (0,1);
type = Stem;
},
{
place = (113, 113);
place = (113, 113);
type = Stem;
},
{
place = (622, 97);
place = (622, 97);
type = Stem;
}
);
layerId = "53F1C36F-0CF6-4FBE-93F4-60C790418F6C";
shapes = (
{
closed = 1;
nodes = (
(327,0,l),
(584,696,l),
(608,696,l),
(636,0,l),
(837,0,l),
(1107,774,l),
(1107,780,l),
(999,780,l),
(759,84,l),
(735,84,l),
(703,780,l),
(515,780,l),
(257,84,l),
(233,84,l),
(219,780,l),
(113,780,l),
(113,774,l),
(130,0,l)
);
}
);
width = 1060;
},
{
anchors = (
{
name = bottom;
pos = (499,0);
},
{
name = top;
pos = (627,780);
}
);
layerId = "7BD6BBF9-E6B2-4B80-818C-1AB8B5401D18";
shapes = (
{
closed = 1;
nodes = (
(381,0,l),
(592,648,l),
(616,648,l),
(617,0,l),
(907,0,l),
(1142,778,l),
(1142,780,l),
(984,780,l),
(792,131,l),
(767,131,l),
(766,780,l),
(488,780,l),
(278,131,l),
(251,131,l),
(270,780,l),
(110,780,l),
(110,778,l),
(91,0,l)
);
}
);
width = 1090;
}
);
unicode = 87;
},
{
color = 6;
glyphname = X;
kernLeft = X;
kernRight = X;
lastChange = "2022-02-18 14:13:03 +0000";
layers = (
{
hints = (
{
horizontal = 1;
origin = (0,17);
target = up;
type = BottomGhost;
},
{
horizontal = 1;
origin = (0,1);
target = (0,11);
type = Stem;
},
{
horizontal = 1;
origin = (0,13);
target = down;
type = TopGhost;
}
);
layerId = "53F1C36F-0CF6-4FBE-93F4-60C790418F6C";
shapes = (
{
closed = 1;
nodes = (
(96,0,l),
(341,344,l),
(365,344,l),
(503,0,l),
(624,0,l),
(624,6,l),
(449,417,l),
(714,774,l),
(714,780,l),
(594,780,l),
(386,492,l),
(362,492,l),
(245,780,l),
(131,780,l),
(131,774,l),
(278,417,l),
(-32,6,l),
(-32,0,l)
);
}
);
width = 690;
},
{
layerId = "7BD6BBF9-E6B2-4B80-818C-1AB8B5401D18";
shapes = (
{
closed = 1;
nodes = (
(137,0,l),
(357,309,l),
(377,309,l),
(491,0,l),
(669,0,l),
(669,6,l),
(510,414,l),
(767,774,l),
(767,780,l),
(587,780,l),
(404,519,l),
(384,519,l),
(285,780,l),
(114,780,l),
(114,774,l),
(250,414,l),
(-49,6,l),
(-49,0,l)
);
}
);
width = 730;
}
);
unicode = 88;
},
{
color = 6;
glyphname = Y;
kernLeft = Y;
kernRight = Y;
lastChange = "2022-02-18 14:13:03 +0000";
layers = (
{
anchors = (
{
name = bottom;
pos = (260,0);
},
{
name = top;
pos = (390,750);
},
{
name = topleft;
pos = (95,780);
}
);
guides = (
{
angle = 110.9892;
pos = (272,621);
},
{
angle = 235.4456;
pos = (460,621);
},
{
pos = (342,552);
},
{
angle = -10.3973;
pos = (315,335);
}
);
hints = (
{
horizontal = 1;
origin = (0,17);
target = up;
type = BottomGhost;
},
{
horizontal = 1;
origin = (0,14);
target = down;
type = TopGhost;
}
);
layerId = "53F1C36F-0CF6-4FBE-93F4-60C790418F6C";
shapes = (
{
closed = 1;
nodes = (
(316,0,l),
(369,325,l),
(688,774,l),
(688,780,l),
(569,780,l),
(412,552,ls),
(391,522,o),
(371,492,o),
(352,450,c),
(328,450,l),
(321,492,o),
(310,522,o),
(298,552,cs),
(211,780,l),
(92,780,l),
(92,774,l),
(260,345,l),
(204,0,l)
);
}
);
width = 620;
},
{
anchors = (
{
name = bottom;
pos = (280,0);
},
{
name = top;
pos = (403,780);
},
{
name = topleft;
pos = (99,780);
}
);
guides = (
{
angle = -10.3973;
pos = (335,330);
},
{
angle = 260.5377;
pos = (246,300);
},
{
angle = 260.5377;
pos = (414,300);
}
);
layerId = "7BD6BBF9-E6B2-4B80-818C-1AB8B5401D18";
shapes = (
{
closed = 1;
nodes = (
(364,0,l),
(416,314,l),
(733,774,l),
(733,780,l),
(557,780,l),
(437,600,ls),
(414,565,o),
(394,535,o),
(375,488,c),
(351,488,l),
(344,535,o),
(333,565,o),
(320,600,cs),
(255,780,l),
(87,780,l),
(87,774,l),
(253,345,l),
(196,0,l)
);
}
);
width = 660;
}
);
unicode = 89;
},
{
color = 6;
glyphname = Z;
kernLeft = Z;
kernRight = Z;
lastChange = "2022-02-18 14:13:03 +0000";
layers = (
{
anchors = (
{
name = bottom;
pos = (295,0);
},
{
name = top;
pos = (436,780);
}
);
guides = (
{
angle = 260.5377;
pos = (48,300);
},
{
angle = 260.5377;
pos = (642,300);
},
{
pos = (266,224);
},
{
pos = (439,556);
}
);
hints = (
{
horizontal = 1;
origin = (0,17);
target = (0,2);
type = Stem;
},
{
horizontal = 1;
origin = (0,9);
target = (0,10);
type = Stem;
}
);
layerId = "53F1C36F-0CF6-4FBE-93F4-60C790418F6C";
shapes = (
{
closed = 1;
nodes = (
(592,0,l),
(608,94,l),
(147,94,l),
(151,118,l),
(186,141,o),
(213,168,o),
(266,224,cs),
(691,676,l),
(708,780,l),
(164,780,l),
(149,686,l),
(558,686,l),
(554,662,l),
(519,639,o),
(492,612,o),
(439,556,cs),
(15,104,l),
(-2,0,l)
);
}
);
width = 690;
},
{
anchors = (
{
name = bottom;
pos = (296,0);
},
{
name = top;
pos = (434,780);
}
);
guides = (
{
pos = (328,260);
},
{
pos = (380,520);
}
);
layerId = "7BD6BBF9-E6B2-4B80-818C-1AB8B5401D18";
shapes = (
{
closed = 1;
nodes = (
(608,0,l),
(630,132,l),
(209,132,l),
(213,156,l),
(248,179,o),
(274,207,o),
(328,262,cs),
(701,636,l),
(725,780,l),
(142,780,l),
(120,648,l),
(499,648,l),
(495,624,l),
(460,601,o),
(434,573,o),
(380,518,cs),
(8,144,l),
(-16,0,l)
);
}
);
width = 690;
}
);
unicode = 90;
},
{
color = 6;
export = 0;
glyphname = Hbar.H;
kernLeft = B;
kernRight = H;
lastChange = "2022-02-18 14:13:03 +0000";
layers = (
{
anchors = (
{
name = bottom;
pos = (340,0);
},
{
name = center;
pos = (440,600);
},
{
name = top;
pos = (470,780);
},
{
name = topleft;
pos = (80,780);
}
);
guides = (
{
pos = (390,300);
},
{
angle = 260.5377;
pos = (90,300);
},
{
angle = 260.5377;
pos = (690,300);
},
{
angle = 260.5377;
pos = (146,300);
}
);
hints = (
{
horizontal = 1;
origin = (0,11);
target = up;
type = BottomGhost;
},
{
horizontal = 1;
origin = (0,1);
target = (0,8);
type = Stem;
},
{
horizontal = 1;
origin = (0,10);
target = down;
type = TopGhost;
}
);
layerId = "53F1C36F-0CF6-4FBE-93F4-60C790418F6C";
shapes = (
{
closed = 1;
nodes = (
(152,0,l),
(209,343,l),
(585,343,l),
(528,0,l),
(640,0,l),
(770,780,l),
(658,780,l),
(601,437,l),
(225,437,l),
(282,780,l),
(170,780,l),
(40,0,l)
);
}
);
width = 780;
},
{
anchors = (
{
name = bottom;
pos = (352,0);
},
{
name = center;
pos = (450,600);
},
{
name = top;
pos = (478,780);
},
{
name = topleft;
pos = (96,780);
}
);
background = {
shapes = (
{
closed = 1;
nodes = (
(194,0,l),
(250,347,l),
(566,347,l),
(510,0,l),
(678,0,l),
(804,780,l),
(636,780,l),
(588,483,l),
(272,483,l),
(320,780,l),
(152,780,l),
(26,0,l)
);
}
);
};
guides = (
{
angle = 260.5377;
pos = (76,300);
},
{
angle = 260.5377;
pos = (724,300);
},
{
pos = (400,300);
},
{
angle = 260.5377;
pos = (150,300);
}
);
layerId = "7BD6BBF9-E6B2-4B80-818C-1AB8B5401D18";
shapes = (
{
closed = 1;
nodes = (
(194,0,l),
(247,317,l),
(559,317,l),
(506,0,l),
(674,0,l),
(804,780,l),
(636,780,l),
(582,453,l),
(270,453,l),
(324,780,l),
(156,780,l),
(26,0,l)
);
}
);
width = 800;
}
);
},
{
color = 6;
glyphname = a;
kernLeft = a;
kernRight = a;
lastChange = "2022-02-18 14:13:03 +0000";
layers = (
{
anchors = (
{
name = bottom;
pos = (275,0);
},
{
name = ogonek;
pos = (510,0);
},
{
name = top;
pos = (375,600);
}
);
background = {
shapes = (
{
closed = 1;
nodes = (
(315,-12,o),
(368,40,o),
(398,100,c),
(423,100,l),
(417,65,o),
(414,26,o),
(414,0,c),
(510,0,l),
(510,31,o),
(513,113,o),
(521,161,cs),
(594,600,l),
(498,600,l),
(489,540,l),
(465,540,l),
(448,579,o),
(404,612,o),
(330,612,cs),
(159,612,o),
(40,432,o),
(40,228,cs),
(40,74,o),
(106,-12,o),
(224,-12,cs)
);
},
{
closed = 1;
nodes = (
(190,74,o),
(150,118,o),
(150,232,cs),
(150,393,o),
(229,526,o),
(344,526,cs),
(391,526,o),
(436,504,o),
(465,474,c),
(448,371,ls),
(422,216,o),
(370,74,o),
(254,74,cs)
);
}
);
};
guides = (
{
angle = 260.5377;
pos = (436,300);
},
{
angle = 260.5377;
pos = (544,300);
},
{
angle = 182.0826;
pos = (95,230);
}
);
hints = (
{
horizontal = 1;
origin = (0,23);
target = (1,12);
type = Stem;
},
{
horizontal = 1;
origin = (0,17);
target = (1,5);
type = Stem;
},
{
horizontal = 1;
origin = (0,6);
target = up;
type = BottomGhost;
},
{
horizontal = 1;
origin = (0,12);
target = down;
type = TopGhost;
},
{
origin = (0,20);
target = (1,2);
type = Stem;
},
{
origin = (0,6);
target = (0,7);
type = Stem;
}
);
layerId = "53F1C36F-0CF6-4FBE-93F4-60C790418F6C";
shapes = (
{
closed = 1;
nodes = (
(315,-12,o),
(368,40,o),
(398,100,c),
(423,100,l),
(417,65,o),
(414,26,o),
(414,0,c),
(510,0,l),
(510,31,o),
(513,113,o),
(521,161,cs),
(594,600,l),
(498,600,l),
(489,540,l),
(465,540,l),
(448,579,o),
(404,612,o),
(330,612,cs),
(159,612,o),
(40,432,o),
(40,228,cs),
(40,74,o),
(106,-12,o),
(224,-12,cs)
);
},
{
closed = 1;
nodes = (
(190,74,o),
(150,118,o),
(150,232,cs),
(150,393,o),
(229,526,o),
(344,526,cs),
(391,526,o),
(436,504,o),
(465,474,c),
(448,371,ls),
(422,216,o),
(370,74,o),
(254,74,cs)
);
}
);
width = 630;
},
{
anchors = (
{
name = bottom;
pos = (281,0);
},
{
name = ogonek;
pos = (548,0);
},
{
name = top;
pos = (374,600);
}
);
guides = (
{
angle = 260.5377;
pos = (34,300);
},
{
angle = 182.0826;
pos = (110,230);
},
{
angle = 260.5377;
pos = (586,300);
},
{
angle = 260.5377;
pos = (424,300);
},
{
angle = 260.5377;
pos = (442,300);
}
);
layerId = "7BD6BBF9-E6B2-4B80-818C-1AB8B5401D18";
shapes = (
{
closed = 1;
nodes = (
(307,-12,o),
(355,42,o),
(381,90,c),
(405,90,l),
(399,63,o),
(394,27,o),
(392,0,c),
(548,0,l),
(548,53,o),
(553,102,o),
(562,156,cs),
(636,600,l),
(492,600,l),
(482,540,l),
(458,540,l),
(438,578,o),
(399,612,o),
(319,612,cs),
(128,612,o),
(28,405,o),
(28,227,cs),
(28,74,o),
(104,-12,o),
(217,-12,cs)
);
},
{
closed = 1;
nodes = (
(227,108,o),
(190,146,o),
(190,233,cs),
(190,375,o),
(256,498,o),
(360,498,cs),
(398,498,o),
(428,485,o),
(452,468,c),
(433,354,ls),
(413,234,o),
(358,108,o),
(275,108,cs)
);
}
);
width = 660;
}
);
unicode = 97;
},
{
color = 6;
glyphname = ae;
kernLeft = ae;
kernRight = ae;
lastChange = "2022-02-18 14:13:03 +0000";
layers = (
{
anchors = (
{
name = bottom;
pos = (418,0);
},
{
name = top;
pos = (505,600);
}
);
background = {
shapes = (
{
closed = 1;
nodes = (
(158,410,l),
(181,472,o),
(232,526,o),
(304,526,cs),
(394,526,o),
(443,460,o),
(427,373,cs),
(425,362,l),
(282,362,ls),
(133,362,o),
(12,292,o),
(12,155,cs),
(12,50,o),
(101,-14,o),
(209,-14,cs),
(317,-14,o),
(400,43,o),
(448,106,c),
(508,501,l),
(474,576,o),
(393,613,o),
(309,613,cs),
(197,613,o),
(113,549,o),
(69,455,c)
);
},
{
closed = 1;
nodes = (
(163,73,o),
(122,108,o),
(122,162,cs),
(122,231,o),
(171,282,o),
(274,282,cs),
(412,282,l),
(404,235,ls),
(389,149,o),
(316,73,o),
(227,73,cs)
);
},
{
closed = 1;
nodes = (
(757,-14,o),
(829,67,o),
(870,143,c),
(783,198,l),
(757,141,o),
(712,74,o),
(636,74,cs),
(567,74,o),
(514,129,o),
(514,240,cs),
(514,388,o),
(572,529,o),
(691,529,cs),
(781,529,o),
(812,459,o),
(797,362,c),
(508,362,l),
(496,284,l),
(889,284,l),
(894,314,ls),
(927,509,o),
(849,615,o),
(700,615,cs),
(511,615,o),
(410,435,o),
(410,229,cs),
(410,74,o),
(494,-14,o),
(626,-14,cs)
);
}
);
};
guides = (
{
pos = (483,520);
},
{
angle = 261.0041;
pos = (423,351);
},
{
angle = 260.5377;
pos = (34,300);
},
{
angle = 260.5377;
pos = (774,300);
},
{
angle = 180;
pos = (653,362);
},
{
pos = (693,284);
}
);
hints = (
{
horizontal = 1;
origin = (0,54);
target = (0,13);
type = Stem;
},
{
horizontal = 1;
origin = (1,5);
target = (0,48);
type = Stem;
},
{
horizontal = 1;
origin = (0,29);
target = (0,19);
type = Stem;
},
{
horizontal = 1;
origin = (0,36);
target = (0,43);
type = Stem;
},
{
horizontal = 1;
origin = (0,54);
target = (1,10);
type = Stem;
},
{
origin = (0,51);
target = (1,2);
type = Stem;
},
{
place = (404, 104);
place = (404, 104);
type = Stem;
},
{
place = (800, 101);
place = (800, 101);
type = Stem;
},
{
place = (426, 82);
place = (426, 82);
type = Stem;
}
);
layerId = "53F1C36F-0CF6-4FBE-93F4-60C790418F6C";
shapes = (
{
closed = 1;
nodes = (
(310.02,-14,o),
(383,36,o),
(421,99,c),
(445,99,l),
(467,24,o),
(539.328,-14,o),
(626,-14,cs),
(757,-14,o),
(829,67,o),
(870,143,c),
(783,198,l),
(757,141,o),
(712,74,o),
(636,74,cs),
(567,74,o),
(508,129,o),
(508,240,cs),
(508,388,o),
(572,529,o),
(691,529,cs),
(781,529,o),
(812,459,o),
(797,362,c),
(483,362,l),
(471,284,l),
(889,284,l),
(894,314,ls),
(927,509,o),
(849,615,o),
(700,615,cs),
(614.481,615,o),
(541,578,o),
(505,520,c),
(481,520,l),
(455,582,o),
(386.103,613,o),
(309,613,cs),
(197,613,o),
(113,549,o),
(69,455,c),
(158,410,l),
(181,472,o),
(232,526,o),
(304,526,cs),
(394,526,o),
(439,460,o),
(423,373,cs),
(421,362,l),
(282,362,ls),
(133,362,o),
(12,292,o),
(12,155,cs),
(12,50,o),
(101,-14,o),
(209,-14,cs)
);
},
{
closed = 1;
nodes = (
(163,73,o),
(122,108,o),
(122,162,cs),
(122,231,o),
(171,284,o),
(274,284,cs),
(408,284,l),
(400,235,ls),
(386,149,o),
(316,73,o),
(227,73,cs)
);
}
);
width = 960;
},
{
anchors = (
{
name = bottom;
pos = (440,0);
},
{
name = top;
pos = (540,600);
}
);
background = {
shapes = (
{
closed = 0;
nodes = (
(466,80,l),
(490,80,l),
(525.409,17.674,o),
(589.908,-15,o),
(672,-15,cs),
(796,-15,o),
(871,45,o),
(918,124,c),
(794,205,l),
(770,147,o),
(733,99,o),
(672,99,cs),
(614,99,o),
(577,141,o),
(577,235,cs),
(577,322,o),
(602,507,o),
(717,507,cs),
(771,507,o),
(816,464,o),
(799,364,c),
(497,364,l),
(497,262,l),
(944,262,l),
(950,299,ls),
(985,517,o),
(875,615,o),
(723,615,cs),
(643,615,o),
(578,576,o),
(544,520,c),
(520,520,l),
(487.16,582.858,o),
(417.044,615,o),
(328,615,cs),
(104,615,o),
(27,408,o),
(27,251,cs),
(27,76,o),
(123,-15,o),
(273,-15,cs),
(361,-15,o),
(426,24,o),
(466,80,c)
);
},
{
closed = 1;
nodes = (
(223,93,o),
(193,143,o),
(193,227,cs),
(193,304,o),
(218,507,o),
(346,507,cs),
(405,507,o),
(437,464,o),
(437,375,cs),
(437,296,o),
(412,93,o),
(285,93,cs)
);
}
);
};
guides = (
{
pos = (463,540);
},
{
pos = (648,364);
},
{
pos = (674,99);
},
{
pos = (721,262);
},
{
angle = 183.6412;
pos = (67,159);
},
{
angle = -26.822;
pos = (114,443);
},
{
pos = (687,507);
},
{
angle = 260.5377;
pos = (408,262);
}
);
layerId = "7BD6BBF9-E6B2-4B80-818C-1AB8B5401D18";
shapes = (
{
closed = 1;
nodes = (
(335,-14,o),
(412,37,o),
(447,80,c),
(471,80,l),
(519,16,o),
(589,-14,o),
(674,-14,cs),
(795,-14,o),
(871,45,o),
(918,124,c),
(794,205,l),
(770,147,o),
(733,99,o),
(671,99,cs),
(614,99,o),
(574,140,o),
(574,239,cs),
(574,320,o),
(602,505,o),
(716,505,cs),
(771,505,o),
(816,464,o),
(799,364,c),
(494,364,l),
(494,262,l),
(944,262,l),
(950,299,ls),
(985,517,o),
(874,613,o),
(729,613,cs),
(642,613,o),
(578,579,o),
(541,530,c),
(517,530,l),
(489,580,o),
(423,613,o),
(328,613,cs),
(211,613,o),
(126,563,o),
(70,465,c),
(196,402,l),
(220,452,o),
(261,505,o),
(331,505,cs),
(401,505,o),
(437,452,o),
(424,376,cs),
(422,364,l),
(282,364,ls),
(133,364,o),
(12,290,o),
(12,160,cs),
(12,47,o),
(103,-14,o),
(220,-14,cs)
);
},
{
closed = 1;
nodes = (
(215,99,o),
(174,121,o),
(174,171,cs),
(174,221,o),
(208,262,o),
(296,262,cs),
(405,262,l),
(399,224,ls),
(389,158,o),
(337,99,o),
(261,99,cs)
);
}
);
width = 980;
}
);
unicode = 230;
},
{
color = 6;
glyphname = b;
kernLeft = b;
kernRight = b;
lastChange = "2022-02-18 14:13:03 +0000";
layers = (
{
background = {
shapes = (
{
closed = 1;
nodes = (
(471,-12,o),
(590,168,o),
(590,372,cs),
(590,526,o),
(526,612,o),
(410,612,cs),
(327,612,o),
(275,565,o),
(241,510,c),
(216,510,l),
(227,552,o),
(233,576,o),
(238,600,cs),
(277,800,l),
(169,800,l),
(36,0,l),
(132,0,l),
(141,60,l),
(165,60,l),
(182,21,o),
(226,-12,o),
(300,-12,cs)
);
},
{
closed = 1;
nodes = (
(239,74,o),
(194,96,o),
(165,126,c),
(182,229,ls),
(208,384,o),
(260,526,o),
(376,526,cs),
(440,526,o),
(480,482,o),
(480,368,cs),
(480,207,o),
(401,74,o),
(286,74,cs)
);
}
);
};
guides = (
{
angle = 260.5377;
pos = (194,300);
},
{
angle = 260.5377;
pos = (86,300);
},
{
pos = (229,522);
}
);
hints = (
{
horizontal = 1;
origin = (0,18);
target = (1,12);
type = Stem;
},
{
horizontal = 1;
origin = (0,5);
target = (1,6);
type = Stem;
},
{
horizontal = 1;
origin = (0,11);
target = down;
type = TopGhost;
},
{
horizontal = 1;
origin = (0,12);
target = up;
type = BottomGhost;
},
{
origin = (1,9);
target = (0,2);
type = Stem;
}
);
layerId = "53F1C36F-0CF6-4FBE-93F4-60C790418F6C";
shapes = (
{
closed = 1;
nodes = (
(471,-12,o),
(590,168,o),
(590,372,cs),
(590,526,o),
(526,612,o),
(410,612,cs),
(327,612,o),
(276,565,o),
(250,522,c),
(225,522,l),
(277,800,l),
(169,800,l),
(36,0,l),
(132,0,l),
(141,60,l),
(165,60,l),
(182,21,o),
(226,-12,o),
(300,-12,cs)
);
},
{
closed = 1;
nodes = (
(239,74,o),
(194,96,o),
(165,126,c),
(182,229,ls),
(208,384,o),
(260,526,o),
(376,526,cs),
(440,526,o),
(480,482,o),
(480,368,cs),
(480,207,o),
(401,74,o),
(286,74,cs)
);
}
);
width = 630;
},
{
background = {
shapes = (
{
closed = 1;
nodes = (
(534,-12,o),
(632,195,o),
(632,373,cs),
(632,526,o),
(556,610,o),
(443,610,cs),
(353,610,o),
(305,558,o),
(277,510,c),
(253,510,l),
(264,552,o),
(270,576,o),
(275,600,cs),
(314,800,l),
(157,800,l),
(24,0,l),
(168,0,l),
(178,60,l),
(202,60,l),
(220,22,o),
(259,-12,o),
(340,-12,cs)
);
},
{
closed = 1;
nodes = (
(262,102,o),
(232,115,o),
(208,132,c),
(227,246,ls),
(247,366,o),
(302,490,o),
(385,490,cs),
(433,490,o),
(470,454,o),
(470,367,cs),
(470,225,o),
(404,102,o),
(300,102,cs)
);
}
);
};
guides = (
{
angle = 260.5377;
pos = (626,300);
},
{
angle = 260.5377;
pos = (314,800);
},
{
angle = 260.5377;
pos = (168,0);
},
{
angle = 260.5377;
pos = (74,300);
}
);
layerId = "7BD6BBF9-E6B2-4B80-818C-1AB8B5401D18";
shapes = (
{
closed = 1;
nodes = (
(534,-12,o),
(632,195,o),
(632,373,cs),
(632,526,o),
(556,610,o),
(443,610,cs),
(353,610,o),
(305,558,o),
(287,522,c),
(263,522,l),
(319,800,l),
(157,800,l),
(24,0,l),
(168,0,l),
(178,60,l),
(202,60,l),
(220,22,o),
(259,-12,o),
(340,-12,cs)
);
},
{
closed = 1;
nodes = (
(262,102,o),
(232,115,o),
(208,132,c),
(227,246,ls),
(247,366,o),
(302,490,o),
(385,490,cs),
(433,490,o),
(470,454,o),
(470,367,cs),
(470,225,o),
(404,102,o),
(300,102,cs)
);
}
);
width = 660;
}
);
unicode = 98;
},
{
color = 6;
glyphname = c;
kernLeft = c;
kernRight = c;
lastChange = "2022-02-18 14:13:03 +0000";
layers = (
{
anchors = (
{
name = bottom;
pos = (271,0);
},
{
name = top;
pos = (342,600);
}
);
background = {
shapes = (
{
closed = 1;
nodes = (
(467,-15,o),
(566,165,o),
(566,370,cs),
(566,522,o),
(484,615,o),
(333,615,cs),
(144,615,o),
(46,435,o),
(46,230,cs),
(46,78,o),
(127,-15,o),
(279,-15,cs)
);
},
{
closed = 1;
nodes = (
(196,73,o),
(154,134,o),
(154,231,cs),
(154,370,o),
(211,527,o),
(332,527,cs),
(417,527,o),
(458,468,o),
(458,371,cs),
(458,231,o),
(403,73,o),
(281,73,cs)
);
}
);
};
guides = (
{
angle = 260.8238;
pos = (168,390);
},
{
angle = 193.4486;
pos = (393,378);
},
{
angle = 153.4349;
pos = (464,193);
}
);
hints = (
{
horizontal = 1;
origin = (0,25);
target = (0,6);
type = Stem;
},
{
horizontal = 1;
origin = (0,19);
target = (0,12);
type = Stem;
},
{
origin = (0,22);
target = (0,9);
type = Stem;
},
{
origin = (0,15);
target = (0,16);
type = Stem;
}
);
layerId = "53F1C36F-0CF6-4FBE-93F4-60C790418F6C";
shapes = (
{
closed = 1;
nodes = (
(402,-14,o),
(472,88,o),
(510,170,c),
(418,216,l),
(393,156,o),
(348,72,o),
(267,72,cs),
(198,72,o),
(148,132,o),
(148,246,cs),
(148,383,o),
(212,529,o),
(331,529,cs),
(400,529,o),
(440,480,o),
(445,390,c),
(546,414,l),
(536,548,o),
(459,615,o),
(342,615,cs),
(147,615,o),
(40,431,o),
(40,242,cs),
(40,70,o),
(131,-14,o),
(259,-14,cs)
);
}
);
width = 560;
},
{
anchors = (
{
name = bottom;
pos = (281,0);
},
{
name = top;
pos = (340,600);
}
);
background = {
shapes = (
{
closed = 1;
nodes = (
(524,-15,o),
(603,194,o),
(603,349,cs),
(603,525,o),
(502,615,o),
(345,615,cs),
(108,615,o),
(27,408,o),
(27,251,cs),
(27,76,o),
(128,-15,o),
(286,-15,cs)
);
},
{
closed = 1;
nodes = (
(223,93,o),
(193,143,o),
(193,227,cs),
(193,304,o),
(218,507,o),
(346,507,cs),
(405,507,o),
(437,464,o),
(437,375,cs),
(437,296,o),
(412,93,o),
(285,93,cs)
);
}
);
};
guides = (
{
angle = 260.8238;
pos = (203,390);
},
{
angle = 193.4486;
pos = (403,378);
},
{
angle = 153.4349;
pos = (474,193);
}
);
layerId = "7BD6BBF9-E6B2-4B80-818C-1AB8B5401D18";
shapes = (
{
closed = 1;
nodes = (
(418,-15,o),
(501,62,o),
(545,157,c),
(411,224,l),
(389,159,o),
(348,99,o),
(285,99,cs),
(228,99,o),
(193,143,o),
(193,231,cs),
(193,303,o),
(217,501,o),
(336,501,cs),
(386,501,o),
(417,466,o),
(429,384,c),
(579,420,l),
(556,549,o),
(465,615,o),
(337,615,cs),
(111,615,o),
(27,409,o),
(27,249,cs),
(27,76,o),
(125,-15,o),
(277,-15,cs)
);
}
);
width = 580;
}
);
unicode = 99;
},
{
color = 6;
glyphname = d;
kernLeft = c;
kernRight = d;
lastChange = "2022-02-18 14:13:03 +0000";
layers = (
{
anchors = (
{
name = bottom;
pos = (281,0);
},
{
name = center;
pos = (525,700);
},
{
name = top;
pos = (409,800);
},
{
name = topright;
pos = (627,800);
}
);
background = {
shapes = (
{
closed = 1;
nodes = (
(315,-12,o),
(368,40,o),
(398,100,c),
(423,100,l),
(417,65,o),
(414,26,o),
(414,0,c),
(510,0,l),
(510,31,o),
(513,113,o),
(521,161,cs),
(627,800,l),
(519,800,l),
(499,660,ls),
(489,588,o),
(486,560,o),
(485,540,c),
(461,540,l),
(445,579,o),
(401,612,o),
(327,612,cs),
(158,612,o),
(40,432,o),
(40,228,cs),
(40,74,o),
(106,-12,o),
(224,-12,cs)
);
},
{
closed = 1;
nodes = (
(190,74,o),
(150,118,o),
(150,232,cs),
(150,393,o),
(229,526,o),
(344,526,cs),
(391,526,o),
(435,501,o),
(464,468,c),
(448,371,ls),
(422,216,o),
(370,74,o),
(254,74,cs)
);
}
);
};
guides = (
{
pos = (571,800);
},
{
angle = 81.1057;
pos = (521,481);
},
{
angle = 260.5377;
pos = (436,300);
},
{
angle = 260.5377;
pos = (544,300);
},
{
pos = (464,552);
}
);
hints = (
{
horizontal = 1;
origin = (0,23);
target = (1,12);
type = Stem;
},
{
horizontal = 1;
origin = (0,17);
target = (1,5);
type = Stem;
},
{
horizontal = 1;
origin = (0,12);
target = down;
type = TopGhost;
},
{
horizontal = 1;
origin = (0,6);
target = up;
type = BottomGhost;
},
{
origin = (0,20);
target = (1,2);
type = Stem;
},
{
origin = (0,6);
target = (0,7);
type = Stem;
}
);
layerId = "53F1C36F-0CF6-4FBE-93F4-60C790418F6C";
shapes = (
{
closed = 1;
nodes = (
(315,-12,o),
(368,40,o),
(398,100,c),
(423,100,l),
(417,65,o),
(414,26,o),
(414,0,c),
(510,0,l),
(510,31,o),
(513,113,o),
(521,161,cs),
(627,800,l),
(519,800,l),
(484,546,l),
(460,546,l),
(444,579,o),
(401,612,o),
(327,612,cs),
(158,612,o),
(40,432,o),
(40,228,cs),
(40,74,o),
(106,-12,o),
(224,-12,cs)
);
},
{
closed = 1;
nodes = (
(190,74,o),
(150,118,o),
(150,232,cs),
(150,393,o),
(229,526,o),
(344,526,cs),
(391,526,o),
(435,501,o),
(464,468,c),
(448,371,ls),
(422,216,o),
(370,74,o),
(254,74,cs)
);
}
);
width = 630;
},
{
anchors = (
{
name = bottom;
pos = (283,0);
},
{
name = center;
pos = (560,700);
},
{
name = top;
pos = (412,800);
},
{
name = topright;
pos = (669,800);
}
);
guides = (
{
angle = 260.5377;
pos = (32,300);
},
{
angle = 260.5377;
pos = (586,300);
},
{
angle = 260.5377;
pos = (507,800);
}
);
layerId = "7BD6BBF9-E6B2-4B80-818C-1AB8B5401D18";
shapes = (
{
closed = 1;
nodes = (
(307,-10,o),
(355,42,o),
(381,90,c),
(405,90,l),
(399,63,o),
(394,27,o),
(392,0,c),
(548,0,l),
(548,53,o),
(553,102,o),
(562,156,cs),
(669,800,l),
(507,800,l),
(471,546,l),
(447,546,l),
(427,578,o),
(391,612,o),
(313,612,cs),
(126,612,o),
(28,405,o),
(28,227,cs),
(28,74,o),
(104,-10,o),
(217,-10,cs)
);
},
{
closed = 1;
nodes = (
(227,110,o),
(190,146,o),
(190,233,cs),
(190,375,o),
(256,498,o),
(360,498,cs),
(398,498,o),
(428,485,o),
(452,468,c),
(433,354,ls),
(413,234,o),
(358,110,o),
(275,110,cs)
);
}
);
width = 660;
}
);
unicode = 100;
},
{
color = 6;
glyphname = eth;
kernLeft = c;
kernRight = eth;
lastChange = "2022-02-18 14:13:03 +0000";
layers = (
{
background = {
shapes = (
{
closed = 1;
nodes = (
(465,-15,o),
(566,164,o),
(566,383,cs),
(566,576,o),
(488,700,o),
(375,800,c),
(250,800,l),
(250,794,l),
(360,700,o),
(449,604,o),
(472,502,c),
(446,502,l),
(426,545,o),
(382,576,o),
(310,576,cs),
(138,576,o),
(40,398,o),
(40,228,cs),
(40,74,o),
(121,-15,o),
(263,-15,cs)
);
},
{
closed = 1;
nodes = (
(190,69,o),
(148,129,o),
(148,228,cs),
(148,337,o),
(198,494,o),
(330,494,cs),
(411,494,o),
(452,436,o),
(452,337,cs),
(452,228,o),
(403,69,o),
(271,69,cs)
);
},
{
closed = 1;
nodes = (
(233,671,l),
(256,615,l),
(554,729,l),
(530,786,l)
);
}
);
};
guides = (
{
angle = 195.3501;
pos = (449,708);
},
{
angle = 80.647;
pos = (620,715);
},
{
angle = 195.3501;
pos = (449,708);
},
{
angle = 80.647;
pos = (620,715);
},
{
pos = (464,540);
},
{
pos = (187,666);
},
{
pos = (285,570);
}
);
hints = (
{
horizontal = 1;
origin = (0,38);
target = (1,11);
type = Stem;
},
{
horizontal = 1;
origin = (1,5);
target = (0,32);
type = Stem;
},
{
horizontal = 1;
place = (668, 23);
place = (668, 23);
type = Stem;
},
{
horizontal = 1;
origin = (0,10);
target = down;
type = TopGhost;
},
{
horizontal = 1;
place = (716, 84);
place = (716, 84);
type = Stem;
},
{
horizontal = 1;
origin = (0,15);
target = (0,19);
type = Stem;
},
{
horizontal = 1;
place = (664, 27);
place = (664, 27);
type = Stem;
},
{
origin = (0,35);
target = (1,2);
type = Stem;
},
{
origin = (1,8);
target = (0,2);
type = Stem;
},
{
origin = (0,20);
target = (0,5);
type = Stem;
}
);
layerId = "53F1C36F-0CF6-4FBE-93F4-60C790418F6C";
shapes = (
{
closed = 1;
nodes = (
(465,-15,o),
(566,164,o),
(566,383,cs),
(566,515,o),
(529,615,o),
(464,697,c),
(464,721,l),
(498,711,o),
(526,718,o),
(554,729,c),
(530,786,l),
(424,745,l),
(407,764,o),
(388,782,o),
(369,800,c),
(250,800,l),
(250,794,l),
(282,767,o),
(312,740,o),
(345,712,c),
(345,688,l),
(304,698,o),
(266,682,o),
(231,668,c),
(254,612,l),
(383,664,l),
(427,611,o),
(459,557,o),
(472,502,c),
(446,502,l),
(426,545,o),
(382,576,o),
(310,576,cs),
(138,576,o),
(40,398,o),
(40,228,cs),
(40,74,o),
(121,-15,o),
(263,-15,cs)
);
},
{
closed = 1;
nodes = (
(190,69,o),
(148,129,o),
(148,228,cs),
(148,337,o),
(198,494,o),
(330,494,cs),
(411,494,o),
(452,436,o),
(452,337,cs),
(452,228,o),
(403,69,o),
(271,69,cs)
);
}
);
width = 600;
},
{
background = {
shapes = (
{
closed = 1;
nodes = (
(530,-15,o),
(611,221,o),
(611,394,cs),
(611,562,o),
(534,694,o),
(431,800,c),
(263,800,l),
(263,794,l),
(355,708,o),
(438,609,o),
(472,510,c),
(449,510,l),
(429,545,o),
(391,576,o),
(312,576,cs),
(128,576,o),
(27,407,o),
(27,244,cs),
(27,80,o),
(128,-15,o),
(284,-15,cs)
);
},
{
closed = 1;
nodes = (
(223,93,o),
(193,139,o),
(193,215,cs),
(193,286,o),
(218,471,o),
(346,471,cs),
(405,471,o),
(437,432,o),
(437,350,cs),
(437,278,o),
(412,93,o),
(285,93,cs)
);
},
{
closed = 1;
nodes = (
(584,729,l),
(560,786,l),
(263,671,l),
(286,615,l)
);
}
);
};
guides = (
{
angle = 80.647;
pos = (602,300);
},
{
angle = 80.647;
pos = (447,300);
},
{
angle = 195.5999;
pos = (465,708);
},
{
angle = 80.647;
pos = (219,300);
},
{
angle = 80.647;
pos = (584,300);
},
{
angle = 112.8337;
pos = (572,758);
},
{
angle = -67.6713;
pos = (275,643);
},
{
angle = 20.8409;
pos = (377,643);
}
);
layerId = "7BD6BBF9-E6B2-4B80-818C-1AB8B5401D18";
shapes = (
{
closed = 1;
nodes = (
(530,-15,o),
(611,211,o),
(611,384,cs),
(611,504,o),
(572,615,o),
(506,696,c),
(506,720,l),
(536,711,o),
(560,720,o),
(584,729,c),
(558,792,l),
(462,755,l),
(449,771,o),
(434,785,o),
(419,800,c),
(263,800,l),
(263,794,l),
(293,766,o),
(323,736,o),
(356,711,c),
(356,687,l),
(321,694,o),
(292,682,o),
(238,662,c),
(264,600,l),
(395,650,l),
(428,604,o),
(456,557,o),
(472,510,c),
(449,510,l),
(429,545,o),
(391,576,o),
(312,576,cs),
(128,576,o),
(27,407,o),
(27,244,cs),
(27,80,o),
(128,-15,o),
(284,-15,cs)
);
},
{
closed = 1;
nodes = (
(223,93,o),
(193,139,o),
(193,215,cs),
(193,286,o),
(218,471,o),
(346,471,cs),
(405,471,o),
(437,432,o),
(437,350,cs),
(437,278,o),
(412,93,o),
(285,93,cs)
);
}
);
width = 630;
}
);
unicode = 240;
},
{
color = 6;
glyphname = e;
kernLeft = c;
kernRight = e;
lastChange = "2022-02-18 14:13:03 +0000";
layers = (
{
anchors = (
{
name = bottom;
pos = (262,0);
},
{
name = ogonek;
pos = (432,0);
},
{
name = top;
pos = (321,600);
}
);
background = {
shapes = (
{
closed = 1;
nodes = (
(461,-15,o),
(560,165,o),
(560,370,cs),
(560,522,o),
(478,615,o),
(327,615,cs),
(138,615,o),
(40,435,o),
(40,230,cs),
(40,78,o),
(121,-15,o),
(273,-15,cs)
);
},
{
closed = 1;
nodes = (
(190,73,o),
(148,134,o),
(148,231,cs),
(148,370,o),
(205,527,o),
(326,527,cs),
(411,527,o),
(452,468,o),
(452,371,cs),
(452,231,o),
(397,73,o),
(275,73,cs)
);
}
);
};
guides = (
{
angle = -32.7352;
pos = (456,171);
},
{
angle = 260.5377;
pos = (522,300);
},
{
angle = 260.5377;
pos = (45,300);
},
{
angle = 260.5377;
pos = (409,300);
},
{
angle = 260.5377;
pos = (155,300);
}
);
hints = (
{
horizontal = 1;
origin = (0,28);
target = (0,6);
type = Stem;
},
{
horizontal = 1;
origin = (0,17);
target = (0,16);
type = Stem;
},
{
horizontal = 1;
origin = (0,22);
target = (0,12);
type = Stem;
},
{
origin = (0,25);
target = (0,9);
type = Stem;
},
{
place = (430, 101);
place = (430, 101);
type = Stem;
}
);
layerId = "53F1C36F-0CF6-4FBE-93F4-60C790418F6C";
shapes = (
{
closed = 1;
nodes = (
(387,-14,o),
(459,67,o),
(500,143,c),
(413,198,l),
(387,141,o),
(342,72,o),
(266,72,cs),
(197,72,o),
(144,129,o),
(144,240,cs),
(144,388,o),
(202,531,o),
(321,531,cs),
(411,531,o),
(442,459,o),
(427,362,c),
(138,362,l),
(126,284,l),
(519,284,l),
(524,314,ls),
(557,509,o),
(479,615,o),
(330,615,cs),
(141,615,o),
(40,435,o),
(40,229,cs),
(40,74,o),
(124,-14,o),
(256,-14,cs)
);
}
);
width = 570;
},
{
anchors = (
{
name = bottom;
pos = (272,0);
},
{
name = ogonek;
pos = (466,0);
},
{
name = top;
pos = (327,600);
}
);
background = {
shapes = (
{
closed = 1;
nodes = (
(400,-12,o),
(473,69,o),
(512,149,c),
(388,210,l),
(369,166,o),
(333,117,o),
(278,117,cs),
(220,117,o),
(176,165,o),
(185,262,c),
(539,262,l),
(544,292,ls),
(578,495,o),
(498,612,o),
(330,612,cs),
(122,612,o),
(27,431,o),
(27,249,cs),
(27,79,o),
(113,-12,o),
(260,-12,cs)
);
},
{
closed = 1;
nodes = (
(221,456,o),
(266,498,o),
(324,498,cs),
(387,498,o),
(411,451,o),
(398,360,c),
(200,360,l)
);
}
);
};
guides = (
{
angle = 260.5377;
pos = (560,300);
},
{
angle = 260.5377;
pos = (398,300);
},
{
angle = -32.7352;
pos = (456,171);
}
);
layerId = "7BD6BBF9-E6B2-4B80-818C-1AB8B5401D18";
shapes = (
{
closed = 1;
nodes = (
(401,-15,o),
(481,45,o),
(528,124,c),
(404,205,l),
(380,147,o),
(343,99,o),
(282,99,cs),
(224,99,o),
(187,141,o),
(187,235,cs),
(187,322,o),
(212,507,o),
(327,507,cs),
(381,507,o),
(426,464,o),
(409,364,c),
(145,364,l),
(145,262,l),
(554,262,l),
(560,299,ls),
(595,517,o),
(485,615,o),
(333,615,cs),
(111,615,o),
(27,408,o),
(27,249,cs),
(27,76,o),
(125,-15,o),
(277,-15,cs)
);
}
);
width = 590;
}
);
unicode = 101;
},
{
color = 6;
glyphname = schwa;
kernLeft = c;
kernRight = b;
lastChange = "2022-02-18 14:13:03 +0000";
layers = (
{
hints = (
{
horizontal = 1;
origin = (0,28);
target = (0,18);
type = Stem;
},
{
horizontal = 1;
origin = (0,21);
target = (0,24);
type = Stem;
},
{
horizontal = 1;
origin = (0,5);
target = (0,12);
type = Stem;
},
{
place = (39, 101);
place = (39, 101);
type = Stem;
},
{
origin = (0,15);
target = (0,2);
type = Stem;
}
);
layerId = "53F1C36F-0CF6-4FBE-93F4-60C790418F6C";
shapes = (
{
closed = 1;
nodes = (
(429,-15,o),
(530,165,o),
(530,371,cs),
(530,526,o),
(446,614,o),
(314,614,cs),
(183,614,o),
(111,533,o),
(70,457,c),
(157,402,l),
(183,459,o),
(228,526,o),
(304,526,cs),
(373,526,o),
(426,471,o),
(426,360,cs),
(426,212,o),
(368,71,o),
(249,71,cs),
(159,71,o),
(128,141,o),
(143,238,c),
(432,238,l),
(444,316,l),
(51,316,l),
(46,286,ls),
(13,91,o),
(91,-15,o),
(240,-15,cs)
);
}
);
width = 570;
},
{
layerId = "7BD6BBF9-E6B2-4B80-818C-1AB8B5401D18";
shapes = (
{
closed = 1;
nodes = (
(479,-15,o),
(563,192,o),
(563,351,cs),
(563,524,o),
(465,615,o),
(313,615,cs),
(189,615,o),
(109,555,o),
(62,476,c),
(186,395,l),
(210,453,o),
(247,501,o),
(308,501,cs),
(366,501,o),
(403,459,o),
(403,365,cs),
(403,278,o),
(378,93,o),
(263,93,cs),
(209,93,o),
(164,136,o),
(181,236,c),
(445,236,l),
(445,338,l),
(36,338,l),
(30,301,ls),
(-5,83,o),
(105,-15,o),
(257,-15,cs)
);
}
);
width = 590;
}
);
unicode = 601;
},
{
color = 6;
glyphname = f;
kernLeft = f;
kernRight = f;
lastChange = "2022-02-18 14:13:03 +0000";
layers = (
{
background = {
shapes = (
{
closed = 1;
nodes = (
(216,0,l),
(216,9,l),
(203,49,o),
(193,109,o),
(207,196,cs),
(260,516,l),
(356,516,l),
(370,600,l),
(272,600,l),
(297,750,l),
(193,750,l),
(168,600,l),
(80,600,l),
(66,516,l),
(152,516,l),
(96,179,ls),
(82,94,o),
(88,46,o),
(102,0,c)
);
}
);
};
guides = (
{
angle = 260.5377;
pos = (116,300);
},
{
angle = 260.5377;
pos = (224,300);
},
{
angle = 260.5377;
pos = (320,300);
},
{
pos = (103,-100);
}
);
hints = (
{
horizontal = 1;
origin = (0,20);
target = (0,21);
type = Stem;
},
{
horizontal = 1;
origin = (0,15);
target = (0,8);
type = Stem;
},
{
horizontal = 1;
origin = (0,12);
target = down;
type = TopGhost;
}
);
layerId = "53F1C36F-0CF6-4FBE-93F4-60C790418F6C";
shapes = (
{
closed = 1;
nodes = (
(155,-100,l),
(258,516,l),
(356,516,l),
(370,600,l),
(272,600,l),
(279,642,ls),
(288,697,o),
(315,720,o),
(352,720,cs),
(367,720,o),
(381,717,o),
(390,714,c),
(404,800,l),
(393,803,o),
(375,806,o),
(356,806,cs),
(241,806,o),
(189,728,o),
(174,636,cs),
(168,600,l),
(80,600,l),
(66,516,l),
(152,516,l),
(51,-100,l)
);
}
);
width = 350;
},
{
background = {
shapes = (
{
closed = 1;
nodes = (
(203,-100,l),
(301,486,l),
(381,486,l),
(400,600,l),
(316,600,l),
(320,624,ls),
(326,661,o),
(332,696,o),
(378,696,cs),
(391,696,o),
(401,693,o),
(409,690,c),
(427,798,l),
(414,802,o),
(397,806,o),
(365,806,cs),
(192,806,o),
(177,690,o),
(165,618,cs),
(162,600,l),
(80,600,l),
(61,486,l),
(139,486,l),
(41,-100,l)
);
}
);
};
guides = (
{
angle = 260.5377;
pos = (112,300);
},
{
angle = 260.5377;
pos = (266,300);
},
{
angle = 260.5377;
pos = (344,300);
}
);
layerId = "7BD6BBF9-E6B2-4B80-818C-1AB8B5401D18";
shapes = (
{
closed = 1;
nodes = (
(201,-100,l),
(299,486,l),
(381,486,l),
(400,600,l),
(316,600,l),
(320,624,ls),
(328,671,o),
(342,694,o),
(384,694,cs),
(397,694,o),
(401,693,o),
(409,692,c),
(427,800,l),
(414,803,o),
(391,806,o),
(365,806,cs),
(222,806,o),
(183,726,o),
(168,636,cs),
(162,600,l),
(80,600,l),
(61,486,l),
(141,486,l),
(43,-100,l)
);
}
);
width = 380;
}
);
unicode = 102;
},
{
color = 6;
glyphname = g;
kernLeft = g;
kernRight = g;
lastChange = "2022-02-18 14:13:03 +0000";
layers = (
{
anchors = (
{
name = bottom;
pos = (223,-200);
},
{
name = top;
pos = (351,600);
}
);
background = {
shapes = (
{
closed = 1;
nodes = (
(461,-200,l),
(594,600,l),
(498,600,l),
(489,540,l),
(465,540,l),
(448,579,o),
(404,612,o),
(330,612,cs),
(159,612,o),
(40,432,o),
(40,228,cs),
(40,74,o),
(104,-12,o),
(220,-12,cs),
(303,-12,o),
(355,35,o),
(389,90,c),
(414,90,l),
(403,48,o),
(397,24,o),
(392,0,cs),
(353,-200,l)
);
},
{
closed = 1;
nodes = (
(190,74,o),
(150,118,o),
(150,232,cs),
(150,393,o),
(229,526,o),
(344,526,cs),
(391,526,o),
(436,504,o),
(465,474,c),
(448,371,ls),
(422,216,o),
(370,74,o),
(254,74,cs)
);
}
);
};
guides = (
{
angle = 260.5377;
pos = (426,300);
},
{
angle = 260.5377;
pos = (534,300);
},
{
angle = 260.5377;
pos = (436,300);
},
{
pos = (225,-200);
},
{
pos = (217,30);
},
{
angle = 260.5377;
pos = (45,300);
},
{
angle = 85.5526;
pos = (229,-170);
}
);
hints = (
{
horizontal = 1;
origin = (0,30);
target = (0,23);
type = Stem;
},
{
horizontal = 1;
origin = (0,15);
target = (1,12);
type = Stem;
},
{
horizontal = 1;
origin = (0,9);
target = (1,5);
type = Stem;
},
{
horizontal = 1;
origin = (0,4);
target = down;
type = TopGhost;
},
{
origin = (0,12);
target = (1,2);
type = Stem;
}
);
layerId = "53F1C36F-0CF6-4FBE-93F4-60C790418F6C";
shapes = (
{
closed = 1;
nodes = (
(361,-215,o),
(460,-135,o),
(486,17,cs),
(584,600,l),
(492,600,l),
(482,540,l),
(458,540,l),
(441,579,o),
(397,612,o),
(323,612,cs),
(155,612,o),
(40,441,o),
(40,246,cs),
(40,100,o),
(105,18,o),
(217,18,cs),
(304,18,o),
(354,68,o),
(383,125,c),
(407,125,l),
(388,31,ls),
(369,-61,o),
(328,-125,o),
(232,-125,cs),
(156,-125,o),
(100,-87,o),
(54,-20,c),
(-12,-98,l),
(34,-161,o),
(114,-215,o),
(225,-215,cs)
);
},
{
closed = 1;
nodes = (
(191,104,o),
(151,145,o),
(151,252,cs),
(151,402,o),
(227,526,o),
(335,526,cs),
(378,526,o),
(420,505,o),
(455,477,c),
(439,381,ls),
(415,237,o),
(359,104,o),
(251,104,cs)
);
}
);
width = 620;
},
{
anchors = (
{
name = bottom;
pos = (227,-200);
},
{
name = top;
pos = (355,600);
}
);
guides = (
{
pos = (231,30);
},
{
angle = 49.7636;
pos = (-6,-107);
},
{
angle = -8.1301;
pos = (452,24);
},
{
angle = 260.5377;
pos = (576,300);
},
{
angle = 258.8262;
pos = (397,85);
},
{
pos = (405,111);
},
{
angle = 3.0941;
pos = (96,249);
},
{
angle = 260.5377;
pos = (45,300);
},
{
angle = 85.5526;
pos = (244,-170);
},
{
angle = 260.5377;
pos = (414,300);
}
);
layerId = "7BD6BBF9-E6B2-4B80-818C-1AB8B5401D18";
shapes = (
{
closed = 1;
nodes = (
(396,-215,o),
(503,-140,o),
(529,18,cs),
(626,600,l),
(482,600,l),
(472,540,l),
(448,540,l),
(424,584,o),
(392,612,o),
(322,612,cs),
(143,612,o),
(39,419,o),
(39,247,c),
(39,106,o),
(114,18,o),
(226,18,cs),
(301,18,o),
(350,54,o),
(381,110,c),
(405,110,l),
(390,35,ls),
(373,-49,o),
(333,-95,o),
(254,-95,cs),
(181,-95,o),
(119,-56,o),
(79,-6,c),
(-10,-113,l),
(40,-164,o),
(117,-215,o),
(245,-215,cs)
);
},
{
closed = 1;
nodes = (
(230,132,o),
(198,172,o),
(198,255,c),
(198,395,o),
(261,500,o),
(357,500,cs),
(384,500,o),
(419,491,o),
(442,468,c),
(426,372,ls),
(405,246,o),
(354,132,o),
(274,132,cs)
);
}
);
width = 650;
}
);
unicode = 103;
},
{
color = 6;
glyphname = h;
kernLeft = b;
kernRight = h;
lastChange = "2022-02-18 14:13:03 +0000";
layers = (
{
anchors = (
{
name = bottom;
pos = (271,0);
},
{
name = center;
pos = (239,700);
},
{
name = top;
pos = (218,800);
}
);
background = {
shapes = (
{
closed = 1;
nodes = (
(144,0,l),
(192,288,ls),
(214,420,o),
(280,520,o),
(373,520,cs),
(453,520,o),
(470,454,o),
(456,372,cs),
(394,0,l),
(502,0,l),
(566,386,ls),
(586,507,o),
(544,610,o),
(408,610,cs),
(330,610,o),
(282,571,o),
(240,510,c),
(216,510,l),
(222,544,o),
(226,574,o),
(226,600,c),
(130,600,l),
(130,576,o),
(122,516,o),
(112,456,cs),
(36,0,l)
);
}
);
};
guides = (
{
pos = (92,0);
},
{
angle = 260.5609;
pos = (93,0);
},
{
angle = 260.5377;
pos = (194,300);
},
{
angle = 260.5377;
pos = (444,300);
},
{
angle = 260.5377;
pos = (552,300);
},
{
angle = 260.5377;
pos = (86,300);
},
{
pos = (228,522);
}
);
hints = (
{
horizontal = 1;
origin = (0,20);
target = up;
type = BottomGhost;
},
{
horizontal = 1;
origin = (0,13);
target = (0,4);
type = Stem;
},
{
horizontal = 1;
origin = (0,19);
target = down;
type = TopGhost;
},
{
place = (460, 111);
place = (460, 111);
type = Stem;
}
);
layerId = "53F1C36F-0CF6-4FBE-93F4-60C790418F6C";
shapes = (
{
closed = 1;
nodes = (
(144,0,l),
(192,288,ls),
(214,420,o),
(280,520,o),
(373,520,cs),
(453,520,o),
(470,454,o),
(456,372,cs),
(394,0,l),
(502,0,l),
(566,386,ls),
(586,507,o),
(544,610,o),
(408,610,cs),
(330,610,o),
(282,571,o),
(249,522,c),
(225,522,l),
(277,800,l),
(169,800,l),
(36,0,l)
);
}
);
width = 630;
},
{
anchors = (
{
name = bottom;
pos = (285,0);
},
{
name = center;
pos = (244,700);
},
{
name = top;
pos = (231,800);
}
);
background = {
shapes = (
{
closed = 1;
nodes = (
(186,0,l),
(234,288,ls),
(253,400,o),
(304,494,o),
(381,494,cs),
(436,494,o),
(457,448,o),
(443,366,cs),
(382,0,l),
(544,0,l),
(609,389,ls),
(631,522,o),
(567,615,o),
(440,615,cs),
(352,615,o),
(307,570,o),
(277,510,c),
(253,510,l),
(258,542,o),
(262,572,o),
(262,600,c),
(118,600,l),
(118,576,o),
(110,516,o),
(100,456,cs),
(24,0,l)
);
}
);
};
guides = (
{
angle = 260.5377;
pos = (74,300);
},
{
angle = 260.5377;
pos = (594,300);
},
{
angle = 260.5377;
pos = (236,300);
},
{
pos = (265,510);
}
);
layerId = "7BD6BBF9-E6B2-4B80-818C-1AB8B5401D18";
shapes = (
{
closed = 1;
nodes = (
(186,0,l),
(234,288,ls),
(253,400,o),
(304,495,o),
(381,495,cs),
(436,495,o),
(457,448,o),
(443,366,cs),
(382,0,l),
(544,0,l),
(609,389,ls),
(631,522,o),
(567,615,o),
(440,615,cs),
(352,615,o),
(318,570,o),
(292,528,c),
(268,528,l),
(319,800,l),
(157,800,l),
(24,0,l)
);
}
);
width = 660;
}
);
unicode = 104;
},
{
color = 6;
glyphname = idotless;
kernLeft = m;
kernRight = u;
lastChange = "2022-02-18 14:13:03 +0000";
layers = (
{
anchors = (
{
name = bottom;
pos = (90,0);
},
{
name = ogonek;
pos = (144,0);
},
{
name = top;
pos = (190,600);
}
);
guides = (
{
angle = 260.5377;
pos = (86,300);
},
{
angle = 260.5377;
pos = (194,300);
}
);
hints = (
{
horizontal = 1;
origin = (0,3);
target = up;
type = BottomGhost;
},
{
horizontal = 1;
origin = (0,2);
target = down;
type = TopGhost;
},
{
origin = (0,3);
target = (0,1);
type = Stem;
}
);
layerId = "53F1C36F-0CF6-4FBE-93F4-60C790418F6C";
shapes = (
{
closed = 1;
nodes = (
(144,0,l),
(244,600,l),
(136,600,l),
(36,0,l)
);
}
);
width = 280;
},
{
anchors = (
{
name = bottom;
pos = (105,0);
},
{
name = ogonek;
pos = (186,0);
},
{
name = top;
pos = (205,600);
}
);
guides = (
{
angle = 260.5377;
pos = (74,300);
},
{
angle = 260.5377;
pos = (236,300);
}
);
layerId = "7BD6BBF9-E6B2-4B80-818C-1AB8B5401D18";
shapes = (
{
closed = 1;
nodes = (
(186,0,l),
(286,600,l),
(124,600,l),
(24,0,l)
);
}
);
width = 310;
}
);
unicode = 305;
},
{
color = 6;
glyphname = jdotless;
kernLeft = i;
kernRight = i;
lastChange = "2022-02-18 14:13:03 +0000";
layers = (
{
anchors = (
{
name = bottom;
pos = (10,-200);
},
{
name = top;
pos = (192,600);
}
);
guides = (
{
angle = 260.5377;
pos = (86,300);
},
{
angle = 260.5377;
pos = (194,300);
}
);
hints = (
{
horizontal = 1;
origin = (0,10);
target = up;
type = BottomGhost;
},
{
horizontal = 1;
origin = (0,5);
target = down;
type = TopGhost;
},
{
origin = (0,10);
target = (0,4);
type = Stem;
}
);
layerId = "53F1C36F-0CF6-4FBE-93F4-60C790418F6C";
shapes = (
{
closed = 1;
nodes = (
(66,-200,l),
(99,-159,o),
(125,-114,o),
(141,-18,cs),
(244,600,l),
(136,600,l),
(36,0,ls),
(21,-93,o),
(-12,-153,o),
(-48,-194,c),
(-48,-200,l)
);
}
);
width = 280;
},
{
anchors = (
{
name = bottom;
pos = (21,-200);
},
{
name = top;
pos = (200,600);
}
);
guides = (
{
angle = 260.5377;
pos = (74,300);
},
{
angle = 260.5377;
pos = (236,300);
},
{
angle = -6.8144;
pos = (104,-10);
}
);
layerId = "7BD6BBF9-E6B2-4B80-818C-1AB8B5401D18";
shapes = (
{
closed = 1;
nodes = (
(110,-200,l),
(141,-160,o),
(168,-112,o),
(183,-19,cs),
(286,600,l),
(124,600,l),
(24,0,ls),
(10,-82,o),
(-16,-141,o),
(-64,-194,c),
(-64,-200,l)
);
}
);
width = 310;
}
);
unicode = 567;
},
{
color = 6;
glyphname = k;
kernLeft = b;
kernRight = k;
lastChange = "2022-02-18 14:13:03 +0000";
layers = (
{
anchors = (
{
name = bottom;
pos = (262,0);
},
{
name = top;
pos = (224,800);
}
);
guides = (
{
angle = 260.5377;
pos = (86,300);
},
{
angle = 260.5377;
pos = (194,300);
},
{
angle = 260.5377;
pos = (533,300);
}
);
hints = (
{
horizontal = 1;
origin = (0,14);
target = up;
type = BottomGhost;
},
{
horizontal = 1;
origin = (0,1);
target = (0,11);
type = Stem;
},
{
horizontal = 1;
origin = (0,9);
target = down;
type = TopGhost;
},
{
horizontal = 1;
origin = (0,13);
target = down;
type = TopGhost;
}
);
layerId = "53F1C36F-0CF6-4FBE-93F4-60C790418F6C";
shapes = (
{
closed = 1;
nodes = (
(144,0,l),
(190,276,l),
(238,276,l),
(393,0,l),
(513,0,l),
(513,6,l),
(332,315,l),
(583,594,l),
(583,600,l),
(460,600,l),
(253,366,l),
(205,366,l),
(277,800,l),
(169,800,l),
(36,0,l)
);
}
);
width = 580;
},
{
anchors = (
{
name = bottom;
pos = (286,0);
},
{
name = top;
pos = (237,800);
}
);
background = {
shapes = (
{
closed = 1;
nodes = (
(234,0,l),
(288,324,ls),
(304,420,o),
(354,495,o),
(427,495,cs),
(485,495,o),
(510,448,o),
(496,366,cs),
(435,0,l),
(597,0,l),
(658,366,ls),
(684,522,o),
(618,614,o),
(492,614,cs),
(401,614,o),
(350,570,o),
(326,512,c),
(314,512,l),
(362,800,l),
(202,800,l),
(72,0,l)
);
}
);
};
guides = (
{
angle = 260.5377;
pos = (74,300);
},
{
angle = 260.5377;
pos = (236,300);
}
);
layerId = "7BD6BBF9-E6B2-4B80-818C-1AB8B5401D18";
shapes = (
{
closed = 1;
nodes = (
(186,0,l),
(229,256,l),
(277,256,l),
(410,0,l),
(584,0,l),
(584,6,l),
(416,310,l),
(647,594,l),
(647,600,l),
(461,600,l),
(297,376,l),
(249,376,l),
(319,800,l),
(157,800,l),
(24,0,l)
);
}
);
width = 640;
}
);
unicode = 107;
},
{
color = 6;
glyphname = kgreenlandic;
kernLeft = m;
kernRight = k;
lastChange = "2022-02-18 14:13:03 +0000";
layers = (
{
hints = (
{
horizontal = 1;
origin = (0,14);
target = up;
type = BottomGhost;
},
{
horizontal = 1;
origin = (0,1);
target = (0,11);
type = Stem;
},
{
horizontal = 1;
origin = (0,13);
target = down;
type = TopGhost;
},
{
horizontal = 1;
origin = (0,5);
target = up;
type = BottomGhost;
}
);
layerId = "53F1C36F-0CF6-4FBE-93F4-60C790418F6C";
shapes = (
{
closed = 1;
nodes = (
(144,0,l),
(190,276,l),
(238,276,l),
(393,0,l),
(513,0,l),
(513,1,l),
(332,315,l),
(583,599,l),
(583,600,l),
(460,600,l),
(253,366,l),
(205,366,l),
(244,600,l),
(136,600,l),
(36,0,l)
);
}
);
width = 580;
},
{
layerId = "7BD6BBF9-E6B2-4B80-818C-1AB8B5401D18";
shapes = (
{
closed = 1;
nodes = (
(186,0,l),
(229,256,l),
(277,256,l),
(410,0,l),
(584,0,l),
(584,6,l),
(416.305,310.455,l),
(647,594,l),
(647,600,l),
(461,600,l),
(297,376,l),
(249,376,l),
(287,600,l),
(124,600,l),
(24,0,l)
);
}
);
width = 640;
}
);
unicode = 312;
},
{
color = 6;
glyphname = l;
kernLeft = b;
kernRight = d;
lastChange = "2022-02-18 14:13:03 +0000";
layers = (
{
anchors = (
{
name = bottom;
pos = (104,0);
},
{
name = center;
pos = (319,330);
},
{
name = slash;
pos = (150,360);
},
{
name = top;
pos = (221,800);
},
{
name = topright;
pos = (277,800);
}
);
guides = (
{
angle = 260.5377;
pos = (86,300);
},
{
angle = 260.5377;
pos = (194,300);
},
{
angle = 260.5377;
pos = (314,300);
}
);
hints = (
{
horizontal = 1;
origin = (0,10);
target = up;
type = BottomGhost;
},
{
horizontal = 1;
origin = (0,6);
target = down;
type = TopGhost;
},
{
place = (59, 111);
place = (59, 111);
type = Stem;
}
);
layerId = "53F1C36F-0CF6-4FBE-93F4-60C790418F6C";
shapes = (
{
closed = 1;
nodes = (
(186,0,l),
(186,6,l),
(173,49,o),
(163,109,o),
(177,196,cs),
(277,800,l),
(169,800,l),
(66,179,ls),
(52,94,o),
(58,46,o),
(72,0,c)
);
}
);
width = 280;
},
{
anchors = (
{
name = bottom;
pos = (138,0);
},
{
name = center;
pos = (354,330);
},
{
name = slash;
pos = (165,360);
},
{
name = top;
pos = (233,800);
},
{
name = topright;
pos = (319,800);
}
);
guides = (
{
angle = 260.5377;
pos = (74,300);
},
{
angle = 260.5377;
pos = (236,300);
},
{
angle = 260.5377;
pos = (350,300);
}
);
layerId = "7BD6BBF9-E6B2-4B80-818C-1AB8B5401D18";
shapes = (
{
closed = 1;
nodes = (
(222,0,l),
(222,6,l),
(208,44,o),
(203,101,o),
(219,198,cs),
(319,800,l),
(157,800,l),
(54,179,ls),
(41,102,o),
(42,51,o),
(54,0,c)
);
}
);
width = 310;
}
);
unicode = 108;
},
{
color = 6;
glyphname = m;
kernLeft = m;
kernRight = h;
lastChange = "2022-02-18 14:13:03 +0000";
layers = (
{
background = {
shapes = (
{
closed = 1;
nodes = (
(146,0,l),
(198,300,ls),
(221,432,o),
(288,520,o),
(376,520,cs),
(433,520,o),
(462,480,o),
(447,396,cs),
(378,0,l),
(486,0,l),
(538,300,ls),
(563,444,o),
(629,520,o),
(716,520,cs),
(773,520,o),
(802,480,o),
(787,396,cs),
(718,0,l),
(826,0,l),
(895,396,ls),
(918,528,o),
(859,610,o),
(744,610,cs),
(656,610,o),
(606,562,o),
(576,510,c),
(552,510,l),
(532,573,o),
(482,610,o),
(408,610,cs),
(314,610,o),
(273,558,o),
(248,510,c),
(223,510,l),
(230,547,o),
(234,575,o),
(234,600,c),
(136,600,l),
(136,576,o),
(127,513,o),
(117,456,cs),
(38,0,l)
);
}
);
};
guides = (
{
pos = (564,510);
},
{
angle = 260.5377;
pos = (194,300);
},
{
angle = 260.5377;
pos = (430,300);
},
{
angle = 260.5377;
pos = (538,300);
},
{
angle = 260.5377;
pos = (86,300);
},
{
angle = 260.5377;
pos = (774,300);
},
{
angle = 260.5377;
pos = (882,300);
}
);
hints = (
{
horizontal = 1;
origin = (0,41);
target = up;
type = BottomGhost;
},
{
horizontal = 1;
origin = (0,29);
target = (0,4);
type = Stem;
},
{
horizontal = 1;
origin = (0,37);
target = down;
type = TopGhost;
},
{
place = (790, 111);
place = (790, 111);
type = Stem;
}
);
layerId = "53F1C36F-0CF6-4FBE-93F4-60C790418F6C";
shapes = (
{
closed = 1;
nodes = (
(144,0,l),
(192,288,ls),
(214,420,o),
(280,520,o),
(368,520,cs),
(443,520,o),
(456,454,o),
(442,372,cs),
(380,0,l),
(488,0,l),
(536,288,ls),
(558,420,o),
(610,520,o),
(703,520,cs),
(783,520,o),
(800,454,o),
(786,372,cs),
(724,0,l),
(832,0,l),
(896,386,ls),
(916,507,o),
(874,610,o),
(738,610,cs),
(660,610,o),
(612,571,o),
(570,510,c),
(546,510,l),
(530,570,o),
(485,610,o),
(403,610,cs),
(330,610,o),
(282,571,o),
(240,510,c),
(216,510,l),
(222,544,o),
(226,574,o),
(226,600,c),
(130,600,l),
(130,576,o),
(122,516,o),
(112,456,cs),
(36,0,l)
);
}
);
width = 960;
},
{
guides = (
{
angle = 260.5377;
pos = (74,300);
},
{
angle = 260.5377;
pos = (236,300);
},
{
angle = 260.5377;
pos = (418,300);
},
{
angle = 260.5377;
pos = (580,300);
},
{
angle = 260.5377;
pos = (762,300);
},
{
angle = 260.5377;
pos = (924,300);
}
);
layerId = "7BD6BBF9-E6B2-4B80-818C-1AB8B5401D18";
shapes = (
{
closed = 1;
nodes = (
(186,0,l),
(234,288,ls),
(253,400,o),
(304,495,o),
(374,495,cs),
(422,495,o),
(443,448,o),
(429,366,cs),
(368,0,l),
(530,0,l),
(578,288,ls),
(597,400,o),
(649,495,o),
(719,495,cs),
(767,495,o),
(787,448,o),
(773,366,cs),
(712,0,l),
(874,0,l),
(939,389,ls),
(961,522,o),
(897,615,o),
(770,615,cs),
(682,615,o),
(637,570,o),
(607,510,c),
(583,510,l),
(566.964,574.562,o),
(514,615,o),
(440,615,cs),
(352,615,o),
(307,570,o),
(277,510,c),
(253,510,l),
(258,542,o),
(262,572,o),
(262,600,c),
(118,600,l),
(118,576,o),
(110,516,o),
(100,456,cs),
(24,0,l)
);
}
);
width = 990;
}
);
unicode = 109;
},
{
color = 6;
glyphname = n;
kernLeft = m;
kernRight = h;
lastChange = "2022-02-18 14:13:03 +0000";
layers = (
{
anchors = (
{
name = bottom;
pos = (269,0);
},
{
name = top;
pos = (365,600);
}
);
guides = (
{
angle = 260.5377;
pos = (194,300);
},
{
angle = 260.5377;
pos = (444,300);
},
{
angle = 260.5377;
pos = (552,300);
},
{
angle = 260.5377;
pos = (86,300);
},
{
pos = (228,510);
},
{
angle = 187.2532;
pos = (511,379);
}
);
hints = (
{
horizontal = 1;
origin = (0,25);
target = up;
type = BottomGhost;
},
{
horizontal = 1;
origin = (0,13);
target = (0,4);
type = Stem;
},
{
horizontal = 1;
origin = (0,21);
target = down;
type = TopGhost;
},
{
place = (460, 111);
place = (460, 111);
type = Stem;
}
);
layerId = "53F1C36F-0CF6-4FBE-93F4-60C790418F6C";
shapes = (
{
closed = 1;
nodes = (
(144,0,l),
(192,288,ls),
(214,420,o),
(280,520,o),
(373,520,cs),
(453,520,o),
(470,454,o),
(456,372,cs),
(394,0,l),
(502,0,l),
(566,386,ls),
(586,507,o),
(544,610,o),
(408,610,cs),
(330,610,o),
(282,571,o),
(240,510,c),
(216,510,l),
(222,544,o),
(226,574,o),
(226,600,c),
(130,600,l),
(130,576,o),
(122,516,o),
(112,456,cs),
(36,0,l)
);
}
);
width = 630;
},
{
anchors = (
{
name = bottom;
pos = (284,0);
},
{
name = top;
pos = (384,600);
}
);
guides = (
{
angle = 260.5377;
pos = (74,300);
},
{
angle = 260.5377;
pos = (594,300);
},
{
angle = 187.2532;
pos = (526,379);
},
{
angle = 260.5377;
pos = (432,300);
},
{
angle = 260.5377;
pos = (236,300);
},
{
angle = 68.7495;
pos = (406,565);
},
{
angle = 260.5377;
pos = (218,300);
}
);
layerId = "7BD6BBF9-E6B2-4B80-818C-1AB8B5401D18";
shapes = (
{
closed = 1;
nodes = (
(186,0,l),
(234,288,ls),
(253,400,o),
(304,494,o),
(381,494,cs),
(436,494,o),
(457,448,o),
(443,366,cs),
(382,0,l),
(544,0,l),
(609,389,ls),
(631,522,o),
(567,615,o),
(440,615,cs),
(352,615,o),
(307,570,o),
(277,510,c),
(253,510,l),
(258,542,o),
(262,572,o),
(262,600,c),
(118,600,l),
(118,576,o),
(110,516,o),
(100,456,cs),
(24,0,l)
);
}
);
width = 660;
}
);
unicode = 110;
},
{
color = 6;
glyphname = eng;
kernLeft = m;
kernRight = h;
lastChange = "2022-02-18 14:13:03 +0000";
layers = (
{
anchors = (
{
name = bottom;
pos = (315,0);
},
{
name = top;
pos = (315,600);
}
);
guides = (
{
angle = 260.5377;
pos = (444,300);
}
);
hints = (
{
horizontal = 1;
origin = (0,32);
target = up;
type = BottomGhost;
},
{
horizontal = 1;
origin = (0,19);
target = up;
type = BottomGhost;
},
{
horizontal = 1;
origin = (0,7);
target = (0,24);
type = Stem;
},
{
horizontal = 1;
origin = (0,15);
target = down;
type = TopGhost;
},
{
place = (460, 111);
place = (460, 111);
type = Stem;
}
);
layerId = "53F1C36F-0CF6-4FBE-93F4-60C790418F6C";
shapes = (
{
closed = 1;
nodes = (
(424,-200,l),
(457,-159,o),
(483,-114,o),
(499,-18,cs),
(566,386,ls),
(586,507,o),
(544,610,o),
(408,610,cs),
(330,610,o),
(282,571,o),
(240,510,c),
(216,510,l),
(222,544,o),
(226,574,o),
(226,600,c),
(130,600,l),
(130,576,o),
(122,516,o),
(112,456,cs),
(36,0,l),
(144,0,l),
(192,288,ls),
(214,420,o),
(280,520,o),
(373,520,cs),
(453,520,o),
(470,454,o),
(456,372,cs),
(394,0,ls),
(379,-90,o),
(346,-150,o),
(310,-191,c),
(310,-200,l)
);
}
);
width = 630;
},
{
anchors = (
{
name = bottom;
pos = (330,0);
},
{
name = top;
pos = (330,600);
}
);
guides = (
{
angle = 260.5377;
pos = (594,300);
}
);
layerId = "7BD6BBF9-E6B2-4B80-818C-1AB8B5401D18";
shapes = (
{
closed = 1;
nodes = (
(468,-200,l),
(499,-160,o),
(526,-112,o),
(541,-19,cs),
(609,389,ls),
(631,522,o),
(567,614,o),
(440,614,cs),
(352,614,o),
(307,570,o),
(277,510,c),
(253,510,l),
(258,542,o),
(262,572,o),
(262,600,c),
(118,600,l),
(118,576,o),
(110,516,o),
(100,456,cs),
(24,0,l),
(186,0,l),
(234,288,ls),
(253,400,o),
(304,494,o),
(381,494,cs),
(436,494,o),
(457,448,o),
(443,366,cs),
(382,0,ls),
(368,-82,o),
(342,-141,o),
(294,-194,c),
(294,-200,l)
);
}
);
width = 660;
}
);
unicode = 331;
},
{
color = 6;
glyphname = o;
kernLeft = c;
kernRight = b;
lastChange = "2022-02-18 14:13:03 +0000";
layers = (
{
anchors = (
{
name = bottom;
pos = (250,0);
},
{
name = center;
pos = (300,300);
},
{
name = ogonek;
pos = (340,0);
},
{
name = top;
pos = (350,600);
},
{
name = topright;
pos = (560,600);
}
);
background = {
shapes = (
{
closed = 1;
nodes = (
(453,-15,o),
(563,171,o),
(563,391,cs),
(563,530,o),
(496,615,o),
(352,615,cs),
(147,615,o),
(37,429,o),
(37,209,cs),
(37,70,o),
(104,-15,o),
(248,-15,cs)
);
},
{
closed = 1;
nodes = (
(182,73,o),
(148,127,o),
(148,218,cs),
(148,367,o),
(207,527,o),
(338,527,cs),
(418,527,o),
(452,473,o),
(452,382,cs),
(452,233,o),
(393,73,o),
(262,73,cs)
);
}
);
};
guides = (
{
angle = 260.5377;
pos = (555,300);
},
{
angle = 260.5377;
pos = (45,300);
},
{
angle = 260.5377;
pos = (445,300);
},
{
angle = 260.5377;
pos = (155,300);
},
{
angle = 180.5305;
pos = (94,231);
},
{
angle = -0.5305;
pos = (506,371);
},
{
angle = 89.3489;
pos = (327,571);
}
);
hints = (
{
horizontal = 1;
origin = (0,11);
target = (1,11);
type = Stem;
},
{
horizontal = 1;
origin = (0,5);
target = (1,5);
type = Stem;
},
{
origin = (0,8);
target = (1,2);
type = Stem;
},
{
origin = (1,8);
target = (0,2);
type = Stem;
}
);
layerId = "53F1C36F-0CF6-4FBE-93F4-60C790418F6C";
shapes = (
{
closed = 1;
nodes = (
(461,-15,o),
(560,165,o),
(560,370,cs),
(560,522,o),
(478,615,o),
(327,615,cs),
(138,615,o),
(40,435,o),
(40,230,cs),
(40,78,o),
(121,-15,o),
(273,-15,cs)
);
},
{
closed = 1;
nodes = (
(190,71,o),
(148,134,o),
(148,231,cs),
(148,370,o),
(205,529,o),
(326,529,cs),
(411,529,o),
(452,468,o),
(452,371,cs),
(452,231,o),
(397,71,o),
(275,71,cs)
);
}
);
width = 600;
},
{
anchors = (
{
name = bottom;
pos = (286,0);
},
{
name = center;
pos = (315,300);
},
{
name = ogonek;
pos = (376,0);
},
{
name = top;
pos = (346,600);
},
{
name = topright;
pos = (620,600);
}
);
background = {
shapes = (
{
closed = 1;
nodes = (
(505,-15,o),
(607,190,o),
(607,382,cs),
(607,526,o),
(530,615,o),
(367,615,cs),
(125,615,o),
(23,410,o),
(23,218,cs),
(23,74,o),
(100,-15,o),
(263,-15,cs)
);
},
{
closed = 1;
nodes = (
(219,93,o),
(190,133,o),
(190,214,cs),
(190,305,o),
(220,507,o),
(349,507,cs),
(411,507,o),
(440,467,o),
(440,386,cs),
(440,295,o),
(410,93,o),
(281,93,cs)
);
}
);
};
guides = (
{
angle = 260.5377;
pos = (600,300);
},
{
angle = 260.5377;
pos = (30,300);
},
{
angle = 260.5377;
pos = (432,300);
},
{
angle = 260.5377;
pos = (198,300);
},
{
angle = 89.3489;
pos = (342,571);
}
);
layerId = "7BD6BBF9-E6B2-4B80-818C-1AB8B5401D18";
shapes = (
{
closed = 1;
nodes = (
(524,-15,o),
(603,194,o),
(603,349,cs),
(603,525,o),
(502,615,o),
(345,615,cs),
(108,615,o),
(27,408,o),
(27,251,cs),
(27,76,o),
(128,-15,o),
(286,-15,cs)
);
},
{
closed = 1;
nodes = (
(223,93,o),
(193,143,o),
(193,227,cs),
(193,304,o),
(218,507,o),
(346,507,cs),
(405,507,o),
(437,464,o),
(437,375,cs),
(437,296,o),
(412,93,o),
(285,93,cs)
);
}
);
width = 630;
}
);
unicode = 111;
},
{
color = 6;
glyphname = ohorn;
kernLeft = c;
kernRight = ohorn;
lastChange = "2022-02-18 14:13:03 +0000";
layers = (
{
anchors = (
{
name = bottom;
pos = (250,0);
},
{
name = center;
pos = (300,300);
},
{
name = ogonek;
pos = (321,0);
},
{
name = top;
pos = (350,600);
}
);
background = {
shapes = (
{
closed = 1;
nodes = (
(461,-15,o),
(560,165,o),
(560,370,cs),
(560,522,o),
(478,615,o),
(327,615,cs),
(138,615,o),
(40,435,o),
(40,230,cs),
(40,78,o),
(121,-15,o),
(273,-15,cs)
);
},
{
closed = 1;
nodes = (
(190,73,o),
(148,134,o),
(148,231,cs),
(148,370,o),
(205,527,o),
(326,527,cs),
(411,527,o),
(452,468,o),
(452,371,cs),
(452,231,o),
(397,73,o),
(275,73,cs)
);
},
{
closed = 1;
nodes = (
(459,451,l),
(490,453,ls),
(599,460,o),
(658,551,o),
(676,660,c),
(592,660,l),
(581,591,o),
(548,531,o),
(484,519,cs),
(435,510,l)
);
}
);
};
guides = (
{
pos = (228,510);
}
);
hints = (
{
horizontal = 1;
origin = (0,22);
target = (1,11);
type = Stem;
},
{
horizontal = 1;
origin = (0,16);
target = (1,5);
type = Stem;
},
{
origin = (0,19);
target = (1,2);
type = Stem;
},
{
origin = (1,8);
target = (0,2);
type = Stem;
}
);
layerId = "53F1C36F-0CF6-4FBE-93F4-60C790418F6C";
shapes = (
{
closed = 1;
nodes = (
(461,-15,o),
(560,165,o),
(560,370,cs),
(560,405,o),
(556,437,o),
(547,466,c),
(631,495,o),
(685,572,o),
(702,660,c),
(612,660,l),
(601,601,o),
(575,546,o),
(531,522,c),
(507,522,l),
(468.496,585.084,o),
(407.72,615,o),
(327,615,cs),
(138,615,o),
(40,435,o),
(40,230,cs),
(40,78,o),
(121,-15,o),
(273,-15,cs)
);
},
{
closed = 1;
nodes = (
(190,71,o),
(148,134,o),
(148,231,cs),
(148,370,o),
(205,529,o),
(326,529,cs),
(411,529,o),
(452,468,o),
(452,371,cs),
(452,231,o),
(397,71,o),
(275,71,cs)
);
}
);
width = 620;
},
{
anchors = (
{
name = bottom;
pos = (286,0);
},
{
name = center;
pos = (315,300);
},
{
name = ogonek;
pos = (336,0);
},
{
name = top;
pos = (346,600);
}
);
layerId = "7BD6BBF9-E6B2-4B80-818C-1AB8B5401D18";
shapes = (
{
closed = 1;
nodes = (
(524,-15,o),
(603,194,o),
(603,349,cs),
(603,389,o),
(598,425,o),
(588,456,c),
(679,483,o),
(732,556,o),
(742,660,c),
(621,660,l),
(611,606,o),
(600,565,o),
(549,540,c),
(525,540,l),
(490,585,o),
(426,615,o),
(345,615,cs),
(108,615,o),
(27,408,o),
(27,251,cs),
(27,76,o),
(128,-15,o),
(286,-15,cs)
);
},
{
closed = 1;
nodes = (
(223,93,o),
(193,143,o),
(193,227,cs),
(193,304,o),
(218,507,o),
(346,507,cs),
(405,507,o),
(437,464,o),
(437,375,cs),
(437,296,o),
(412,93,o),
(285,93,cs)
);
}
);
width = 650;
}
);
unicode = 417;
},
{
color = 6;
glyphname = oslash;
kernLeft = c;
kernRight = b;
lastChange = "2022-02-18 14:13:03 +0000";
layers = (
{
anchors = (
{
name = _center;
pos = (300,300);
},
{
name = bottom;
pos = (250,0);
},
{
name = center;
pos = (300,300);
},
{
name = ogonek;
pos = (340,0);
},
{
name = top;
pos = (350,600);
},
{
name = topright;
pos = (560,600);
}
);
hints = (
{
horizontal = 1;
origin = (0,23);
target = (1,10);
type = Stem;
},
{
horizontal = 1;
origin = (0,11);
target = (2,2);
type = Stem;
},
{
horizontal = 1;
origin = (0,7);
target = down;
type = TopGhost;
},
{
horizontal = 1;
origin = (0,19);
target = up;
type = BottomGhost;
},
{
origin = (0,14);
target = (2,10);
type = Stem;
},
{
origin = (1,7);
target = (0,2);
type = Stem;
}
);
layerId = "53F1C36F-0CF6-4FBE-93F4-60C790418F6C";
shapes = (
{
closed = 1;
nodes = (
(461,-15,o),
(560,165,o),
(560,370,cs),
(560,418.559,o),
(551.631,461.097,o),
(535.317,496.505,c),
(600,564,l),
(552,612,l),
(496.108,553.678,l),
(456.832,593.28,o),
(399.973,615,o),
(327,615,cs),
(138,615,o),
(40,435,o),
(40,230,cs),
(40,181.373,o),
(48.29,138.785,o),
(64.542,103.348,c),
(0,36,l),
(48,-12,l),
(103.701,46.123,l),
(142.859,6.647,o),
(199.667,-15,o),
(273,-15,cs)
);
},
{
closed = 1;
nodes = (
(229,71,o),
(196,89,o),
(176,120,c),
(406,360,ls),
(421,376,o),
(431,391,o),
(439,407,c),
(463,407,l),
(463,289,o),
(416,71,o),
(275,71,cs)
);
},
{
closed = 1;
nodes = (
(138,311,o),
(185,529,o),
(326,529,cs),
(371.723,529,o),
(404.715,511.349,o),
(425.441,479.939,c),
(195,240,ls),
(180,224,o),
(170,209,o),
(162,193,c),
(138,193,l)
);
}
);
width = 600;
},
{
anchors = (
{
name = _center;
pos = (315,300);
},
{
name = bottom;
pos = (286,0);
},
{
name = center;
pos = (315,300);
},
{
name = ogonek;
pos = (376,0);
},
{
name = top;
pos = (346,600);
},
{
name = topright;
pos = (620,600);
}
);
layerId = "7BD6BBF9-E6B2-4B80-818C-1AB8B5401D18";
shapes = (
{
closed = 1;
nodes = (
(524,-15,o),
(603,194,o),
(603,349,cs),
(603,409.975,o),
(590.877,460.627,o),
(568.503,500.791,c),
(621,555,l),
(561,615,l),
(512.931,565.363,l),
(469.702,598.348,o),
(412.532,615,o),
(345,615,cs),
(108,615,o),
(27,408,o),
(27,251,cs),
(27,190.244,o),
(39.174,139.612,o),
(61.68,99.398,c),
(9,45,l),
(69,-15,l),
(117.324,34.9,l),
(160.684,1.819,o),
(218.075,-15,o),
(286,-15,cs)
);
},
{
closed = 1;
nodes = (
(253,93,o),
(228,106,o),
(213,133,c),
(375,300,ls),
(396,321,o),
(413,341,o),
(426,365,c),
(450,365,l),
(448,283,o),
(409,93,o),
(285,93,cs)
);
},
{
closed = 1;
nodes = (
(183,317,o),
(222.257,507,o),
(346,507,cs),
(378.482,507,o),
(402.78,493.967,o),
(418.061,467.4,c),
(256,300,ls),
(235,279,o),
(218,259,o),
(205,235,c),
(181,235,l)
);
}
);
width = 630;
}
);
unicode = 248;
},
{
color = 6;
glyphname = oe;
kernLeft = c;
kernRight = e;
lastChange = "2022-02-18 14:13:03 +0000";
layers = (
{
anchors = (
{
name = bottom;
pos = (455,0);
},
{
name = top;
pos = (535,600);
}
);
hints = (
{
horizontal = 1;
origin = (0,42);
target = (1,11);
type = Stem;
},
{
horizontal = 1;
origin = (0,24);
target = (0,23);
type = Stem;
},
{
horizontal = 1;
origin = (0,36);
target = (1,5);
type = Stem;
},
{
horizontal = 1;
origin = (0,6);
target = (0,13);
type = Stem;
},
{
horizontal = 1;
origin = (0,36);
target = (0,19);
type = Stem;
},
{
origin = (0,39);
target = (1,2);
type = Stem;
},
{
origin = (1,8);
target = (0,16);
type = Stem;
},
{
place = (820, 101);
place = (820, 101);
type = Stem;
}
);
layerId = "53F1C36F-0CF6-4FBE-93F4-60C790418F6C";
shapes = (
{
closed = 1;
nodes = (
(356,-15,o),
(412,23,o),
(456,80,c),
(480,80,l),
(511,18,o),
(567,-14,o),
(646,-14,cs),
(777,-14,o),
(849,67,o),
(890,143,c),
(803,198,l),
(777,141,o),
(732,74,o),
(654,74,cs),
(587,74,o),
(534,124,o),
(534,251,cs),
(534,380,o),
(589,529,o),
(714,529,cs),
(801,529,o),
(832,456,o),
(817,362,c),
(489,362,l),
(477,284,l),
(909,284,l),
(914,314,ls),
(947,514,o),
(865,615,o),
(721,615,cs),
(636,615,o),
(570,580,o),
(534,520,c),
(510,520,l),
(480,578,o),
(419,615,o),
(331,615,cs),
(132,615,o),
(40,424,o),
(40,244,cs),
(40,75,o),
(121,-15,o),
(268,-15,cs)
);
},
{
closed = 1;
nodes = (
(190,73,o),
(148,134,o),
(148,240,cs),
(148,353,o),
(195,527,o),
(332,527,cs),
(411,527,o),
(452,468,o),
(452,361,cs),
(452,247,o),
(406,73,o),
(270,73,cs)
);
}
);
width = 960;
},
{
anchors = (
{
name = bottom;
pos = (465,0);
},
{
name = top;
pos = (545,600);
}
);
guides = (
{
pos = (509,522);
},
{
angle = 260.5377;
pos = (532,520);
}
);
layerId = "7BD6BBF9-E6B2-4B80-818C-1AB8B5401D18";
shapes = (
{
closed = 1;
nodes = (
(361,-15,o),
(426,24,o),
(466,80,c),
(490,80,l),
(525.409,17.674,o),
(589.908,-15,o),
(672,-15,cs),
(796,-15,o),
(871,45,o),
(918,124,c),
(794,205,l),
(770,147,o),
(733,99,o),
(672,99,cs),
(614,99,o),
(577,141,o),
(577,235,cs),
(577,322,o),
(602,507,o),
(717,507,cs),
(771,507,o),
(816,464,o),
(799,364,c),
(497,364,l),
(497,262,l),
(944,262,l),
(950,299,ls),
(985,517,o),
(875,615,o),
(723,615,cs),
(643,615,o),
(578,576,o),
(544,520,c),
(520,520,l),
(487.16,582.858,o),
(417.044,615,o),
(328,615,cs),
(104,615,o),
(27,408,o),
(27,251,cs),
(27,76,o),
(123,-15,o),
(273,-15,cs)
);
},
{
closed = 1;
nodes = (
(223,93,o),
(193,143,o),
(193,227,cs),
(193,304,o),
(218,507,o),
(346,507,cs),
(405,507,o),
(437,464,o),
(437,375,cs),
(437,296,o),
(412,93,o),
(285,93,cs)
);
}
);
width = 980;
}
);
unicode = 339;
},
{
color = 6;
glyphname = p;
kernLeft = p;
kernRight = b;
lastChange = "2022-02-18 14:13:03 +0000";
layers = (
{
guides = (
{
angle = 260.5377;
pos = (86,300);
},
{
pos = (57,-200);
}
);
hints = (
{
horizontal = 1;
origin = (0,26);
target = up;
type = BottomGhost;
},
{
horizontal = 1;
origin = (0,8);
target = (1,12);
type = Stem;
},
{
horizontal = 1;
origin = (0,14);
target = (1,6);
type = Stem;
},
{
horizontal = 1;
origin = (0,22);
target = (1,6);
type = Stem;
},
{
origin = (1,9);
target = (0,11);
type = Stem;
}
);
layerId = "53F1C36F-0CF6-4FBE-93F4-60C790418F6C";
shapes = (
{
closed = 1;
nodes = (
(111,-200,l),
(131,-60,ls),
(141,12,o),
(144,40,o),
(145,60,c),
(169,60,l),
(185,21,o),
(229,-12,o),
(303,-12,cs),
(472,-12,o),
(590,168,o),
(590,372,cs),
(590,526,o),
(524,612,o),
(406,612,cs),
(315,612,o),
(265,560,o),
(240,510,c),
(216,510,l),
(222,544,o),
(226,574,o),
(226,600,c),
(130,600,l),
(130,577,o),
(122,516,o),
(112,456,cs),
(3,-200,l)
);
},
{
closed = 1;
nodes = (
(239,74,o),
(195,99,o),
(166,132,c),
(182,229,ls),
(208,384,o),
(259,526,o),
(376,526,cs),
(440,526,o),
(480,482,o),
(480,368,cs),
(480,207,o),
(401,74,o),
(286,74,cs)
);
}
);
width = 630;
},
{
guides = (
{
angle = 260.5377;
pos = (74,300);
},
{
angle = 260.5377;
pos = (236,300);
}
);
layerId = "7BD6BBF9-E6B2-4B80-818C-1AB8B5401D18";
shapes = (
{
closed = 1;
nodes = (
(153,-200,l),
(173,-60,ls),
(183,12,o),
(186,40,o),
(187,60,c),
(211,60,l),
(231,22,o),
(269,-12,o),
(347,-12,cs),
(534,-12,o),
(632,195,o),
(632,373,cs),
(632,526,o),
(556,610,o),
(443,610,cs),
(353,610,o),
(303,558,o),
(277,510,c),
(253,510,l),
(258,542,o),
(262,572,o),
(262,600,c),
(118,600,l),
(118,576,o),
(110,516,o),
(100,456,cs),
(-9,-200,l)
);
},
{
closed = 1;
nodes = (
(262,102,o),
(232,115,o),
(208,132,c),
(227,246,ls),
(247,366,o),
(302,490,o),
(385,490,cs),
(433,490,o),
(470,454,o),
(470,367,cs),
(470,225,o),
(404,102,o),
(300,102,cs)
);
}
);
width = 660;
}
);
unicode = 112;
},
{
color = 6;
glyphname = thorn;
kernLeft = b;
kernRight = b;
lastChange = "2022-02-18 14:13:03 +0000";
layers = (
{
guides = (
{
pos = (229,522);
}
);
hints = (
{
horizontal = 1;
origin = (0,18);
target = up;
type = BottomGhost;
},
{
horizontal = 1;
origin = (0,5);
target = (1,12);
type = Stem;
},
{
horizontal = 1;
origin = (0,11);
target = (1,6);
type = Stem;
},
{
horizontal = 1;
origin = (0,17);
target = down;
type = TopGhost;
},
{
origin = (1,9);
target = (0,8);
type = Stem;
}
);
layerId = "53F1C36F-0CF6-4FBE-93F4-60C790418F6C";
shapes = (
{
closed = 1;
nodes = (
(111,-200,l),
(149,54,l),
(173,54,l),
(188,21,o),
(229,-12,o),
(303,-12,cs),
(472,-12,o),
(590,168,o),
(590,372,cs),
(590,526,o),
(524,612,o),
(410,612,cs),
(327,612,o),
(275,565,o),
(247,522,c),
(222,522,l),
(277,800,l),
(169,800,l),
(3,-200,l)
);
},
{
closed = 1;
nodes = (
(239,74,o),
(195,99,o),
(166,132,c),
(182,229,ls),
(208,384,o),
(258,526,o),
(375,526,cs),
(440,526,o),
(480,482,o),
(480,368,cs),
(480,207,o),
(401,74,o),
(286,74,cs)
);
}
);
width = 640;
},
{
layerId = "7BD6BBF9-E6B2-4B80-818C-1AB8B5401D18";
shapes = (
{
closed = 1;
nodes = (
(153,-200,l),
(187,60,l),
(211,60,l),
(231,22,o),
(269,-12,o),
(347,-12,cs),
(534,-12,o),
(632,195,o),
(632,373,cs),
(632,526,o),
(556,610,o),
(443,610,cs),
(353,610,o),
(305,558,o),
(287,522,c),
(263,522,l),
(319,800,l),
(157,800,l),
(-9,-200,l)
);
},
{
closed = 1;
nodes = (
(262,102,o),
(232,115,o),
(208,132,c),
(227,246,ls),
(247,366,o),
(302,490,o),
(385,490,cs),
(433,490,o),
(470,454,o),
(470,367,cs),
(470,225,o),
(404,102,o),
(300,102,cs)
);
}
);
width = 660;
}
);
unicode = 254;
},
{
color = 6;
glyphname = q;
kernLeft = c;
kernRight = q;
lastChange = "2022-02-18 14:13:03 +0000";
layers = (
{
background = {
shapes = (
{
closed = 1;
nodes = (
(465,540,l),
(448,579,o),
(404,612,o),
(330,612,cs),
(159,612,o),
(40,432,o),
(40,228,cs),
(40,74,o),
(104,-12,o),
(220,-12,cs),
(294,-12,o),
(343,25,o),
(374,72,c),
(398,72,l),
(353,-200,l),
(461,-200,l),
(594,600,l),
(498,600,l),
(489,540,l)
);
},
{
closed = 1;
nodes = (
(422,216,o),
(370,74,o),
(254,74,cs),
(190,74,o),
(150,118,o),
(150,232,cs),
(150,393,o),
(229,526,o),
(344,526,cs),
(391,526,o),
(436,504,o),
(465,474,c),
(448,371,ls)
);
}
);
};
guides = (
{
angle = 260.5377;
pos = (436,300);
},
{
angle = 260.5377;
pos = (544,300);
},
{
angle = 260.5377;
pos = (45,300);
}
);
hints = (
{
horizontal = 1;
origin = (0,21);
target = up;
type = BottomGhost;
},
{
horizontal = 1;
origin = (0,13);
target = (1,12);
type = Stem;
},
{
horizontal = 1;
origin = (0,7);
target = (1,5);
type = Stem;
},
{
horizontal = 1;
origin = (0,2);
target = down;
type = TopGhost;
},
{
origin = (0,10);
target = (1,2);
type = Stem;
}
);
layerId = "53F1C36F-0CF6-4FBE-93F4-60C790418F6C";
shapes = (
{
closed = 1;
nodes = (
(461,-200,l),
(594,600,l),
(498,600,l),
(489,540,l),
(465,540,l),
(448,579,o),
(404,612,o),
(330,612,cs),
(159,612,o),
(40,432,o),
(40,228,cs),
(40,74,o),
(104,-12,o),
(220,-12,cs),
(303,-12,o),
(355,35,o),
(389,90,c),
(414,90,l),
(403,48,o),
(397,24,o),
(392,0,cs),
(353,-200,l)
);
},
{
closed = 1;
nodes = (
(190,74,o),
(150,118,o),
(150,232,cs),
(150,393,o),
(229,526,o),
(344,526,cs),
(391,526,o),
(436,504,o),
(465,474,c),
(448,371,ls),
(422,216,o),
(370,74,o),
(254,74,cs)
);
}
);
width = 630;
},
{
guides = (
{
angle = 260.5377;
pos = (34,300);
},
{
angle = 260.5377;
pos = (586,300);
},
{
angle = 260.5377;
pos = (424,300);
},
{
angle = 260.5377;
pos = (492,600);
}
);
layerId = "7BD6BBF9-E6B2-4B80-818C-1AB8B5401D18";
shapes = (
{
closed = 1;
nodes = (
(503,-200,l),
(636,600,l),
(492,600,l),
(482,540,l),
(458,540,l),
(440,578,o),
(401,612,o),
(320,612,cs),
(126,612,o),
(28,405,o),
(28,227,cs),
(28,74,o),
(104,-10,o),
(217,-10,cs),
(307,-10,o),
(355,42,o),
(383,90,c),
(407,90,l),
(396,48,o),
(390,24,o),
(385,0,cs),
(346,-200,l)
);
},
{
closed = 1;
nodes = (
(227,110,o),
(190,146,o),
(190,233,cs),
(190,375,o),
(256,498,o),
(360,498,cs),
(398,498,o),
(428,485,o),
(452,468,c),
(433,354,ls),
(413,234,o),
(358,110,o),
(275,110,cs)
);
}
);
width = 660;
}
);
unicode = 113;
},
{
color = 6;
glyphname = r;
kernLeft = m;
kernRight = r;
lastChange = "2022-02-18 14:13:03 +0000";
layers = (
{
anchors = (
{
name = bottom;
pos = (92,0);
},
{
name = top;
pos = (277,600);
}
);
background = {
shapes = (
{
closed = 1;
nodes = (
(144,0,l),
(190,276,ls),
(218,444,o),
(283,504,o),
(376,504,cs),
(404,504,l),
(421,606,l),
(398,606,ls),
(284,606,o),
(256,546,o),
(238,498,c),
(214,498,l),
(222,540,o),
(224,574,o),
(224,600,c),
(130,600,l),
(130,576,o),
(122,516,o),
(112,456,cs),
(36,0,l)
);
}
);
};
guides = (
{
angle = 260.5377;
pos = (194,300);
},
{
angle = 260.5377;
pos = (86,300);
}
);
hints = (
{
horizontal = 1;
origin = (0,19);
target = up;
type = BottomGhost;
},
{
horizontal = 1;
origin = (0,7);
target = (0,4);
type = Stem;
},
{
horizontal = 1;
origin = (0,15);
target = down;
type = TopGhost;
},
{
origin = (0,15);
target = (0,14);
type = Stem;
}
);
layerId = "53F1C36F-0CF6-4FBE-93F4-60C790418F6C";
shapes = (
{
closed = 1;
nodes = (
(144,0,l),
(190,276,ls),
(218,444,o),
(283,504,o),
(376,504,cs),
(404,504,l),
(421,606,l),
(398,606,ls),
(304,606,o),
(265,564,o),
(238,498,c),
(214,498,l),
(222,540,o),
(224,574,o),
(224,600,c),
(130,600,l),
(130,576,o),
(122,516,o),
(112,456,cs),
(36,0,l)
);
}
);
width = 400;
},
{
anchors = (
{
name = bottom;
pos = (104,0);
},
{
name = top;
pos = (307,600);
}
);
guides = (
{
angle = 260.5377;
pos = (74,300);
},
{
angle = 260.5377;
pos = (236,300);
}
);
layerId = "7BD6BBF9-E6B2-4B80-818C-1AB8B5401D18";
shapes = (
{
closed = 1;
nodes = (
(186,0,l),
(236,300,ls),
(256,420,o),
(292,460,o),
(404,460,cs),
(454,460,l),
(478,606,l),
(440,606,ls),
(338,606,o),
(294,550,o),
(275,498,c),
(251,498,l),
(257,530,o),
(262,572,o),
(262,600,c),
(118,600,l),
(118,576,o),
(110,516,o),
(100,456,cs),
(24,0,l)
);
}
);
width = 450;
}
);
unicode = 114;
},
{
color = 6;
glyphname = s;
kernLeft = s;
kernRight = s;
lastChange = "2022-02-18 14:13:03 +0000";
layers = (
{
anchors = (
{
name = bottom;
pos = (237,0);
},
{
name = top;
pos = (289,594);
}
);
background = {
shapes = (
{
closed = 1;
nodes = (
(342,-15,o),
(440,68,o),
(440,192,cs),
(440,361,o),
(183,323,o),
(183,440,cs),
(183,491,o),
(218,531,o),
(279,531,cs),
(347,531,o),
(365,482,o),
(362,432,c),
(464,432,l),
(474,545,o),
(418,615,o),
(299,615,cs),
(173,615,o),
(79,534,o),
(79,414,cs),
(79,247,o),
(334,280,o),
(334,166,cs),
(334,109,o),
(291,69,o),
(224,69,cs),
(140,69,o),
(113,132,o),
(118,192,c),
(16,192,l),
(1,67,o),
(74,-15,o),
(209,-15,cs)
);
}
);
};
guides = (
{
angle = 13.7608;
pos = (421,432);
},
{
angle = 13.4957;
pos = (50,186);
},
{
angle = 260.5377;
pos = (460,300);
},
{
angle = 260.5377;
pos = (34,300);
},
{
angle = 156.1112;
pos = (314,331);
},
{
angle = 260.5377;
pos = (210,300);
},
{
angle = 260.5377;
pos = (309,300);
},
{
angle = 156.1112;
pos = (206,275);
},
{
angle = 207.4076;
pos = (260,303);
},
{
angle = 66.1112;
pos = (260,303);
},
{
angle = 66.1112;
pos = (220,303);
},
{
angle = 66.1112;
pos = (280,303);
}
);
hints = (
{
horizontal = 1;
origin = (0,39);
target = (0,32);
type = Stem;
},
{
horizontal = 1;
origin = (0,19);
target = (0,12);
type = Stem;
},
{
origin = (0,36);
target = (0,35);
type = Stem;
},
{
origin = (0,29);
target = (0,2);
type = Stem;
},
{
origin = (0,22);
target = (0,9);
type = Stem;
},
{
origin = (0,15);
target = (0,16);
type = Stem;
}
);
layerId = "53F1C36F-0CF6-4FBE-93F4-60C790418F6C";
shapes = (
{
closed = 1;
nodes = (
(370,-15,o),
(449,69,o),
(449,171,cs),
(449,271,o),
(371,308,o),
(298,339,c),
(245,361,l),
(201,379,o),
(174,407,o),
(174,448,cs),
(174,493,o),
(211,531,o),
(275,531,cs),
(348,531,o),
(383,483,o),
(383,420,c),
(479,443,l),
(473,549,o),
(403,615,o),
(284,615,cs),
(150,615,o),
(72,533,o),
(72,435,cs),
(72,342,o),
(139,303,o),
(207,274,c),
(259,252,l),
(316,229,o),
(347,198,o),
(347,156,cs),
(347,111,o),
(314,69,o),
(237,69,cs),
(148,69,o),
(99,129,o),
(99,200,c),
(3,177,l),
(9,64,o),
(98,-15,o),
(232,-15,cs)
);
}
);
width = 500;
},
{
anchors = (
{
name = bottom;
pos = (242,0);
},
{
name = top;
pos = (297,600);
}
);
background = {
shapes = (
{
closed = 1;
nodes = (
(378,-12,o),
(475,65,o),
(475,177,cs),
(475,357,o),
(229,358,o),
(229,450,cs),
(229,478,o),
(252,497,o),
(288,497,cs),
(333,497,o),
(360,463,o),
(373,413,c),
(507,445,l),
(488,543,o),
(418,612,o),
(290,612,cs),
(152,612,o),
(81,532,o),
(81,438,cs),
(81,262,o),
(327,262,o),
(327,161,cs),
(327,125,o),
(296,103,o),
(252,103,cs),
(183,103,o),
(152,158,o),
(142,206,c),
(4,173,l),
(22,93,o),
(86,-12,o),
(244,-12,cs)
);
}
);
};
guides = (
{
angle = 156.2505;
pos = (234,241);
},
{
angle = -23.7495;
pos = (291,372);
},
{
angle = 13.7608;
pos = (431,432);
},
{
angle = 13.4957;
pos = (60,186);
},
{
angle = 90;
pos = (320,148);
},
{
angle = 90;
pos = (470,171);
},
{
angle = 90;
pos = (220,454);
},
{
angle = 90;
pos = (70,435);
},
{
pos = (244,93);
},
{
angle = 90;
pos = (10,177);
},
{
angle = 90;
pos = (154,212);
},
{
angle = 90;
pos = (10,174);
},
{
angle = 90;
pos = (492,443);
},
{
angle = 90;
pos = (348,408);
},
{
pos = (282,507);
}
);
layerId = "7BD6BBF9-E6B2-4B80-818C-1AB8B5401D18";
shapes = (
{
closed = 1;
nodes = (
(388,-15,o),
(477,75,o),
(477,184,cs),
(477,289,o),
(394,330,o),
(314,363,cs),
(266,383,ls),
(237,395,o),
(214,415,o),
(214,447,cs),
(214,479,o),
(237,507,o),
(281,507,cs),
(331,507,o),
(357,472,o),
(357,412,c),
(501,447,l),
(495,549,o),
(418,615,o),
(293,615,cs),
(148,615,o),
(64,528,o),
(64,423,cs),
(64,315,o),
(155,275,o),
(211,251,cs),
(262,229,ls),
(299,213,o),
(327,192,o),
(327,158,cs),
(327,124,o),
(297,99,o),
(253,99,cs),
(194,99,o),
(151,138,o),
(145,209,c),
(1,174,l),
(7,64,o),
(98,-15,o),
(238,-15,cs)
);
}
);
width = 520;
}
);
unicode = 115;
},
{
color = 6;
glyphname = germandbls;
kernLeft = b;
kernRight = s;
lastChange = "2022-02-18 14:13:03 +0000";
layers = (
{
background = {
shapes = (
{
closed = 1;
nodes = (
(547,-12,o),
(652,80,o),
(652,218,cs),
(652,334,o),
(554,389,o),
(444,416,c),
(447,432,l),
(572,472,o),
(675,537,o),
(675,659,cs),
(675,738,o),
(617,806,o),
(442,806,cs),
(168,806,o),
(140,640,o),
(129,570,cs),
(38,0,l),
(146,0,l),
(238,576,ls),
(246,628,o),
(260,718,o),
(431,718,cs),
(522,718,o),
(564,692,o),
(564,644,cs),
(564,553,o),
(467,510,o),
(346,482,c),
(326,356,l),
(434,337,o),
(543,297,o),
(543,201,cs),
(543,124,o),
(490,79,o),
(402,79,cs),
(348,79,o),
(298,95,o),
(263,112,c),
(262,112,l),
(246,14,l),
(283,0,o),
(337,-12,o),
(393,-12,cs)
);
}
);
};
guides = (
{
angle = 260.5377;
pos = (86,300);
},
{
angle = 260.5377;
pos = (194,300);
},
{
angle = 260.5377;
pos = (160,112);
},
{
angle = 260.5377;
pos = (590,300);
},
{
pos = (103,-100);
},
{
pos = (350,456);
},
{
pos = (335,366);
}
);
hints = (
{
horizontal = 1;
origin = (0,24);
target = (0,17);
type = Stem;
},
{
horizontal = 1;
origin = (0,37);
target = (0,4);
type = Stem;
},
{
origin = (0,14);
target = (0,27);
type = Stem;
},
{
origin = (0,7);
target = (0,34);
type = Stem;
}
);
layerId = "53F1C36F-0CF6-4FBE-93F4-60C790418F6C";
shapes = (
{
closed = 1;
nodes = (
(127,-100,l),
(233,534,ls),
(244,602,o),
(286,718,o),
(415,718,cs),
(481,718,o),
(534,687,o),
(534,618,cs),
(534,527,o),
(431,478,o),
(350,456,c),
(335,366,l),
(406,347,o),
(512,309,o),
(512,202,cs),
(512,127,o),
(460,79,o),
(371,79,cs),
(318,79,o),
(268,95,o),
(232,112,c),
(216,14,l),
(253,0,o),
(307,-12,o),
(362,-12,cs),
(517,-12,o),
(621,85,o),
(621,218,cs),
(621,329,o),
(548,379,o),
(457,414,c),
(461,438,l),
(555,462,o),
(645,530,o),
(645,635,cs),
(645,741,o),
(559,806,o),
(424,806,cs),
(207,806,o),
(143,640,o),
(126,540,cs),
(19,-100,l)
);
}
);
width = 660;
},
{
guides = (
{
angle = 260.5377;
pos = (74,300);
},
{
angle = 260.5377;
pos = (236,300);
},
{
angle = 260.5377;
pos = (276,129);
},
{
angle = 260.5377;
pos = (636,300);
}
);
layerId = "7BD6BBF9-E6B2-4B80-818C-1AB8B5401D18";
shapes = (
{
closed = 1;
nodes = (
(170,-100,l),
(271,512,ls),
(289,621,o),
(323,686,o),
(419,686,cs),
(499,686,o),
(525,642,o),
(525,599,cs),
(525,536,o),
(471,494,o),
(369,460,c),
(348,334,l),
(432,314,o),
(501,270,o),
(501,196,cs),
(501,140,o),
(462,103,o),
(394,103,cs),
(356,103,o),
(313,114,o),
(276,129,c),
(257,11,l),
(290,-2,o),
(339,-13,o),
(395,-13,cs),
(558,-13,o),
(663,81,o),
(663,215,cs),
(663,332,o),
(583,382,o),
(485,416,c),
(489,440,l),
(604,469,o),
(687,519,o),
(687,625,cs),
(687,720,o),
(621,806,o),
(441,806,cs),
(178,806,o),
(127,625,o),
(109,516,cs),
(8,-100,l)
);
}
);
width = 700;
}
);
unicode = 223;
},
{
color = 6;
glyphname = t;
kernLeft = t;
kernRight = t;
lastChange = "2022-02-18 14:13:03 +0000";
layers = (
{
anchors = (
{
name = bottom;
pos = (152,0);
},
{
name = center;
pos = (174,300);
},
{
name = top;
pos = (225,600);
},
{
name = topright;
pos = (325,900);
}
);
guides = (
{
angle = 260.5377;
pos = (116,300);
},
{
angle = 260.5377;
pos = (224,300);
}
);
hints = (
{
horizontal = 1;
origin = (0,18);
target = up;
type = BottomGhost;
},
{
horizontal = 1;
origin = (0,12);
target = (0,13);
type = Stem;
},
{
place = (89, 111);
place = (89, 111);
type = Stem;
}
);
layerId = "53F1C36F-0CF6-4FBE-93F4-60C790418F6C";
shapes = (
{
closed = 1;
nodes = (
(216,0,l),
(216,6,l),
(203,49,o),
(193,109,o),
(207,196,cs),
(260,516,l),
(356,516,l),
(370,600,l),
(272,600,l),
(297,750,l),
(193,750,l),
(168,600,l),
(80,600,l),
(66,516,l),
(152,516,l),
(96,179,ls),
(82,94,o),
(88,46,o),
(102,0,c)
);
}
);
width = 350;
},
{
anchors = (
{
name = bottom;
pos = (160,0);
},
{
name = center;
pos = (196,300);
},
{
name = top;
pos = (241,600);
},
{
name = topright;
pos = (362,900);
}
);
guides = (
{
angle = 260.5377;
pos = (100,300);
},
{
angle = 260.5377;
pos = (262,300);
}
);
layerId = "7BD6BBF9-E6B2-4B80-818C-1AB8B5401D18";
shapes = (
{
closed = 1;
nodes = (
(272,0,l),
(272,6,l),
(242,49,o),
(228,99,o),
(244,196,cs),
(293,486,l),
(381,486,l),
(400,600,l),
(308,600,l),
(333,750,l),
(179,750,l),
(154,600,l),
(80,600,l),
(61,486,l),
(131,486,l),
(80,179,ls),
(64,80,o),
(75,39,o),
(98,0,c)
);
}
);
width = 380;
}
);
unicode = 116;
},
{
color = 6;
glyphname = u;
kernLeft = u;
kernRight = u;
lastChange = "2022-02-18 14:13:03 +0000";
layers = (
{
anchors = (
{
name = bottom;
pos = (269,0);
},
{
name = ogonek;
pos = (498,0);
},
{
name = top;
pos = (364,600);
},
{
name = topright;
pos = (650,600);
}
);
background = {
shapes = (
{
closed = 1;
nodes = (
(322,-10,o),
(364,48,o),
(386,90,c),
(410,90,l),
(404,56,o),
(400,26,o),
(400,0,c),
(498,0,l),
(498,24,o),
(506,84,o),
(516,144,cs),
(592,600,l),
(484,600,l),
(436,312,ls),
(414,180,o),
(344,80,o),
(254,80,cs),
(194,80,o),
(155,120,o),
(173,228,cs),
(235,600,l),
(127,600,l),
(66,234,ls),
(39,72,o),
(110,-10,o),
(224,-10,cs)
);
}
);
};
guides = (
{
angle = 2.1409;
pos = (117,206);
}
);
hints = (
{
horizontal = 1;
origin = (0,25);
target = (0,16);
type = Stem;
},
{
horizontal = 1;
origin = (0,21);
target = down;
type = TopGhost;
},
{
horizontal = 1;
origin = (0,6);
target = up;
type = BottomGhost;
},
{
place = (58, 109);
place = (58, 109);
type = Stem;
}
);
layerId = "53F1C36F-0CF6-4FBE-93F4-60C790418F6C";
shapes = (
{
closed = 1;
nodes = (
(300,-10,o),
(348,29,o),
(390,90,c),
(414,90,l),
(408,56,o),
(404,26,o),
(404,0,c),
(500,0,l),
(500,24,o),
(508,84,o),
(518,144,cs),
(594,600,l),
(486,600,l),
(438,312,ls),
(416,180,o),
(353,80,o),
(250,80,cs),
(180,80,o),
(156,126,o),
(170,208,cs),
(236,600,l),
(128,600,l),
(63,204,ls),
(42,78,o),
(88,-10,o),
(213,-10,cs)
);
}
);
width = 630;
},
{
anchors = (
{
name = bottom;
pos = (285,0);
},
{
name = ogonek;
pos = (549,0);
},
{
name = top;
pos = (379,600);
},
{
name = topright;
pos = (637,600);
}
);
background = {
shapes = (
{
closed = 1;
nodes = (
(474,600,l),
(426,312,ls),
(407,200,o),
(356,105,o),
(279,105,cs),
(224,105,o),
(203,152,o),
(217,234,cs),
(278,600,l),
(116,600,l),
(51,211,ls),
(29,78,o),
(93,-14,o),
(220,-14,cs),
(308,-14,o),
(353,30,o),
(383,90,c),
(407,90,l),
(402,58,o),
(398,28,o),
(398,0,c),
(542,0,l),
(542,24,o),
(550,84,o),
(560,144,cs),
(636,600,l)
);
}
);
};
guides = (
{
angle = 260.5377;
pos = (66,300);
},
{
angle = 260.5377;
pos = (586,300);
},
{
angle = 260.5377;
pos = (426,300);
},
{
angle = 260.5377;
pos = (228,300);
},
{
angle = 2.1409;
pos = (117,206);
}
);
layerId = "7BD6BBF9-E6B2-4B80-818C-1AB8B5401D18";
shapes = (
{
closed = 1;
nodes = (
(299,-15,o),
(342,30,o),
(381,90,c),
(405,90,l),
(399,63,o),
(394,27,o),
(392,0,c),
(548,0,l),
(548,53,o),
(553,102,o),
(562,156,cs),
(636,600,l),
(474,600,l),
(426,312,ls),
(407,200,o),
(357,105,o),
(278,105,cs),
(224,105,o),
(203,150,o),
(213,210,cs),
(278,600,l),
(116,600,l),
(50,204,ls),
(26,62,o),
(93,-15,o),
(211,-15,cs)
);
}
);
width = 660;
}
);
unicode = 117;
},
{
color = 6;
glyphname = uhorn;
kernLeft = u;
kernRight = uhorn;
lastChange = "2022-02-18 14:13:03 +0000";
layers = (
{
anchors = (
{
name = bottom;
pos = (269,0);
},
{
name = ogonek;
pos = (498,0);
},
{
name = top;
pos = (364,600);
}
);
guides = (
{
pos = (228,510);
},
{
angle = 80.6279;
pos = (712,299);
}
);
hints = (
{
horizontal = 1;
origin = (0,35);
target = (0,26);
type = Stem;
},
{
horizontal = 1;
origin = (0,31);
target = (0,11);
type = Stem;
},
{
horizontal = 1;
origin = (0,6);
target = up;
type = BottomGhost;
},
{
horizontal = 1;
origin = (0,11);
target = (0,20);
type = Stem;
},
{
place = (58, 109);
place = (58, 109);
type = Stem;
}
);
layerId = "53F1C36F-0CF6-4FBE-93F4-60C790418F6C";
shapes = (
{
closed = 1;
nodes = (
(300,-10,o),
(348,29,o),
(390,90,c),
(414,90,l),
(408,56,o),
(404,26,o),
(404,0,c),
(500,0,l),
(500,24,o),
(508,84,o),
(518,144,cs),
(569,450,l),
(580,450,ls),
(689,450,o),
(754,551,o),
(772,660,c),
(682,660,l),
(668,574,o),
(638,523,o),
(597,510,c),
(573,510,l),
(588,600,l),
(486,600,l),
(438,312,ls),
(416,180,o),
(353,80,o),
(250,80,cs),
(180,80,o),
(156,126,o),
(170,208,cs),
(236,600,l),
(128,600,l),
(63,204,ls),
(42,78,o),
(88,-10,o),
(213,-10,cs)
);
}
);
width = 690;
},
{
anchors = (
{
name = bottom;
pos = (285,0);
},
{
name = ogonek;
pos = (549,0);
},
{
name = top;
pos = (379,600);
}
);
guides = (
{
angle = 80.6279;
pos = (592,444);
}
);
layerId = "7BD6BBF9-E6B2-4B80-818C-1AB8B5401D18";
shapes = (
{
closed = 1;
nodes = (
(299,-14,o),
(342,30,o),
(381,90,c),
(405,90,l),
(399,63,o),
(394,27,o),
(392,0,c),
(548,0,l),
(548,53,o),
(553,102,o),
(562,156,cs),
(610,444,l),
(616,444,ls),
(731,444,o),
(801.235,529.847,o),
(812,660,c),
(691,660,l),
(684.217,605.736,o),
(667,556,o),
(633,544,c),
(609,544,l),
(618,600,l),
(474,600,l),
(426,312,ls),
(407,200,o),
(357,105,o),
(278,105,cs),
(224,105,o),
(203,150,o),
(213,210,cs),
(278,600,l),
(116,600,l),
(50,204,ls),
(26,62,o),
(93,-14,o),
(211,-14,cs)
);
}
);
width = 720;
}
);
unicode = 432;
},
{
color = 6;
glyphname = v;
kernLeft = v;
kernRight = v;
lastChange = "2022-02-18 14:13:03 +0000";
layers = (
{
background = {
shapes = (
{
closed = 1;
nodes = (
(310,0,l),
(582,599,l),
(582,600,l),
(478,600,l),
(252,90,l),
(228,90,l),
(172,600,l),
(68,600,l),
(68,599,l),
(140,0,l)
);
}
);
};
hints = (
{
horizontal = 1;
origin = (0,9);
target = (0,5);
type = Stem;
},
{
horizontal = 1;
origin = (0,7);
target = down;
type = TopGhost;
}
);
layerId = "53F1C36F-0CF6-4FBE-93F4-60C790418F6C";
shapes = (
{
closed = 1;
nodes = (
(310,0,l),
(582,594,l),
(582,600,l),
(478,600,l),
(252,90,l),
(228,90,l),
(172,600,l),
(68,600,l),
(68,594,l),
(140,0,l)
);
}
);
width = 550;
},
{
layerId = "7BD6BBF9-E6B2-4B80-818C-1AB8B5401D18";
shapes = (
{
closed = 1;
nodes = (
(380,0,l),
(638,599,l),
(638,600,l),
(481,600,l),
(287,132,l),
(263,132,l),
(216,600,l),
(62,600,l),
(62,599,l),
(130,0,l)
);
}
);
width = 600;
}
);
unicode = 118;
},
{
color = 6;
glyphname = w;
kernLeft = w;
kernRight = w;
lastChange = "2022-02-18 14:13:03 +0000";
layers = (
{
anchors = (
{
name = bottom;
pos = (393,0);
},
{
name = top;
pos = (488,600);
}
);
background = {
shapes = (
{
closed = 1;
nodes = (
(276,0,l),
(465,514,l),
(489,514,l),
(510,0,l),
(685,0,l),
(888,599,l),
(888,600,l),
(792,600,l),
(623,90,l),
(599,90,l),
(580,600,l),
(402,600,l),
(220,90,l),
(196,90,l),
(190,600,l),
(92,600,l),
(92,599,l),
(101,0,l)
);
}
);
};
hints = (
{
horizontal = 1;
origin = (0,17);
target = (0,13);
type = Stem;
},
{
horizontal = 1;
origin = (0,15);
target = (0,1);
type = Stem;
},
{
place = (95.5, 96);
place = (95.5, 96);
type = Stem;
},
{
place = (498.5, 85.5);
place = (498.5, 85.5);
type = Stem;
}
);
layerId = "53F1C36F-0CF6-4FBE-93F4-60C790418F6C";
shapes = (
{
closed = 1;
nodes = (
(273,1,l),
(464,515,l),
(488,515,l),
(509,1,l),
(683,1,l),
(888,600,l),
(888,601,l),
(788,601,l),
(616,91,l),
(592,91,l),
(576,601,l),
(402,601,l),
(217,91,l),
(193,91,l),
(190,601,l),
(92,601,l),
(92,600,l),
(99,1,l)
);
}
);
width = 880;
},
{
anchors = (
{
name = bottom;
pos = (434,0);
},
{
name = top;
pos = (534,600);
}
);
layerId = "7BD6BBF9-E6B2-4B80-818C-1AB8B5401D18";
shapes = (
{
closed = 1;
nodes = (
(340,0,l),
(495,483,l),
(519,483,l),
(524,0,l),
(788,0,l),
(972,599,l),
(972,600,l),
(830,600,l),
(685,120,l),
(661,120,l),
(658,600,l),
(404,600,l),
(245,120,l),
(221,120,l),
(232,600,l),
(90,600,l),
(90,599,l),
(79,0,l)
);
}
);
width = 960;
}
);
unicode = 119;
},
{
color = 6;
glyphname = x;
kernLeft = x;
kernRight = x;
lastChange = "2022-02-18 14:13:03 +0000";
layers = (
{
guides = (
{
angle = 53.5946;
pos = (446,460);
}
);
hints = (
{
horizontal = 1;
origin = (0,17);
target = up;
type = BottomGhost;
},
{
horizontal = 1;
origin = (0,1);
target = (0,11);
type = Stem;
},
{
horizontal = 1;
origin = (0,13);
target = down;
type = TopGhost;
}
);
layerId = "53F1C36F-0CF6-4FBE-93F4-60C790418F6C";
shapes = (
{
closed = 1;
nodes = (
(81,0,l),
(248,244,l),
(272,244,l),
(367,0,l),
(478,0,l),
(478,6,l),
(345,316,l),
(548,594,l),
(548,600,l),
(437,600,l),
(297,394,l),
(273,394,l),
(189,600,l),
(84,600,l),
(84,594,l),
(199,323,l),
(-35,6,l),
(-35,0,l)
);
}
);
width = 540;
},
{
layerId = "7BD6BBF9-E6B2-4B80-818C-1AB8B5401D18";
shapes = (
{
closed = 1;
nodes = (
(132,0,l),
(273,210,l),
(297,210,l),
(372,0,l),
(538,0,l),
(538,6,l),
(415.814,312.281,l),
(614,594,l),
(614,600,l),
(450,600,l),
(332,420,l),
(307,420,l),
(245,600,l),
(80,600,l),
(80,594,l),
(191.241,322.165,l),
(-38,6,l),
(-38,0,l)
);
}
);
width = 600;
}
);
unicode = 120;
},
{
color = 6;
glyphname = y;
kernLeft = y;
kernRight = y;
lastChange = "2022-02-18 14:13:03 +0000";
layers = (
{
anchors = (
{
name = bottom;
pos = (365,0);
},
{
name = top;
pos = (323,600);
}
);
guides = (
{
angle = 242.9829;
pos = (371,398);
},
{
angle = 62.8919;
pos = (453,348);
},
{
angle = -78.8835;
pos = (122,315);
},
{
angle = 100.9276;
pos = (211,398);
}
);
hints = (
{
horizontal = 1;
origin = (0,20);
target = up;
type = BottomGhost;
},
{
horizontal = 1;
origin = (0,15);
target = down;
type = TopGhost;
}
);
layerId = "53F1C36F-0CF6-4FBE-93F4-60C790418F6C";
shapes = (
{
closed = 1;
nodes = (
(150,-200,l),
(191,-145,o),
(250,-49,o),
(324,96,cs),
(582,600,l),
(474,600,l),
(328,301,ls),
(311,266,o),
(292,227,o),
(274,176,c),
(250,176,l),
(245,217,o),
(238,259,o),
(230,300,cs),
(172,600,l),
(66,600,l),
(178,30,l),
(134,-54,o),
(78,-140,o),
(30,-194,c),
(30,-200,l)
);
}
);
width = 550;
},
{
anchors = (
{
name = bottom;
pos = (412,0);
},
{
name = top;
pos = (337,600);
}
);
guides = (
{
angle = 244.7519;
pos = (379,424);
},
{
angle = 99.3567;
pos = (243,424);
},
{
angle = -80.5377;
pos = (108,300);
},
{
angle = 64.0989;
pos = (502,357);
}
);
layerId = "7BD6BBF9-E6B2-4B80-818C-1AB8B5401D18";
shapes = (
{
closed = 1;
nodes = (
(204,-200,l),
(243,-147,o),
(312,-34,o),
(384,114,cs),
(620,600,l),
(462,600,l),
(351,360,ls),
(335,325,o),
(315,276,o),
(294,204,c),
(270,204,l),
(268,276,o),
(260,318,o),
(253,359,cs),
(214,600,l),
(58,600,l),
(165.473,14.963,l),
(131.145,-55.025,o),
(78.619,-133.89,o),
(30,-194,c),
(30,-200,l)
);
}
);
width = 580;
}
);
unicode = 121;
},
{
color = 6;
glyphname = z;
kernLeft = z;
kernRight = z;
lastChange = "2022-02-18 14:13:03 +0000";
layers = (
{
anchors = (
{
name = bottom;
pos = (216,0);
},
{
name = top;
pos = (318,600);
}
);
guides = (
{
angle = 260.5377;
pos = (48,300);
},
{
angle = 260.5377;
pos = (482,300);
},
{
angle = 260.5377;
pos = (372,516);
},
{
angle = 260.5377;
pos = (78,300);
},
{
angle = 260.5377;
pos = (467,300);
}
);
hints = (
{
horizontal = 1;
origin = (0,17);
target = (0,2);
type = Stem;
},
{
horizontal = 1;
origin = (0,9);
target = (0,10);
type = Stem;
}
);
layerId = "53F1C36F-0CF6-4FBE-93F4-60C790418F6C";
shapes = (
{
closed = 1;
nodes = (
(432,0,l),
(446,84,l),
(131,84,l),
(135,108,l),
(160,124,o),
(179,144,o),
(216,184,cs),
(500,498,l),
(517,600,l),
(113,600,l),
(99,516,l),
(384,516,l),
(380,492,l),
(355,476,o),
(336,456,o),
(299,416,cs),
(15,102,l),
(-2,0,l)
);
}
);
width = 530;
},
{
anchors = (
{
name = bottom;
pos = (226,0);
},
{
name = top;
pos = (329,600);
}
);
guides = (
{
angle = 260.5377;
pos = (514,300);
},
{
angle = 260.5377;
pos = (36,300);
},
{
pos = (-3,129);
},
{
pos = (537,471);
}
);
layerId = "7BD6BBF9-E6B2-4B80-818C-1AB8B5401D18";
shapes = (
{
closed = 1;
nodes = (
(464,0,l),
(483,114,l),
(194,114,l),
(198,138,l),
(223,154,o),
(241,175,o),
(279,214,cs),
(530,471,l),
(552,600,l),
(101,600,l),
(82,486,l),
(344,486,l),
(340,462,l),
(315,446,o),
(297,425,o),
(259,386,cs),
(8,129,l),
(-14,0,l)
);
}
);
width = 550;
}
);
unicode = 122;
},
{
color = 6;
export = 0;
glyphname = d.croat;
kernLeft = c;
kernRight = d;
lastChange = "2022-02-18 14:13:03 +0000";
layers = (
{
anchors = (
{
name = bottom;
pos = (281,0);
},
{
name = center;
pos = (525,700);
},
{
name = top;
pos = (409,800);
},
{
name = topright;
pos = (627,800);
}
);
background = {
shapes = (
{
closed = 1;
nodes = (
(315,-12,o),
(368,40,o),
(398,100,c),
(423,100,l),
(417,65,o),
(414,26,o),
(414,0,c),
(510,0,l),
(510,31,o),
(513,113,o),
(521,161,cs),
(594,600,l),
(498,600,l),
(489,540,l),
(465,540,l),
(448,579,o),
(404,612,o),
(330,612,cs),
(159,612,o),
(40,432,o),
(40,228,cs),
(40,74,o),
(106,-12,o),
(224,-12,cs)
);
},
{
closed = 1;
nodes = (
(190,74,o),
(150,118,o),
(150,232,cs),
(150,393,o),
(229,526,o),
(344,526,cs),
(391,526,o),
(436,504,o),
(465,474,c),
(448,371,ls),
(422,216,o),
(370,74,o),
(254,74,cs)
);
}
);
};
guides = (
{
pos = (571,800);
},
{
angle = 81.1057;
pos = (521,481);
},
{
angle = 260.5377;
pos = (436,300);
},
{
angle = 260.5377;
pos = (544,300);
},
{
pos = (464,540);
}
);
hints = (
{
horizontal = 1;
origin = (0,23);
target = (1,12);
type = Stem;
},
{
horizontal = 1;
origin = (0,17);
target = (1,5);
type = Stem;
},
{
horizontal = 1;
origin = (0,12);
target = down;
type = TopGhost;
},
{
horizontal = 1;
origin = (0,6);
target = up;
type = BottomGhost;
},
{
origin = (0,20);
target = (1,2);
type = Stem;
},
{
origin = (0,6);
target = (0,7);
type = Stem;
}
);
layerId = "53F1C36F-0CF6-4FBE-93F4-60C790418F6C";
shapes = (
{
closed = 1;
nodes = (
(315,-12,o),
(368,40,o),
(398,100,c),
(423,100,l),
(417,65,o),
(414,26,o),
(414,0,c),
(510,0,l),
(510,31,o),
(513,113,o),
(521,161,cs),
(627,800,l),
(531,800,l),
(497,540,l),
(473,540,l),
(457,579,o),
(411,612,o),
(335,612,cs),
(161,612,o),
(40,432,o),
(40,228,cs),
(40,74,o),
(106,-12,o),
(224,-12,cs)
);
},
{
closed = 1;
nodes = (
(190,74,o),
(150,118,o),
(150,232,cs),
(150,393,o),
(229,526,o),
(344,526,cs),
(391,526,o),
(435,501,o),
(464,468,c),
(448,371,ls),
(422,216,o),
(370,74,o),
(254,74,cs)
);
}
);
width = 630;
},
{
anchors = (
{
name = bottom;
pos = (283,0);
},
{
name = center;
pos = (536,700);
},
{
name = top;
pos = (412,800);
},
{
name = topright;
pos = (669,800);
}
);
guides = (
{
angle = 260.5377;
pos = (32,300);
},
{
angle = 260.5377;
pos = (586,300);
},
{
angle = 260.5377;
pos = (492,300);
}
);
layerId = "7BD6BBF9-E6B2-4B80-818C-1AB8B5401D18";
shapes = (
{
closed = 1;
nodes = (
(307,-10,o),
(355,42,o),
(381,90,c),
(405,90,l),
(399,63,o),
(394,27,o),
(392,0,c),
(548,0,l),
(548,53,o),
(553,102,o),
(562,156,cs),
(669,800,l),
(519,800,l),
(485,540,l),
(461,540,l),
(440,578,o),
(401,612,o),
(321,612,cs),
(129,612,o),
(28,405,o),
(28,227,cs),
(28,74,o),
(104,-10,o),
(217,-10,cs)
);
},
{
closed = 1;
nodes = (
(227,110,o),
(190,146,o),
(190,233,cs),
(190,375,o),
(256,498,o),
(360,498,cs),
(398,498,o),
(428,485,o),
(452,468,c),
(433,354,ls),
(413,234,o),
(358,110,o),
(275,110,cs)
);
}
);
width = 660;
}
);
},
{
color = 6;
glyphname = ordfeminine;
lastChange = "2022-02-18 14:13:03 +0000";
layers = (
{
guides = (
{
angle = 80.7274;
pos = (355,756);
}
);
hints = (
{
horizontal = 1;
origin = (0,23);
target = (1,12);
type = Stem;
},
{
horizontal = 1;
origin = (0,17);
target = (1,5);
type = Stem;
},
{
horizontal = 1;
origin = (0,2);
target = (1,12);
type = Stem;
},
{
horizontal = 1;
origin = (0,6);
target = (1,12);
type = Stem;
},
{
horizontal = 1;
origin = (0,12);
target = (1,5);
type = Stem;
},
{
horizontal = 1;
origin = (1,5);
target = (0,14);
type = Stem;
},
{
origin = (0,20);
target = (1,2);
type = Stem;
},
{
origin = (0,6);
target = (0,7);
type = Stem;
}
);
layerId = "53F1C36F-0CF6-4FBE-93F4-60C790418F6C";
shapes = (
{
closed = 1;
nodes = (
(239,411,o),
(267,431,o),
(285,469,c),
(309,469,l),
(306,455,o),
(303,434,o),
(303,420,c),
(399,420,l),
(399,461,o),
(403,507,o),
(410,548,cs),
(449,780,l),
(359,780,l),
(353,743,l),
(329,743,l),
(322,768,o),
(299,789,o),
(252,789,cs),
(139,789,o),
(76,669,o),
(76,557,cs),
(76,465,o),
(118,411,o),
(193,411,cs)
);
},
{
closed = 1;
nodes = (
(184,477,o),
(163,504,o),
(163,564,cs),
(163,651,o),
(208,723,o),
(277,723,cs),
(303,723,o),
(328,712,o),
(344,690,c),
(336,637,ls),
(323,553,o),
(290,477,o),
(224,477,cs)
);
}
);
width = 440;
},
{
layerId = "7BD6BBF9-E6B2-4B80-818C-1AB8B5401D18";
shapes = (
{
closed = 1;
nodes = (
(224,411,o),
(254,429,o),
(270,463,c),
(294,463,l),
(291,449,o),
(290,434,o),
(290,420,c),
(413,420,l),
(413,463,o),
(417,507,o),
(424,548,cs),
(463,780,l),
(347,780,l),
(340,737,l),
(316,737,l),
(309,768,o),
(283,789,o),
(244,789,cs),
(131,789,o),
(66,668,o),
(66,546,cs),
(66,465,o),
(102,411,o),
(182,411,cs)
);
},
{
closed = 1;
nodes = (
(206,505,o),
(187,523,o),
(187,571,cs),
(187,636,o),
(221,695,o),
(278,695,cs),
(293,695,o),
(314,691,o),
(328,680,c),
(318,627,ls),
(307,567,o),
(279,505,o),
(232,505,cs)
);
}
);
width = 440;
}
);
unicode = 170;
},
{
color = 6;
glyphname = ordmasculine;
lastChange = "2022-02-18 14:13:03 +0000";
layers = (
{
hints = (
{
horizontal = 1;
origin = (0,11);
target = (1,11);
type = Stem;
},
{
horizontal = 1;
origin = (0,5);
target = (1,5);
type = Stem;
},
{
origin = (0,8);
target = (1,2);
type = Stem;
},
{
origin = (1,8);
target = (0,2);
type = Stem;
}
);
layerId = "53F1C36F-0CF6-4FBE-93F4-60C790418F6C";
shapes = (
{
closed = 1;
nodes = (
(367,411,o),
(424,521,o),
(424,625,cs),
(424,728,o),
(369,789,o),
(268,789,cs),
(134,789,o),
(76,680,o),
(76,575,cs),
(76,472,o),
(132,411,o),
(232,411,cs)
);
},
{
closed = 1;
nodes = (
(187,477,o),
(161,508,o),
(161,569,cs),
(161,614,o),
(175,723,o),
(266,723,cs),
(313,723,o),
(339,693,o),
(339,630,cs),
(339,586,o),
(326,477,o),
(235,477,cs)
);
}
);
width = 400;
},
{
layerId = "7BD6BBF9-E6B2-4B80-818C-1AB8B5401D18";
shapes = (
{
closed = 1;
nodes = (
(383,411,o),
(446,510,o),
(446,622,cs),
(446,735,o),
(381,789,o),
(277,789,cs),
(133,789,o),
(74,686,o),
(74,579,cs),
(74,466,o),
(139,411,o),
(243,411,cs)
);
},
{
closed = 1;
nodes = (
(218,498,o),
(191,513,o),
(191,570,cs),
(191,604,o),
(201,702,o),
(274,702,cs),
(302,702,o),
(329,688,o),
(329,631,cs),
(329,596,o),
(319,498,o),
(247,498,cs)
);
}
);
width = 420;
}
);
unicode = 186;
},
{
color = 6;
glyphname = one;
lastChange = "2022-02-18 14:13:03 +0000";
layers = (
{
guides = (
{
angle = 260.5377;
pos = (292,300);
},
{
angle = 260.5377;
pos = (400,300);
},
{
angle = 260.5377;
pos = (120,300);
},
{
angle = 260.5377;
pos = (574,300);
}
);
hints = (
{
horizontal = 1;
origin = (0,13);
target = (0,12);
type = Stem;
},
{
horizontal = 1;
place = (550, 79);
place = (550, 79);
type = Stem;
},
{
horizontal = 1;
origin = (0,4);
target = down;
type = TopGhost;
}
);
layerId = "53F1C36F-0CF6-4FBE-93F4-60C790418F6C";
shapes = (
{
closed = 1;
nodes = (
(524,0,l),
(538,86,l),
(364,86,l),
(480,780,l),
(398,780,l),
(354,647,o),
(304,633,o),
(227,630,cs),
(175,628,l),
(162,550,l),
(334,550,l),
(256,86,l),
(70,86,l),
(56,0,l)
);
}
);
width = 680;
},
{
guides = (
{
angle = 260.5377;
pos = (429,300);
},
{
angle = 260.5377;
pos = (267,300);
},
{
angle = 260.5377;
pos = (82,300);
},
{
angle = 260.5377;
pos = (598,300);
}
);
layerId = "7BD6BBF9-E6B2-4B80-818C-1AB8B5401D18";
shapes = (
{
closed = 1;
nodes = (
(548,0,l),
(568,122,l),
(399,122,l),
(509,780,l),
(375,780,l),
(338,669,o),
(293,651,o),
(204,644,cs),
(156,640,l),
(139,532,l),
(306,532,l),
(237,122,l),
(53,122,l),
(33,0,l)
);
}
);
width = 680;
}
);
unicode = 49;
},
{
color = 6;
glyphname = zero.lf;
lastChange = "2022-02-18 14:13:03 +0000";
layers = (
{
background = {
shapes = (
{
closed = 1;
nodes = (
(581,-14,o),
(659,328,o),
(659,521,cs),
(659,694,o),
(584,794,o),
(422,794,cs),
(132,794,o),
(51,456,o),
(51,260,cs),
(51,86,o),
(127,-14,o),
(288,-14,cs)
);
},
{
closed = 1;
nodes = (
(208,72,o),
(164,135,o),
(164,258,cs),
(164,403,o),
(229,708,o),
(408,708,cs),
(502,708,o),
(546,645,o),
(546,522,cs),
(546,377,o),
(481,72,o),
(302,72,cs)
);
}
);
};
guides = (
{
angle = 260.5377;
pos = (48,300);
},
{
angle = 260.5377;
pos = (632,300);
}
);
hints = (
{
horizontal = 1;
origin = (0,11);
target = (1,11);
type = Stem;
},
{
horizontal = 1;
origin = (0,5);
target = (1,5);
type = Stem;
},
{
origin = (0,8);
target = (1,2);
type = Stem;
},
{
origin = (1,8);
target = (0,2);
type = Stem;
}
);
layerId = "53F1C36F-0CF6-4FBE-93F4-60C790418F6C";
shapes = (
{
closed = 1;
nodes = (
(587,-14,o),
(655,315,o),
(655,488,cs),
(655,686,o),
(565,794,o),
(404,794,cs),
(126,794,o),
(55,469,o),
(55,294,cs),
(55,95,o),
(146,-14,o),
(307,-14,cs)
);
},
{
closed = 1;
nodes = (
(217,76,o),
(167,148,o),
(167,278,cs),
(167,407,o),
(216,704,o),
(402,704,cs),
(493,704,o),
(543,633,o),
(543,502,cs),
(543,373,o),
(494,76,o),
(308,76,cs)
);
}
);
width = 680;
},
{
background = {
shapes = (
{
closed = 1;
nodes = (
(589,-14,o),
(672,317,o),
(672,516,cs),
(672,692,o),
(592,794,o),
(422,794,cs),
(121,794,o),
(38,463,o),
(38,265,cs),
(38,88,o),
(119,-14,o),
(288,-14,cs)
);
},
{
closed = 1;
nodes = (
(238,106,o),
(205,158,o),
(205,261,cs),
(205,376,o),
(263,674,o),
(402,674,cs),
(472,674,o),
(505,622,o),
(505,519,cs),
(505,404,o),
(447,106,o),
(308,106,cs)
);
}
);
};
guides = (
{
angle = 260.5377;
pos = (34,300);
},
{
angle = 260.5377;
pos = (646,300);
}
);
layerId = "7BD6BBF9-E6B2-4B80-818C-1AB8B5401D18";
shapes = (
{
closed = 1;
nodes = (
(593,-14,o),
(668,299,o),
(668,480,cs),
(668,688,o),
(568,794,o),
(402,794,cs),
(117,794,o),
(42,480,o),
(42,301,cs),
(42,94,o),
(142,-14,o),
(309,-14,cs)
);
},
{
closed = 1;
nodes = (
(242,112,o),
(208,173,o),
(208,271,cs),
(208,382,o),
(252,668,o),
(399,668,cs),
(469,668,o),
(502,607,o),
(502,510,cs),
(502,400,o),
(459,112,o),
(312,112,cs)
);
}
);
width = 680;
}
);
},
{
color = 6;
glyphname = one.lf;
kernLeft = one;
kernRight = one;
lastChange = "2022-02-18 14:13:03 +0000";
layers = (
{
guides = (
{
angle = 260.5377;
pos = (45,571);
},
{
angle = 260.5377;
pos = (275,300);
}
);
hints = (
{
horizontal = 1;
origin = (0,8);
target = up;
type = BottomGhost;
},
{
horizontal = 1;
origin = (0,2);
target = down;
type = TopGhost;
},
{
horizontal = 1;
origin = (0,2);
target = (0,6);
type = Stem;
},
{
origin = (0,6);
target = (0,1);
type = Stem;
}
);
layerId = "53F1C36F-0CF6-4FBE-93F4-60C790418F6C";
shapes = (
{
closed = 1;
nodes = (
(225,0,l),
(355,780,l),
(271,780,l),
(239,678,o),
(207,652,o),
(94,646,c),
(81,571,l),
(212,571,l),
(117,0,l)
);
}
);
width = 390;
},
{
guides = (
{
angle = 260.5377;
pos = (164,300);
},
{
angle = 260.5377;
pos = (326,300);
},
{
angle = 260.5377;
pos = (36,300);
}
);
layerId = "7BD6BBF9-E6B2-4B80-818C-1AB8B5401D18";
shapes = (
{
closed = 1;
nodes = (
(276,0,l),
(406,780,l),
(268,780,l),
(235,678,o),
(196,659,o),
(94,650,c),
(78,550,l),
(206,550,l),
(114,0,l)
);
}
);
width = 440;
}
);
},
{
color = 6;
glyphname = two.lf;
kernLeft = two;
kernRight = two;
lastChange = "2022-02-18 14:13:03 +0000";
layers = (
{
guides = (
{
angle = 260.5377;
pos = (60,300);
},
{
angle = 260.5377;
pos = (580,300);
},
{
angle = 162.5042;
pos = (153,550);
},
{
angle = 137.4471;
pos = (336,265);
},
{
angle = 37.7468;
pos = (360,243);
}
);
hints = (
{
horizontal = 1;
origin = (0,29);
target = (0,2);
type = Stem;
},
{
horizontal = 1;
origin = (0,12);
target = (0,19);
type = Stem;
},
{
origin = (0,22);
target = (0,9);
type = Stem;
}
);
layerId = "53F1C36F-0CF6-4FBE-93F4-60C790418F6C";
shapes = (
{
closed = 1;
nodes = (
(530,0,l),
(546,94,l),
(159,94,l),
(162,114,l),
(226,149,o),
(290,188,o),
(360,243,cs),
(516,364,o),
(604,468,o),
(604,593,cs),
(604,726,o),
(504,794,o),
(376,794,cs),
(230,794,o),
(138,705,o),
(106,565,c),
(200,535,l),
(219,637,o),
(274,704,o),
(369,704,cs),
(443,704,o),
(496,660,o),
(496,586,cs),
(496,496,o),
(422,413,o),
(294,307,cs),
(229,253,o),
(109,161,o),
(27,100,c),
(10,0,l)
);
}
);
width = 640;
},
{
background = {
shapes = (
{
pos = (-40,0);
ref = zero.lf;
}
);
};
guides = (
{
angle = 162.5042;
pos = (219,525);
},
{
angle = 137.4471;
pos = (313,322);
},
{
angle = 260.5377;
pos = (34,300);
}
);
layerId = "7BD6BBF9-E6B2-4B80-818C-1AB8B5401D18";
shapes = (
{
closed = 1;
nodes = (
(556,0,l),
(578,132,l),
(224,132,l),
(226,156,l),
(302,195,o),
(340,218,o),
(393,257,cs),
(489,327,o),
(628,433,o),
(628,582,cs),
(628,705,o),
(534,794,o),
(384,794,cs),
(230,794,o),
(130,700,o),
(83,568,c),
(219,525,l),
(238,595,o),
(280,668,o),
(362,668,cs),
(424,668,o),
(466,629,o),
(466,571,cs),
(466,481,o),
(366,402,o),
(292,344,cs),
(236,300,o),
(139,226,o),
(7,138,c),
(-16,0,l)
);
}
);
width = 640;
}
);
},
{
color = 6;
glyphname = three.lf;
kernLeft = three;
kernRight = three;
lastChange = "2022-02-18 14:13:03 +0000";
layers = (
{
background = {
shapes = (
{
closed = 1;
nodes = (
(472,-13,o),
(581,101,o),
(581,245,cs),
(581,354,o),
(518,434,o),
(400,466,c),
(403,490,l),
(625,681,l),
(640,780,l),
(164,780,l),
(148,686,l),
(474,686,l),
(470,662,l),
(265,486,l),
(250,396,l),
(278,394,ls),
(403,385,o),
(473,327,o),
(473,235,cs),
(473,153,o),
(416,77,o),
(307,77,cs),
(208,77,o),
(140,148,o),
(131,240,c),
(29,214,l),
(37,79,o),
(148,-13,o),
(300,-13,cs)
);
}
);
};
guides = (
{
angle = 260.5377;
pos = (40,300);
},
{
angle = 260.5377;
pos = (592,300);
},
{
angle = 260.5377;
pos = (234,300);
},
{
angle = 27.0611;
pos = (70,200);
},
{
angle = 220.5304;
pos = (265,486);
},
{
angle = 80.2176;
pos = (468,672);
},
{
angle = 261.8699;
pos = (398,460);
},
{
angle = 194.3003;
pos = (79,227);
},
{
angle = 40.6013;
pos = (515,586);
},
{
angle = 80.3401;
pos = (156,733);
},
{
angle = 260.5377;
pos = (640,300);
}
);
hints = (
{
horizontal = 1;
origin = (0,31);
target = (0,24);
type = Stem;
},
{
horizontal = 1;
origin = (0,9);
target = (0,10);
type = Stem;
},
{
origin = (0,28);
target = (0,27);
type = Stem;
},
{
origin = (0,21);
target = (0,2);
type = Stem;
}
);
layerId = "53F1C36F-0CF6-4FBE-93F4-60C790418F6C";
shapes = (
{
closed = 1;
nodes = (
(472,-13,o),
(581,101,o),
(581,245,cs),
(581,354,o),
(518,432,o),
(385,453,c),
(388,477,l),
(625,681,l),
(640,780,l),
(164,780,l),
(149,690,l),
(491,690,l),
(487,666,l),
(451,644,o),
(429,627,o),
(398,600,cs),
(265,486,l),
(250,396,l),
(278,394,ls),
(403,385,o),
(473,327,o),
(473,235,cs),
(473,153,o),
(416,77,o),
(307,77,cs),
(208,77,o),
(140,148,o),
(131,240,c),
(29,214,l),
(37,79,o),
(148,-13,o),
(300,-13,cs)
);
}
);
width = 640;
},
{
background = {
shapes = (
{
closed = 1;
nodes = (
(465,-12,o),
(612,97,o),
(612,270,cs),
(612,369,o),
(550,434,o),
(437,450,c),
(441,474,l),
(639,641,l),
(662,780,l),
(152,780,l),
(130,646,l),
(442,646,l),
(438,622,l),
(259,464,l),
(241,352,l),
(273,352,ls),
(378,352,o),
(440,317,o),
(440,247,cs),
(440,185,o),
(397,113,o),
(298,113,cs),
(206,113,o),
(173,173,o),
(178,240,c),
(20,240,l),
(10,110,o),
(74,-12,o),
(278,-12,cs)
);
}
);
};
guides = (
{
angle = 260.5377;
pos = (620,300);
},
{
angle = 260.5377;
pos = (30,300);
},
{
angle = 14.0362;
pos = (94,230);
},
{
angle = 260.5377;
pos = (582,300);
},
{
pos = (359,564);
}
);
layerId = "7BD6BBF9-E6B2-4B80-818C-1AB8B5401D18";
shapes = (
{
closed = 1;
nodes = (
(476,-13,o),
(607,87,o),
(607,239,cs),
(607,344,o),
(544,416,o),
(417,443,c),
(421,467,l),
(640,648,l),
(662,780,l),
(152,780,l),
(132,654,l),
(452,654,l),
(448,630,l),
(412,608,o),
(390,590,o),
(359,564,cs),
(248,470,l),
(232,360,l),
(277,357,ls),
(377,350,o),
(445,310,o),
(445,234,cs),
(445,176,o),
(408,113,o),
(312,113,cs),
(228,113,o),
(174,162,o),
(167,248,c),
(23,212,l),
(33,74,o),
(149,-13,o),
(309,-13,cs)
);
}
);
width = 660;
}
);
},
{
color = 6;
glyphname = four.lf;
kernLeft = four;
kernRight = four;
lastChange = "2022-02-18 14:13:03 +0000";
layers = (
{
background = {
shapes = (
{
closed = 1;
nodes = (
(589,198,l),
(604,289,l),
(156,289,l),
(160,313,l),
(553,776,l),
(554,780,l),
(440,780,l),
(34,301,l),
(17,198,l)
);
},
{
closed = 1;
nodes = (
(432,0,l),
(502,420,l),
(398,420,l),
(328,0,l)
);
}
);
};
guides = (
{
angle = 260.5377;
pos = (606,300);
},
{
angle = 260.5377;
pos = (34,300);
},
{
pos = (162,399);
},
{
angle = 260.5377;
pos = (597,243);
},
{
angle = 226.2759;
pos = (257,551);
}
);
hints = (
{
horizontal = 1;
origin = (1,7);
target = up;
type = BottomGhost;
},
{
horizontal = 1;
origin = (0,11);
target = (0,2);
type = Stem;
},
{
horizontal = 1;
origin = (0,9);
target = down;
type = TopGhost;
}
);
layerId = "53F1C36F-0CF6-4FBE-93F4-60C790418F6C";
shapes = (
{
closed = 1;
nodes = (
(588,195,l),
(603,285,l),
(134,285,l),
(138,309,l),
(182,339,o),
(215,366,o),
(246,399,cs),
(608,774,l),
(608,780,l),
(476,780,l),
(37,318,l),
(17,195,l)
);
},
{
closed = 1;
nodes = (
(444,0,l),
(484,240,l),
(483,240,l),
(513,420,l),
(411,420,l),
(381,240,l),
(380,240,l),
(340,0,l)
);
}
);
width = 640;
},
{
guides = (
{
angle = 260.5377;
pos = (336,0);
},
{
angle = 260.5377;
pos = (572,420);
},
{
angle = 226.2759;
pos = (674,774);
},
{
angle = 226.2759;
pos = (257,551);
},
{
pos = (319,415);
}
);
layerId = "7BD6BBF9-E6B2-4B80-818C-1AB8B5401D18";
shapes = (
{
closed = 1;
nodes = (
(619,179,l),
(639,301,l),
(213,301,l),
(217,325,l),
(255,355,o),
(288,381,o),
(319,415,cs),
(656,774,l),
(656,780,l),
(464,780,l),
(32,313,l),
(10,179,l)
);
},
{
closed = 1;
nodes = (
(506,0,l),
(546,239,l),
(542,239,l),
(574,432,l),
(430,432,l),
(398,239,l),
(394,239,l),
(354,0,l)
);
}
);
width = 670;
}
);
},
{
color = 6;
glyphname = five.lf;
kernLeft = five;
kernRight = five;
lastChange = "2022-02-18 14:13:03 +0000";
layers = (
{
guides = (
{
angle = 260.5377;
pos = (50,300);
},
{
pos = (177,343);
},
{
pos = (222,450);
},
{
angle = 260.5377;
pos = (594,300);
},
{
angle = 260.5377;
pos = (640,300);
},
{
angle = 14.3003;
pos = (80,187);
},
{
angle = 162.5042;
pos = (178,343);
}
);
hints = (
{
horizontal = 1;
origin = (0,31);
target = (0,24);
type = Stem;
},
{
horizontal = 1;
origin = (0,18);
target = (0,5);
type = Stem;
},
{
horizontal = 1;
origin = (0,13);
target = (0,10);
type = Stem;
},
{
origin = (0,21);
target = (0,2);
type = Stem;
}
);
layerId = "53F1C36F-0CF6-4FBE-93F4-60C790418F6C";
shapes = (
{
closed = 1;
nodes = (
(475,-13,o),
(587,134,o),
(587,292,cs),
(587,435,o),
(495,519,o),
(375,519,cs),
(294,519,o),
(252,484,o),
(224,450,c),
(200,450,l),
(266,686,l),
(611,686,l),
(627,780,l),
(198,780,l),
(85,372,l),
(178,343,l),
(197,376,o),
(243,433,o),
(332,433,cs),
(411,433,o),
(479,388,o),
(479,284,cs),
(479,186,o),
(419,77,o),
(291,77,cs),
(207,77,o),
(150,123,o),
(132,200,c),
(30,175,l),
(51,64,o),
(146,-13,o),
(283,-13,cs)
);
}
);
width = 640;
},
{
background = {
shapes = (
{
closed = 1;
nodes = (
(481,-12,o),
(612,130,o),
(612,323,cs),
(612,441,o),
(545,518,o),
(417,518,cs),
(325,518,o),
(279,478,o),
(256,440,c),
(230,440,l),
(288,650,l),
(626,650,l),
(648,780,l),
(185,780,l),
(60,320,l),
(211,319,l),
(226,349,o),
(267,400,o),
(344,400,cs),
(413,400,o),
(451,360,o),
(451,294,cs),
(451,208,o),
(403,114,o),
(298,114,cs),
(218,114,o),
(186,166,o),
(188,210,c),
(30,210,l),
(19,99,o),
(90,-12,o),
(274,-12,cs)
);
}
);
};
guides = (
{
angle = 260.5377;
pos = (42,300);
},
{
angle = 162.5042;
pos = (214,343);
}
);
layerId = "7BD6BBF9-E6B2-4B80-818C-1AB8B5401D18";
shapes = (
{
closed = 1;
nodes = (
(498,-13,o),
(620,130,o),
(620,298,cs),
(620,453,o),
(517,530,o),
(402,530,cs),
(336,530,o),
(294,505,o),
(262,468,c),
(238,468,l),
(292,650,l),
(626,650,l),
(648,780,l),
(188,780,l),
(78,379,l),
(212,337,l),
(232,372,o),
(266,416,o),
(333,416,cs),
(404,416,o),
(458,366,o),
(458,280,cs),
(458,197,o),
(408,113,o),
(310,113,cs),
(230,113,o),
(177,170,o),
(172,248,c),
(28,212,l),
(37,75,o),
(156,-13,o),
(306,-13,cs)
);
}
);
width = 660;
}
);
},
{
color = 6;
glyphname = six.lf;
kernLeft = six;
kernRight = six;
lastChange = "2022-02-18 14:13:03 +0000";
layers = (
{
background = {
shapes = (
{
closed = 1;
nodes = (
(266,0,l),
(304,39,o),
(393,133,o),
(436,180,cs),
(539,292,o),
(641,424,o),
(641,577,cs),
(641,706,o),
(558,794,o),
(410,794,cs),
(212,794,o),
(88,638,o),
(88,476,cs),
(88,363,o),
(157,280,o),
(288,280,cs),
(355,280,o),
(394,302,o),
(429,336,c),
(455,336,l),
(430,306,o),
(396,268,o),
(352,222,cs),
(305,172,o),
(239,105,o),
(139,6,c),
(138,0,l)
);
},
{
closed = 1;
nodes = (
(249,360,o),
(197,406,o),
(197,492,cs),
(197,601,o),
(265,707,o),
(393,707,cs),
(490,707,o),
(533,647,o),
(533,569,cs),
(533,466,o),
(465,360,o),
(334,360,cs)
);
}
);
};
guides = (
{
angle = 260.5377;
pos = (54,300);
},
{
angle = 260.5377;
pos = (600,300);
},
{
angle = 40.6013;
pos = (193,76);
}
);
hints = (
{
horizontal = 1;
origin = (0,26);
target = (1,11);
type = Stem;
},
{
horizontal = 1;
origin = (1,5);
target = (0,5);
type = Stem;
},
{
horizontal = 1;
origin = (0,17);
target = down;
type = TopGhost;
},
{
horizontal = 1;
origin = (1,5);
target = (0,9);
type = Stem;
},
{
origin = (0,23);
target = (1,2);
type = Stem;
},
{
origin = (1,8);
target = (0,2);
type = Stem;
}
);
layerId = "53F1C36F-0CF6-4FBE-93F4-60C790418F6C";
shapes = (
{
closed = 1;
nodes = (
(481,-14,o),
(592,128,o),
(592,279,cs),
(592,418,o),
(498,500,o),
(381,500,cs),
(324,500,o),
(290,480,o),
(254,450,c),
(230,450,l),
(253,479,o),
(299,527,o),
(332,560,cs),
(379,606,o),
(443,668,o),
(559,774,c),
(559,780,l),
(421,780,l),
(377,737,o),
(298,659,o),
(250,609,cs),
(137,491,o),
(47,371,o),
(47,230,cs),
(47,76,o),
(155,-14,o),
(299,-14,cs)
);
},
{
closed = 1;
nodes = (
(215,72,o),
(155,132,o),
(155,228,cs),
(155,324,o),
(215,422,o),
(335,422,cs),
(419,422,o),
(484,374,o),
(484,271,cs),
(484,172,o),
(424,72,o),
(306,72,cs)
);
}
);
width = 660;
},
{
background = {
shapes = (
{
closed = 1;
nodes = (
(492,-14,o),
(633,131,o),
(633,314,cs),
(633,435,o),
(557,508,o),
(444,508,cs),
(376,508,o),
(341,483,o),
(319,461,c),
(291,461,l),
(296,467,o),
(327,504,o),
(385,565,cs),
(481,666,o),
(561,743,o),
(592,774,c),
(593,780,l),
(404,780,l),
(337,710,o),
(236,594,o),
(230,588,cs),
(134,478,o),
(41,354,o),
(41,210,cs),
(41,80,o),
(126,-14,o),
(292,-14,cs)
);
},
{
closed = 1;
nodes = (
(233,106,o),
(195,159,o),
(195,224,cs),
(195,313,o),
(258,402,o),
(363,402,cs),
(434,402,o),
(478,362,o),
(478,288,cs),
(478,193,o),
(418,106,o),
(314,106,cs)
);
}
);
};
guides = (
{
angle = 260.5377;
pos = (636,300);
},
{
angle = 260.5377;
pos = (52,300);
}
);
layerId = "7BD6BBF9-E6B2-4B80-818C-1AB8B5401D18";
shapes = (
{
closed = 1;
nodes = (
(507,-14,o),
(630,122,o),
(630,286,cs),
(630,430,o),
(536,504,o),
(428,504,cs),
(370,504,o),
(341,483,o),
(317,460,c),
(293,460,l),
(317,494,o),
(328,508,o),
(386,564,cs),
(459,635,o),
(533,704,o),
(607,774,c),
(607,780,l),
(406,780,l),
(348,720,o),
(291,660,o),
(233,600,cs),
(134,497,o),
(46,378,o),
(46,240,cs),
(46,82,o),
(160,-14,o),
(318,-14,cs)
);
},
{
closed = 1;
nodes = (
(248,106,o),
(198,160,o),
(198,238,cs),
(198,321,o),
(254,402,o),
(352,402,cs),
(424,402,o),
(478,359,o),
(478,275,cs),
(478,192,o),
(426,106,o),
(327,106,cs)
);
}
);
width = 680;
}
);
},
{
color = 6;
glyphname = seven.lf;
kernLeft = seven;
kernRight = seven;
lastChange = "2022-02-18 14:13:03 +0000";
layers = (
{
background = {
shapes = (
{
closed = 1;
nodes = (
(174,0,l),
(632,686,l),
(648,780,l),
(112,780,l),
(97,688,l),
(531,688,l),
(527,664,l),
(492,638,o),
(465,610,o),
(424,550,cs),
(48,0,l)
);
}
);
};
guides = (
{
angle = 260.3401;
pos = (639,733);
},
{
angle = 55.0988;
pos = (395,339);
}
);
hints = (
{
horizontal = 1;
origin = (0,11);
target = up;
type = BottomGhost;
},
{
horizontal = 1;
origin = (0,3);
target = (0,4);
type = Stem;
}
);
layerId = "53F1C36F-0CF6-4FBE-93F4-60C790418F6C";
shapes = (
{
closed = 1;
nodes = (
(158,0,l),
(631,678,l),
(648,780,l),
(112,780,l),
(97,686,l),
(530,686,l),
(526,662,l),
(491,639,o),
(464,613,o),
(423,556,cs),
(25,6,l),
(25,0,l)
);
}
);
width = 600;
},
{
guides = (
{
angle = 260.5377;
pos = (30,300);
},
{
angle = 260.5377;
pos = (590,300);
},
{
angle = 56.4748;
pos = (434,322);
}
);
layerId = "7BD6BBF9-E6B2-4B80-818C-1AB8B5401D18";
shapes = (
{
closed = 1;
nodes = (
(221,0,l),
(647,643,l),
(670,780,l),
(110,780,l),
(88,650,l),
(500,650,l),
(497,629,l),
(440,589,o),
(417,555,o),
(380,501,cs),
(41,6,l),
(41,0,l)
);
}
);
width = 620;
}
);
},
{
color = 6;
glyphname = eight.lf;
kernLeft = eight;
kernRight = eight;
lastChange = "2022-02-18 14:13:03 +0000";
layers = (
{
background = {
shapes = (
{
closed = 1;
nodes = (
(476,-14,o),
(596,83,o),
(596,223,cs),
(596,302,o),
(558,355,o),
(478,388,c),
(482,412,l),
(591,443,o),
(630,529,o),
(630,602,cs),
(630,725,o),
(518,794,o),
(387,794,cs),
(239,794,o),
(127,707,o),
(127,580,cs),
(127,516,o),
(156,465,o),
(218,434,c),
(214,410,l),
(92,384,o),
(35,296,o),
(35,201,cs),
(35,59,o),
(163,-14,o),
(309,-14,cs)
);
},
{
closed = 1;
nodes = (
(218,72,o),
(145,124,o),
(145,212,cs),
(145,296,o),
(212,369,o),
(324,369,cs),
(416,369,o),
(488,321,o),
(488,231,cs),
(488,140,o),
(415,72,o),
(310,72,cs)
);
},
{
closed = 1;
nodes = (
(293,453,o),
(233,494,o),
(233,572,cs),
(233,649,o),
(293,708,o),
(383,708,cs),
(460,708,o),
(521,665,o),
(521,588,cs),
(521,511,o),
(460,453,o),
(370,453,cs)
);
}
);
};
guides = (
{
angle = 260.5377;
pos = (612,300);
},
{
angle = 260.5377;
pos = (48,300);
},
{
angle = 260.5377;
pos = (198,300);
},
{
angle = 260.5377;
pos = (462,300);
},
{
angle = 90;
pos = (196,411);
},
{
angle = 270;
pos = (464,411);
}
);
hints = (
{
horizontal = 1;
origin = (0,25);
target = (1,11);
type = Stem;
},
{
horizontal = 1;
origin = (1,5);
target = (2,11);
type = Stem;
},
{
horizontal = 1;
origin = (0,12);
target = (2,5);
type = Stem;
},
{
origin = (0,22);
target = (1,2);
type = Stem;
},
{
origin = (1,8);
target = (0,2);
type = Stem;
},
{
origin = (0,15);
target = (2,2);
type = Stem;
},
{
origin = (2,8);
target = (0,9);
type = Stem;
}
);
layerId = "53F1C36F-0CF6-4FBE-93F4-60C790418F6C";
shapes = (
{
closed = 1;
nodes = (
(476,-14,o),
(596,83,o),
(596,223,cs),
(596,302,o),
(558,357,o),
(477,390,c),
(481,414,l),
(591,445,o),
(630,529,o),
(630,602,cs),
(630,725,o),
(518,794,o),
(387,794,cs),
(239,794,o),
(127,707,o),
(127,580,cs),
(127,516,o),
(156,463,o),
(220,432,c),
(216,408,l),
(92,382,o),
(35,296,o),
(35,201,cs),
(35,59,o),
(163,-14,o),
(309,-14,cs)
);
},
{
closed = 1;
nodes = (
(216,72,o),
(143,124,o),
(143,212,cs),
(143,296,o),
(210,369,o),
(323,369,cs),
(416,369,o),
(488,321,o),
(488,231,cs),
(488,140,o),
(415,72,o),
(309,72,cs)
);
},
{
closed = 1;
nodes = (
(295,453,o),
(235,494,o),
(235,572,cs),
(235,649,o),
(295,708,o),
(384,708,cs),
(461,708,o),
(522,665,o),
(522,588,cs),
(522,511,o),
(461,453,o),
(372,453,cs)
);
}
);
width = 660;
},
{
guides = (
{
angle = 260.5377;
pos = (644,300);
},
{
angle = 260.5377;
pos = (36,300);
}
);
layerId = "7BD6BBF9-E6B2-4B80-818C-1AB8B5401D18";
shapes = (
{
closed = 1;
nodes = (
(500,-14,o),
(628,75,o),
(628,215,cs),
(628,299,o),
(582,353,o),
(503,384,c),
(507,408,l),
(614,434,o),
(659,514,o),
(659,593,cs),
(659,734,o),
(518,794,o),
(387,794,cs),
(229,794,o),
(118,707,o),
(118,579,cs),
(118,506,o),
(155,459,o),
(215,432,c),
(211,408,l),
(96,385,o),
(23,303,o),
(23,201,cs),
(23,53,o),
(176,-14,o),
(327,-14,cs)
);
},
{
closed = 1;
nodes = (
(250,106,o),
(189,144,o),
(189,220,cs),
(189,291,o),
(243,352,o),
(334,352,cs),
(402,352,o),
(468,318,o),
(468,238,cs),
(468,167,o),
(416,106,o),
(323,106,cs)
);
},
{
closed = 1;
nodes = (
(318,466,o),
(264,500,o),
(264,564,cs),
(264,623,o),
(310,674,o),
(390,674,cs),
(453,674,o),
(507,642,o),
(507,577,cs),
(507,517,o),
(461,466,o),
(382,466,cs)
);
}
);
width = 680;
}
);
},
{
color = 6;
glyphname = nine.lf;
kernLeft = nine;
kernRight = nine;
lastChange = "2022-02-18 14:13:03 +0000";
layers = (
{
background = {
shapes = (
{
closed = 1;
nodes = (
(266,0,l),
(304,39,o),
(393,133,o),
(436,180,cs),
(539,292,o),
(641,424,o),
(641,577,cs),
(641,706,o),
(558,794,o),
(410,794,cs),
(212,794,o),
(88,638,o),
(88,476,cs),
(88,363,o),
(157,280,o),
(288,280,cs),
(355,280,o),
(394,302,o),
(429,336,c),
(455,336,l),
(430,306,o),
(396,268,o),
(352,222,cs),
(305,172,o),
(239,105,o),
(139,6,c),
(138,0,l)
);
},
{
closed = 1;
nodes = (
(249,360,o),
(197,406,o),
(197,492,cs),
(197,601,o),
(265,707,o),
(393,707,cs),
(490,707,o),
(533,647,o),
(533,569,cs),
(533,466,o),
(465,360,o),
(334,360,cs)
);
}
);
};
guides = (
{
angle = 260.5377;
pos = (54,300);
},
{
angle = 260.5377;
pos = (600,300);
},
{
angle = 40.6013;
pos = (193,76);
}
);
hints = (
{
horizontal = 1;
origin = (0,26);
target = up;
type = BottomGhost;
},
{
horizontal = 1;
origin = (0,15);
target = (1,11);
type = Stem;
},
{
horizontal = 1;
origin = (0,9);
target = (1,5);
type = Stem;
},
{
horizontal = 1;
origin = (0,18);
target = (1,11);
type = Stem;
},
{
origin = (0,12);
target = (1,2);
type = Stem;
},
{
origin = (1,8);
target = (0,6);
type = Stem;
}
);
layerId = "53F1C36F-0CF6-4FBE-93F4-60C790418F6C";
shapes = (
{
closed = 1;
nodes = (
(263,0,l),
(307,43,o),
(386,121,o),
(434,171,cs),
(547,289,o),
(637,409,o),
(637,550,cs),
(637,704,o),
(529,794,o),
(385,794,cs),
(203,794,o),
(92,652,o),
(92,501,cs),
(92,362,o),
(186,280,o),
(303,280,cs),
(360,280,o),
(394,300,o),
(430,330,c),
(454,330,l),
(431,301,o),
(385,253,o),
(352,220,cs),
(305,174,o),
(241,112,o),
(125,6,c),
(125,0,l)
);
},
{
closed = 1;
nodes = (
(265,358,o),
(200,406,o),
(200,509,cs),
(200,608,o),
(260,708,o),
(378,708,cs),
(469,708,o),
(529,648,o),
(529,552,cs),
(529,456,o),
(469,358,o),
(349,358,cs)
);
}
);
width = 660;
},
{
guides = (
{
angle = 260.5377;
pos = (628,300);
}
);
layerId = "7BD6BBF9-E6B2-4B80-818C-1AB8B5401D18";
shapes = (
{
closed = 1;
nodes = (
(304,0,l),
(362,60,o),
(419,120,o),
(477,180,cs),
(576,283,o),
(664,402,o),
(664,540,cs),
(664,698,o),
(550,794,o),
(392,794,cs),
(203,794,o),
(80,658,o),
(80,494,cs),
(80,350,o),
(174,276,o),
(282,276,cs),
(340,276,o),
(369,297,o),
(393,320,c),
(417,320,l),
(393,286,o),
(382,272,o),
(324,216,cs),
(251,145,o),
(177,76,o),
(103,6,c),
(103,0,l)
);
},
{
closed = 1;
nodes = (
(286,378,o),
(232,421,o),
(232,505,cs),
(232,588,o),
(284,674,o),
(383,674,cs),
(462,674,o),
(512,620,o),
(512,542,cs),
(512,459,o),
(456,378,o),
(358,378,cs)
);
}
);
width = 680;
}
);
},
{
color = 6;
glyphname = zero.zero.lf;
lastChange = "2022-02-18 14:13:03 +0000";
layers = (
{
background = {
shapes = (
{
closed = 1;
nodes = (
(587,-14,o),
(655,315,o),
(655,488,cs),
(655,686,o),
(565,794,o),
(404,794,cs),
(126,794,o),
(55,469,o),
(55,294,cs),
(55,95,o),
(146,-14,o),
(307,-14,cs)
);
},
{
closed = 1;
nodes = (
(217,76,o),
(167,148,o),
(167,278,cs),
(167,407,o),
(216,704,o),
(402,704,cs),
(493,704,o),
(543,633,o),
(543,502,cs),
(543,373,o),
(494,76,o),
(308,76,cs)
);
},
{
closed = 1;
nodes = (
(609,610,l),
(567,664,l),
(96,181,l),
(138,127,l)
);
}
);
};
hints = (
{
horizontal = 1;
origin = (0,11);
target = (1,10);
type = Stem;
},
{
horizontal = 1;
origin = (0,5);
target = (2,2);
type = Stem;
},
{
origin = (0,8);
target = (2,10);
type = Stem;
},
{
origin = (1,7);
target = (0,2);
type = Stem;
}
);
layerId = "53F1C36F-0CF6-4FBE-93F4-60C790418F6C";
shapes = (
{
closed = 1;
nodes = (
(587,-14,o),
(655,315,o),
(655,488,cs),
(655,686,o),
(565,794,o),
(404,794,cs),
(126,794,o),
(55,469,o),
(55,294,cs),
(55,95,o),
(146,-14,o),
(307,-14,cs)
);
},
{
closed = 1;
nodes = (
(246,76,o),
(203,109,o),
(182,172,c),
(461,459,ls),
(488,486,o),
(509,511,o),
(529,540,c),
(553,540,l),
(553,396,o),
(498,76,o),
(308,76,cs)
);
},
{
closed = 1;
nodes = (
(156,407,o),
(216,704,o),
(402,704,cs),
(460,704,o),
(502,675,o),
(524,620,c),
(248,336,l),
(221,309,o),
(200,284,o),
(180,252,c),
(156,252,l)
);
}
);
width = 680;
},
{
background = {
shapes = (
{
closed = 1;
nodes = (
(593,-14,o),
(668,299,o),
(668,480,cs),
(668,688,o),
(568,794,o),
(402,794,cs),
(117,794,o),
(42,480,o),
(42,301,cs),
(42,94,o),
(142,-14,o),
(309,-14,cs)
);
},
{
closed = 1;
nodes = (
(242,112,o),
(208,173,o),
(208,271,cs),
(208,382,o),
(252,668,o),
(399,668,cs),
(469,668,o),
(502,607,o),
(502,510,cs),
(502,400,o),
(459,112,o),
(312,112,cs)
);
},
{
closed = 1;
nodes = (
(614,603,l),
(562,671,l),
(91,188,l),
(143,120,l)
);
}
);
};
layerId = "7BD6BBF9-E6B2-4B80-818C-1AB8B5401D18";
shapes = (
{
closed = 1;
nodes = (
(593,-14,o),
(668,299,o),
(668,480,cs),
(668,688,o),
(568,794,o),
(402,794,cs),
(117,794,o),
(42,480,o),
(42,301,cs),
(42,94,o),
(142,-14,o),
(309,-14,cs)
);
},
{
closed = 1;
nodes = (
(263,112,o),
(231,142,o),
(217,196,c),
(451,437,ls),
(467,453,o),
(480,472,o),
(489,488,c),
(513,488,l),
(508,355,o),
(450,112,o),
(312,112,cs)
);
},
{
closed = 1;
nodes = (
(206,447,o),
(267,668,o),
(399,668,cs),
(444,668,o),
(475,642,o),
(490,597,c),
(259,360,l),
(242,343,o),
(231,327,o),
(221,309,c),
(197,309,l)
);
}
);
width = 680;
}
);
},
{
color = 6;
glyphname = zero.dnom;
lastChange = "2022-02-18 14:13:03 +0000";
layers = (
{
background = {
shapes = (
{
closed = 1;
nodes = (
(601,-14,o),
(679,328,o),
(679,521,cs),
(679,694,o),
(604,794,o),
(442,794,cs),
(152,794,o),
(71,456,o),
(71,260,cs),
(71,86,o),
(147,-14,o),
(308,-14,cs)
);
},
{
closed = 1;
nodes = (
(228,72,o),
(184,135,o),
(184,258,cs),
(184,403,o),
(249,708,o),
(428,708,cs),
(522,708,o),
(566,645,o),
(566,522,cs),
(566,377,o),
(501,72,o),
(322,72,cs)
);
}
);
};
guides = (
{
angle = 260.5377;
pos = (652,300);
},
{
angle = 260.5377;
pos = (436,300);
},
{
angle = 260.5377;
pos = (44,300);
}
);
hints = (
{
horizontal = 1;
origin = (0,11);
target = (1,11);
type = Stem;
},
{
horizontal = 1;
origin = (1,5);
target = (0,5);
type = Stem;
},
{
origin = (0,8);
target = (1,2);
type = Stem;
},
{
origin = (1,8);
target = (0,2);
type = Stem;
}
);
layerId = "53F1C36F-0CF6-4FBE-93F4-60C790418F6C";
shapes = (
{
closed = 1;
nodes = (
(383,-9,o),
(430,188,o),
(430,297,cs),
(430,423,o),
(367,488,o),
(261,488,cs),
(78,488,o),
(30,294,o),
(30,184,cs),
(30,58,o),
(93,-9,o),
(199,-9,cs)
);
},
{
closed = 1;
nodes = (
(149,63,o),
(123,103,o),
(123,168,cs),
(123,240,o),
(153,416,o),
(259,416,cs),
(310,416,o),
(337,378,o),
(337,312,cs),
(337,241,o),
(307,63,o),
(201,63,cs)
);
}
);
width = 480;
},
{
background = {
shapes = (
{
closed = 1;
nodes = (
(609,-14,o),
(692,317,o),
(692,516,cs),
(692,692,o),
(612,794,o),
(442,794,cs),
(141,794,o),
(58,463,o),
(58,265,cs),
(58,88,o),
(139,-14,o),
(308,-14,cs)
);
},
{
closed = 1;
nodes = (
(258,106,o),
(225,158,o),
(225,261,cs),
(225,376,o),
(283,674,o),
(422,674,cs),
(492,674,o),
(525,622,o),
(525,519,cs),
(525,404,o),
(467,106,o),
(328,106,cs)
);
}
);
};
guides = (
{
angle = 260.5377;
pos = (446,300);
},
{
angle = 260.5377;
pos = (666,300);
},
{
angle = 260.5377;
pos = (34,300);
}
);
layerId = "7BD6BBF9-E6B2-4B80-818C-1AB8B5401D18";
shapes = (
{
closed = 1;
nodes = (
(387,-9,o),
(439,176,o),
(439,291,cs),
(439,424,o),
(370,488,o),
(260,488,cs),
(72,488,o),
(22,300,o),
(22,189,cs),
(22,57,o),
(91,-9,o),
(201,-9,cs)
);
},
{
closed = 1;
nodes = (
(167,86,o),
(151,118,o),
(151,163,cs),
(151,219,o),
(176,393,o),
(259,393,cs),
(295,393,o),
(310,361,o),
(310,318,cs),
(310,263,o),
(286,86,o),
(203,86,cs)
);
}
);
width = 480;
}
);
},
{
color = 6;
glyphname = one.dnom;
lastChange = "2022-02-18 14:13:03 +0000";
layers = (
{
guides = (
{
angle = 260.5377;
pos = (199,0);
},
{
angle = 260.5377;
pos = (339,300);
},
{
angle = 260.5377;
pos = (132,300);
}
);
hints = (
{
horizontal = 1;
origin = (0,8);
target = up;
type = BottomGhost;
},
{
horizontal = 1;
origin = (0,6);
target = (0,5);
type = Stem;
},
{
origin = (0,6);
target = (0,1);
type = Stem;
}
);
layerId = "53F1C36F-0CF6-4FBE-93F4-60C790418F6C";
shapes = (
{
closed = 1;
nodes = (
(269,0,l),
(349,480,l),
(275,480,l),
(254,417,o),
(230,404,o),
(149,399,c),
(139,342,l),
(236,342,l),
(179,0,l)
);
}
);
width = 480;
},
{
guides = (
{
angle = 260.5377;
pos = (163,0);
},
{
angle = 260.5377;
pos = (289,0);
},
{
angle = 260.5377;
pos = (120,300);
}
);
layerId = "7BD6BBF9-E6B2-4B80-818C-1AB8B5401D18";
shapes = (
{
closed = 1;
nodes = (
(289,0,l),
(369,480,l),
(258,480,l),
(236,417,o),
(209,409,o),
(137,402,c),
(125,328,l),
(218,328,l),
(163,0,l)
);
}
);
width = 480;
}
);
},
{
color = 6;
glyphname = two.dnom;
lastChange = "2022-02-18 14:13:03 +0000";
layers = (
{
guides = (
{
angle = 260.5377;
pos = (580,300);
},
{
angle = 162.5042;
pos = (153,550);
},
{
angle = 137.4471;
pos = (336,265);
},
{
angle = 37.7468;
pos = (360,243);
},
{
angle = 260.5377;
pos = (422,300);
},
{
angle = 260.5377;
pos = (58,300);
}
);
hints = (
{
horizontal = 1;
origin = (0,29);
target = (0,2);
type = Stem;
},
{
horizontal = 1;
origin = (0,19);
target = (0,12);
type = Stem;
},
{
origin = (0,22);
target = (0,9);
type = Stem;
}
);
layerId = "53F1C36F-0CF6-4FBE-93F4-60C790418F6C";
shapes = (
{
closed = 1;
nodes = (
(369,0,l),
(382,74,l),
(142,74,l),
(144,98,l),
(195,123,o),
(218,136,o),
(257,162,cs),
(339,216,o),
(404,268,o),
(404,360,cs),
(404,437,o),
(342,488,o),
(250,488,cs),
(152,488,o),
(90,431,o),
(64,349,c),
(140,325,l),
(152,372,o),
(184,417,o),
(242,417,cs),
(286,417,o),
(317,392,o),
(317,354,cs),
(317,297,o),
(258,248,o),
(199,204,cs),
(133,155,o),
(103,135,o),
(24,78,c),
(11,0,l)
);
}
);
width = 480;
},
{
background = {
shapes = (
{
pos = (-20,0);
ref = zero.lf;
}
);
};
guides = (
{
angle = 162.5042;
pos = (239,525);
},
{
angle = 137.4471;
pos = (333,322);
},
{
angle = 260.5377;
pos = (191,98);
}
);
layerId = "7BD6BBF9-E6B2-4B80-818C-1AB8B5401D18";
shapes = (
{
closed = 1;
nodes = (
(386,0,l),
(402,98,l),
(185,98,l),
(189,122,l),
(229,142,o),
(259,160,o),
(276,170,cs),
(329,202,o),
(420,255,o),
(420,350,cs),
(420,424,o),
(361,488,o),
(255,488,cs),
(152,488,o),
(84,428,o),
(48,351,c),
(152,318,l),
(172,362,o),
(201,393,o),
(241,393,cs),
(274,393,o),
(294,371,o),
(294,345,cs),
(294,304,o),
(247,268,o),
(193,226,cs),
(133,180,o),
(101,160,o),
(11,102,c),
(-6,0,l)
);
}
);
width = 480;
}
);
},
{
color = 6;
glyphname = three.dnom;
lastChange = "2022-02-18 14:13:03 +0000";
layers = (
{
background = {
shapes = (
{
closed = 1;
nodes = (
(472,-13,o),
(581,101,o),
(581,245,cs),
(581,354,o),
(518,434,o),
(400,466,c),
(403,490,l),
(625,681,l),
(640,780,l),
(164,780,l),
(148,686,l),
(474,686,l),
(470,662,l),
(265,486,l),
(250,396,l),
(278,394,ls),
(403,385,o),
(473,327,o),
(473,235,cs),
(473,153,o),
(416,77,o),
(307,77,cs),
(208,77,o),
(140,148,o),
(131,240,c),
(29,214,l),
(37,79,o),
(148,-13,o),
(300,-13,cs)
);
}
);
};
guides = (
{
angle = 260.5377;
pos = (40,300);
},
{
angle = 260.5377;
pos = (592,300);
},
{
angle = 260.5377;
pos = (234,300);
},
{
angle = 27.0611;
pos = (70,200);
},
{
angle = 220.5304;
pos = (265,486);
},
{
angle = 80.2176;
pos = (468,672);
},
{
angle = 261.8699;
pos = (398,460);
},
{
angle = 194.3003;
pos = (79,227);
},
{
angle = 40.6013;
pos = (515,586);
},
{
angle = 80.3401;
pos = (156,733);
},
{
angle = 260.5377;
pos = (640,300);
}
);
hints = (
{
horizontal = 1;
origin = (0,31);
target = (0,24);
type = Stem;
},
{
horizontal = 1;
origin = (0,10);
target = (0,9);
type = Stem;
},
{
origin = (0,28);
target = (0,27);
type = Stem;
},
{
origin = (0,21);
target = (0,2);
type = Stem;
}
);
layerId = "53F1C36F-0CF6-4FBE-93F4-60C790418F6C";
shapes = (
{
closed = 1;
nodes = (
(308,-8,o),
(388,56,o),
(388,148,cs),
(388,216,o),
(338,259,o),
(261,265,c),
(265,289,l),
(412,403,l),
(424,480,l),
(103,480,l),
(91,409,l),
(307,409,l),
(303,385,l),
(279,372,o),
(269,365,o),
(245,348,cs),
(166,292,l),
(156,228,l),
(181,226,ls),
(253,220,o),
(298,193,o),
(298,144,cs),
(298,104,o),
(267,63,o),
(202,63,cs),
(143,63,o),
(104,97,o),
(99,151,c),
(17,131,l),
(23,46,o),
(98,-8,o),
(199,-8,cs)
);
}
);
width = 480;
},
{
background = {
shapes = (
{
closed = 1;
nodes = (
(465,-12,o),
(612,97,o),
(612,270,cs),
(612,369,o),
(550,434,o),
(437,450,c),
(441,474,l),
(639,641,l),
(662,780,l),
(152,780,l),
(130,646,l),
(442,646,l),
(438,622,l),
(259,464,l),
(241,352,l),
(273,352,ls),
(378,352,o),
(440,317,o),
(440,247,cs),
(440,185,o),
(397,113,o),
(298,113,cs),
(206,113,o),
(173,173,o),
(178,240,c),
(20,240,l),
(10,110,o),
(74,-12,o),
(278,-12,cs)
);
}
);
};
guides = (
{
angle = 260.5377;
pos = (620,300);
},
{
angle = 260.5377;
pos = (155,282);
},
{
angle = 14.0362;
pos = (94,230);
},
{
angle = 260.5377;
pos = (582,300);
}
);
layerId = "7BD6BBF9-E6B2-4B80-818C-1AB8B5401D18";
shapes = (
{
closed = 1;
nodes = (
(312,-8,o),
(405,51,o),
(405,145,cs),
(405,210,o),
(360,254,o),
(283,258,c),
(287,282,l),
(422,379,l),
(439,480,l),
(95,480,l),
(80,385,l),
(279,385,l),
(275,361,l),
(256,356,o),
(248,351,o),
(219,329,cs),
(155,282,l),
(143,213,l),
(179,211,ls),
(236,208,o),
(279,185,o),
(279,146,cs),
(279,122,o),
(262,86,o),
(205,86,cs),
(163,86,o),
(130,103,o),
(123,156,c),
(13,129,l),
(23,43,o),
(102,-8,o),
(203,-8,cs)
);
}
);
width = 480;
}
);
},
{
color = 6;
glyphname = four.dnom;
lastChange = "2022-02-18 14:13:03 +0000";
layers = (
{
background = {
shapes = (
{
closed = 1;
nodes = (
(589,198,l),
(604,289,l),
(156,289,l),
(160,313,l),
(553,776,l),
(554,780,l),
(440,780,l),
(34,301,l),
(17,198,l)
);
},
{
closed = 1;
nodes = (
(432,0,l),
(502,420,l),
(398,420,l),
(328,0,l)
);
}
);
};
guides = (
{
angle = 260.5377;
pos = (606,300);
},
{
angle = 260.5377;
pos = (597,243);
},
{
angle = 226.2759;
pos = (257,551);
},
{
angle = 260.5377;
pos = (432,300);
},
{
angle = 260.5377;
pos = (48,300);
}
);
hints = (
{
horizontal = 1;
origin = (0,11);
target = (0,2);
type = Stem;
},
{
horizontal = 1;
origin = (1,7);
target = (0,2);
type = Stem;
}
);
layerId = "53F1C36F-0CF6-4FBE-93F4-60C790418F6C";
shapes = (
{
closed = 1;
nodes = (
(401,113,l),
(412,182,l),
(122,182,l),
(126,206,l),
(154,224,o),
(178,243,o),
(194,258,cs),
(420,474,l),
(420,480,l),
(313,480,l),
(30,193,l),
(17,113,l)
);
},
{
closed = 1;
nodes = (
(319,0,l),
(345,147,l),
(343,147,l),
(363,264,l),
(282,264,l),
(261,147,l),
(260,147,l),
(234,0,l)
);
}
);
width = 480;
},
{
guides = (
{
angle = 260.5377;
pos = (572,420);
},
{
angle = 226.2759;
pos = (674,774);
},
{
angle = 226.2759;
pos = (19,190);
},
{
angle = 260.5377;
pos = (446,300);
},
{
angle = 260.5377;
pos = (34,300);
}
);
layerId = "7BD6BBF9-E6B2-4B80-818C-1AB8B5401D18";
shapes = (
{
closed = 1;
nodes = (
(412,102,l),
(427,193,l),
(166,193,l),
(170,217,l),
(201,243,o),
(209,248,o),
(234,272,cs),
(443,474,l),
(443,480,l),
(295,480,l),
(17,190,l),
(2,102,l)
);
},
{
closed = 1;
nodes = (
(351,0,l),
(377,146,l),
(373,146,l),
(395,272,l),
(285,272,l),
(263,146,l),
(260,146,l),
(234,0,l)
);
}
);
width = 480;
}
);
},
{
color = 6;
glyphname = five.dnom;
lastChange = "2022-02-18 14:13:03 +0000";
layers = (
{
guides = (
{
angle = 260.5377;
pos = (588,300);
},
{
angle = 260.5377;
pos = (50,300);
},
{
pos = (177,343);
},
{
pos = (222,450);
},
{
angle = 260.5377;
pos = (592,300);
},
{
angle = 260.5377;
pos = (640,300);
},
{
angle = 14.3003;
pos = (80,187);
},
{
angle = 162.5042;
pos = (178,343);
}
);
hints = (
{
horizontal = 1;
origin = (0,31);
target = (0,24);
type = Stem;
},
{
horizontal = 1;
origin = (0,18);
target = (0,9);
type = Stem;
},
{
horizontal = 1;
origin = (0,10);
target = (0,13);
type = Stem;
},
{
horizontal = 1;
origin = (0,18);
target = (0,5);
type = Stem;
},
{
origin = (0,21);
target = (0,2);
type = Stem;
}
);
layerId = "53F1C36F-0CF6-4FBE-93F4-60C790418F6C";
shapes = (
{
closed = 1;
nodes = (
(315,-8,o),
(386,80,o),
(386,184,cs),
(386,275,o),
(332,324,o),
(257,324,cs),
(212,324,o),
(185,307,o),
(166,285,c),
(142,285,l),
(181,406,l),
(401,406,l),
(413,480,l),
(123,480,l),
(51,232,l),
(126,208,l),
(138,228,o),
(164,258,o),
(213,258,cs),
(262,258,o),
(296,226,o),
(296,173,cs),
(296,124,o),
(267,64,o),
(194,64,cs),
(141,64,o),
(106,96,o),
(99,144,c),
(17,124,l),
(26,44,o),
(98,-8,o),
(191,-8,cs)
);
}
);
width = 480;
},
{
background = {
shapes = (
{
closed = 1;
nodes = (
(480,-12,o),
(611,130,o),
(611,323,cs),
(611,441,o),
(544,518,o),
(416,518,cs),
(324,518,o),
(278,478,o),
(255,440,c),
(229,440,l),
(287,650,l),
(625,650,l),
(647,780,l),
(184,780,l),
(59,320,l),
(210,319,l),
(225,349,o),
(266,400,o),
(343,400,cs),
(412,400,o),
(450,360,o),
(450,294,cs),
(450,208,o),
(402,114,o),
(297,114,cs),
(217,114,o),
(185,166,o),
(187,210,c),
(29,210,l),
(18,99,o),
(89,-12,o),
(273,-12,cs)
);
}
);
};
guides = (
{
angle = 260.5377;
pos = (612,300);
},
{
angle = 162.5042;
pos = (213,343);
}
);
layerId = "7BD6BBF9-E6B2-4B80-818C-1AB8B5401D18";
shapes = (
{
closed = 1;
nodes = (
(335,-8,o),
(413,74,o),
(413,180,cs),
(413,284,o),
(337,320,o),
(278,320,cs),
(241,320,o),
(216,306,o),
(200,289,c),
(176,289,l),
(208,382,l),
(421,382,l),
(438,480,l),
(127,480,l),
(55,233,l),
(157,200,l),
(172,221,o),
(191,240,o),
(222,240,cs),
(264,240,o),
(287,208,o),
(287,170,cs),
(287,132,o),
(264,86,o),
(203,86,cs),
(166,86,o),
(133,103,o),
(123,156,c),
(13,129,l),
(23,43,o),
(101,-8,o),
(205,-8,cs)
);
}
);
width = 480;
}
);
},
{
color = 6;
glyphname = six.dnom;
lastChange = "2022-02-18 14:13:03 +0000";
layers = (
{
background = {
shapes = (
{
closed = 1;
nodes = (
(266,0,l),
(304,39,o),
(393,133,o),
(436,180,cs),
(539,292,o),
(641,424,o),
(641,577,cs),
(641,706,o),
(558,794,o),
(410,794,cs),
(212,794,o),
(88,638,o),
(88,476,cs),
(88,363,o),
(157,280,o),
(288,280,cs),
(355,280,o),
(394,302,o),
(429,336,c),
(455,336,l),
(430,306,o),
(396,268,o),
(352,222,cs),
(305,172,o),
(239,105,o),
(139,6,c),
(138,0,l)
);
},
{
closed = 1;
nodes = (
(249,360,o),
(197,406,o),
(197,492,cs),
(197,601,o),
(265,707,o),
(393,707,cs),
(490,707,o),
(533,647,o),
(533,569,cs),
(533,466,o),
(465,360,o),
(334,360,cs)
);
}
);
};
guides = (
{
angle = 40.6013;
pos = (193,76);
},
{
angle = 260.5377;
pos = (432,300);
},
{
angle = 260.5377;
pos = (48,300);
}
);
hints = (
{
horizontal = 1;
origin = (0,26);
target = (1,11);
type = Stem;
},
{
horizontal = 1;
origin = (1,5);
target = (0,9);
type = Stem;
},
{
origin = (0,23);
target = (1,2);
type = Stem;
},
{
origin = (1,8);
target = (0,2);
type = Stem;
}
);
layerId = "53F1C36F-0CF6-4FBE-93F4-60C790418F6C";
shapes = (
{
closed = 1;
nodes = (
(326,-9,o),
(403,76,o),
(403,175,cs),
(403,262,o),
(341,309,o),
(273,309,cs),
(244,309,o),
(223,301,o),
(200,281,c),
(176,281,l),
(185,293,o),
(203,311,o),
(239,346,cs),
(271,378,o),
(340,438,o),
(385,474,c),
(385,480,l),
(275,480,l),
(238,446,o),
(195,405,o),
(160,371,cs),
(81,294,o),
(34,223,o),
(34,146,cs),
(34,49,o),
(107,-9,o),
(205,-9,cs)
);
},
{
closed = 1;
nodes = (
(156,59,o),
(120,93,o),
(120,145,cs),
(120,198,o),
(158,251,o),
(228,251,cs),
(278,251,o),
(316,223,o),
(316,168,cs),
(316,115,o),
(280,59,o),
(210,59,cs)
);
}
);
width = 480;
},
{
background = {
shapes = (
{
closed = 1;
nodes = (
(391,-9,o),
(443,176,o),
(443,291,cs),
(443,424,o),
(374,488,o),
(264,488,cs),
(76,488,o),
(26,300,o),
(26,189,cs),
(26,57,o),
(95,-9,o),
(205,-9,cs)
);
},
{
closed = 1;
nodes = (
(171,86,o),
(155,118,o),
(155,163,cs),
(155,219,o),
(180,393,o),
(263,393,cs),
(299,393,o),
(314,361,o),
(314,318,cs),
(314,263,o),
(290,86,o),
(207,86,cs)
);
}
);
};
guides = (
{
angle = 260.5377;
pos = (640,300);
},
{
angle = 260.5377;
pos = (450,300);
},
{
angle = 260.5377;
pos = (38,300);
}
);
layerId = "7BD6BBF9-E6B2-4B80-818C-1AB8B5401D18";
shapes = (
{
closed = 1;
nodes = (
(334,-9,o),
(419,72,o),
(419,179,cs),
(419,270,o),
(357,312,o),
(295,312,cs),
(265,312,o),
(248,301,o),
(233,288,c),
(209,288,l),
(227,311,o),
(236,320,o),
(265,348,cs),
(317,399,o),
(384,456,o),
(407,474,c),
(407,480,l),
(258,480,l),
(186,414,o),
(141,370,o),
(137,366,cs),
(70,301,o),
(24,230,o),
(24,152,cs),
(24,53,o),
(101,-9,o),
(208,-9,cs)
);
},
{
closed = 1;
nodes = (
(169,82,o),
(140,113,o),
(140,153,cs),
(140,199,o),
(175,241,o),
(230,241,cs),
(272,241,o),
(303,216,o),
(303,173,cs),
(303,129,o),
(272,82,o),
(215,82,cs)
);
}
);
width = 480;
}
);
},
{
color = 6;
glyphname = seven.dnom;
lastChange = "2022-02-18 14:13:03 +0000";
layers = (
{
background = {
shapes = (
{
closed = 1;
nodes = (
(174,0,l),
(632,686,l),
(648,780,l),
(112,780,l),
(97,688,l),
(531,688,l),
(527,664,l),
(492,638,o),
(465,610,o),
(424,550,cs),
(48,0,l)
);
}
);
};
guides = (
{
angle = 260.3401;
pos = (640,733);
},
{
angle = 55.0988;
pos = (416,402);
},
{
angle = 260.5377;
pos = (420,300);
},
{
angle = 260.5377;
pos = (60,300);
}
);
hints = (
{
horizontal = 1;
origin = (0,11);
target = up;
type = BottomGhost;
},
{
horizontal = 1;
origin = (0,4);
target = (0,3);
type = Stem;
}
);
layerId = "53F1C36F-0CF6-4FBE-93F4-60C790418F6C";
shapes = (
{
closed = 1;
nodes = (
(155,0,l),
(437,402,l),
(450,480,l),
(90,480,l),
(78,406,l),
(349,406,l),
(345,382,l),
(316,363,o),
(298,342,o),
(275,311,cs),
(48,6,l),
(48,0,l)
);
}
);
width = 480;
},
{
guides = (
{
angle = 260.5377;
pos = (590,300);
},
{
angle = 260.5377;
pos = (432,300);
},
{
angle = 260.5377;
pos = (56,300);
},
{
angle = 56.4748;
pos = (444,378);
}
);
layerId = "7BD6BBF9-E6B2-4B80-818C-1AB8B5401D18";
shapes = (
{
closed = 1;
nodes = (
(194,0,l),
(444,378,l),
(461,480,l),
(88,480,l),
(71,382,l),
(328,382,l),
(324,358,l),
(281,326,o),
(265,304,o),
(242,271,cs),
(56,6,l),
(56,0,l)
);
}
);
width = 480;
}
);
},
